<?xml version="1.0" encoding="UTF-8" standalone="no"?>
<!-- Created with Inkscape (http://www.inkscape.org/) -->

<svg
   width="210mm"
   height="297mm"
   viewBox="0 0 210 297"
   version="1.1"
   id="svg1697"
   inkscape:version="1.2.2 (732a01da63, 2022-12-09)"
   sodipodi:docname="GND_Layer_final.svg"
   xmlns:inkscape="http://www.inkscape.org/namespaces/inkscape"
   xmlns:sodipodi="http://sodipodi.sourceforge.net/DTD/sodipodi-0.dtd"
   xmlns="http://www.w3.org/2000/svg"
   xmlns:svg="http://www.w3.org/2000/svg">
  <sodipodi:namedview
     id="namedview1699"
     pagecolor="#ffffff"
     bordercolor="#666666"
     borderopacity="1.0"
     inkscape:showpageshadow="2"
     inkscape:pageopacity="0.0"
     inkscape:pagecheckerboard="0"
     inkscape:deskcolor="#d1d1d1"
     inkscape:document-units="mm"
     showgrid="false"
     inkscape:zoom="1.0885159"
     inkscape:rotation="90"
     inkscape:cx="251.25954"
     inkscape:cy="598.52136"
     inkscape:window-width="1920"
     inkscape:window-height="1001"
     inkscape:window-x="-9"
     inkscape:window-y="219"
     inkscape:window-maximized="1"
     inkscape:current-layer="layer1" />
  <defs
     id="defs1694" />
  <g
     inkscape:label="Ebene 1"
     inkscape:groupmode="layer"
     id="layer1">
    <path
       id="rect111"
       style="fill:none;fill-rule:evenodd;stroke:#000000;stroke-width:0.5;stroke-dasharray:none;stroke-opacity:1"
       d="M 37.249923 -0.25011393 L 296.74985 -0.25011393 L 296.74985 -70.249976 L 291.9026 -70.249976 A 6 6 0 0 1 292.24986 -68.250098 A 6 6 0 0 1 286.74994 -62.272685 L 286.74994 -60.227332 A 6 6 0 0 1 292.24986 -54.249919 A 6 6 0 0 1 286.74994 -48.272506 L 286.74994 -46.227669 A 6 6 0 0 1 292.24986 -40.250256 A 6 6 0 0 1 286.74994 -34.272327 L 286.74994 -32.22749 A 6 6 0 0 1 292.24986 -26.250077 A 6 6 0 0 1 286.74994 -20.272664 L 286.74994 -18.227311 A 6 6 0 0 1 292.24986 -12.249898 A 6 6 0 0 1 286.25023 -6.2497477 A 6 6 0 0 1 280.33741 -11.249959 L 278.16287 -11.249959 A 6 6 0 0 1 272.25005 -6.2497477 A 6 6 0 0 1 266.33723 -11.249959 L 264.16269 -11.249959 A 6 6 0 0 1 258.24987 -6.2497477 A 6 6 0 0 1 252.33705 -11.249959 L 250.16302 -11.249959 A 6 6 0 0 1 244.25021 -6.2497477 A 6 6 0 0 1 238.33739 -11.249959 L 236.16285 -11.249959 A 6 6 0 0 1 230.25003 -6.2497477 A 6 6 0 0 1 224.33721 -11.249959 L 222.16267 -11.249959 A 6 6 0 0 1 216.24985 -6.2497477 A 6 6 0 0 1 210.33703 -11.249959 L 208.163 -11.249959 A 6 6 0 0 1 202.25019 -6.2497477 A 6 6 0 0 1 196.33737 -11.249959 L 194.16283 -11.249959 A 6 6 0 0 1 188.25001 -6.2497477 A 6 6 0 0 1 182.33719 -11.249959 L 180.16265 -11.249959 A 6 6 0 0 1 174.24983 -6.2497477 A 6 6 0 0 1 168.33701 -11.249959 L 166.16298 -11.249959 A 6 6 0 0 1 160.25017 -6.2497477 A 6 6 0 0 1 154.33735 -11.249959 L 152.16281 -11.249959 A 6 6 0 0 1 146.24999 -6.2497477 A 6 6 0 0 1 140.33717 -11.249959 L 138.16263 -11.249959 A 6 6 0 0 1 132.24981 -6.2497477 A 6 6 0 0 1 126.33699 -11.249959 L 124.16296 -11.249959 A 6 6 0 0 1 118.25015 -6.2497477 A 6 6 0 0 1 112.33733 -11.249959 L 110.16278 -11.249959 A 6 6 0 0 1 104.24997 -6.2497477 A 6 6 0 0 1 98.33715 -11.249959 L 96.162606 -11.249959 A 6 6 0 0 1 90.249788 -6.2497477 A 6 6 0 0 1 84.336971 -11.249959 L 82.162944 -11.249959 A 6 6 0 0 1 76.250126 -6.2497477 A 6 6 0 0 1 70.337309 -11.249959 L 68.162764 -11.249959 A 6 6 0 0 1 62.249947 -6.2497477 A 6 6 0 0 1 56.33713 -11.249959 L 54.162585 -11.249959 A 6 6 0 0 1 48.249768 -6.2497477 A 6 6 0 0 1 42.250134 -12.249898 A 6 6 0 0 1 48.249768 -18.250049 A 6 6 0 0 1 54.227698 -12.750126 L 56.271501 -12.750126 A 6 6 0 0 1 62.249947 -18.250049 A 6 6 0 0 1 68.22736 -12.750126 L 70.27168 -12.750126 A 6 6 0 0 1 76.250126 -18.250049 A 6 6 0 0 1 82.227539 -12.750126 L 84.271342 -12.750126 A 6 6 0 0 1 90.249788 -18.250049 A 6 6 0 0 1 96.227718 -12.750126 L 98.271521 -12.750126 A 6 6 0 0 1 104.24997 -18.250049 A 6 6 0 0 1 110.22738 -12.750126 L 112.2717 -12.750126 A 6 6 0 0 1 118.25015 -18.250049 A 6 6 0 0 1 124.22756 -12.750126 L 126.27136 -12.750126 A 6 6 0 0 1 132.24981 -18.250049 A 6 6 0 0 1 138.22774 -12.750126 L 140.27154 -12.750126 A 6 6 0 0 1 146.24999 -18.250049 A 6 6 0 0 1 152.2274 -12.750126 L 154.27172 -12.750126 A 6 6 0 0 1 160.25017 -18.250049 A 6 6 0 0 1 166.22758 -12.750126 L 168.27138 -12.750126 A 6 6 0 0 1 174.24983 -18.250049 A 6 6 0 0 1 180.22776 -12.750126 L 182.27156 -12.750126 A 6 6 0 0 1 188.25001 -18.250049 A 6 6 0 0 1 194.22742 -12.750126 L 196.27122 -12.750126 A 6 6 0 0 1 202.25019 -18.250049 A 6 6 0 0 1 208.2276 -12.750126 L 210.2714 -12.750126 A 6 6 0 0 1 216.24985 -18.250049 A 6 6 0 0 1 222.22778 -12.750126 L 224.27158 -12.750126 A 6 6 0 0 1 230.25003 -18.250049 A 6 6 0 0 1 236.22744 -12.750126 L 238.27124 -12.750126 A 6 6 0 0 1 244.25021 -18.250049 A 6 6 0 0 1 250.22762 -12.750126 L 252.27142 -12.750126 A 6 6 0 0 1 258.24987 -18.250049 A 6 6 0 0 1 264.22728 -12.750126 L 266.2716 -12.750126 A 6 6 0 0 1 272.25005 -18.250049 A 6 6 0 0 1 278.22746 -12.750126 L 280.27126 -12.750126 A 6 6 0 0 1 285.24977 -18.165816 L 285.24977 -20.33726 A 6 6 0 0 1 280.33741 -25.250138 L 278.16287 -25.250138 A 6 6 0 0 1 272.25005 -20.249927 A 6 6 0 0 1 266.33723 -25.250138 L 264.16269 -25.250138 A 6 6 0 0 1 258.24987 -20.249927 A 6 6 0 0 1 252.33705 -25.250138 L 250.16302 -25.250138 A 6 6 0 0 1 244.25021 -20.249927 A 6 6 0 0 1 238.33739 -25.250138 L 236.16285 -25.250138 A 6 6 0 0 1 230.25003 -20.249927 A 6 6 0 0 1 224.33721 -25.250138 L 222.16267 -25.250138 A 6 6 0 0 1 216.24985 -20.249927 A 6 6 0 0 1 210.33703 -25.250138 L 208.163 -25.250138 A 6 6 0 0 1 202.25019 -20.249927 A 6 6 0 0 1 196.33737 -25.250138 L 194.16283 -25.250138 A 6 6 0 0 1 188.25001 -20.249927 A 6 6 0 0 1 182.33719 -25.250138 L 180.16265 -25.250138 A 6 6 0 0 1 174.24983 -20.249927 A 6 6 0 0 1 168.33701 -25.250138 L 166.16298 -25.250138 A 6 6 0 0 1 160.25017 -20.249927 A 6 6 0 0 1 154.33735 -25.250138 L 152.16281 -25.250138 A 6 6 0 0 1 146.24999 -20.249927 A 6 6 0 0 1 140.33717 -25.250138 L 138.16263 -25.250138 A 6 6 0 0 1 132.24981 -20.249927 A 6 6 0 0 1 126.33699 -25.250138 L 124.16296 -25.250138 A 6 6 0 0 1 118.25015 -20.249927 A 6 6 0 0 1 112.33733 -25.250138 L 110.16278 -25.250138 A 6 6 0 0 1 104.24997 -20.249927 A 6 6 0 0 1 98.33715 -25.250138 L 96.162606 -25.250138 A 6 6 0 0 1 90.249788 -20.249927 A 6 6 0 0 1 84.336971 -25.250138 L 82.162944 -25.250138 A 6 6 0 0 1 76.250126 -20.249927 A 6 6 0 0 1 70.337309 -25.250138 L 68.162764 -25.250138 A 6 6 0 0 1 62.249947 -20.249927 A 6 6 0 0 1 56.33713 -25.250138 L 54.162585 -25.250138 A 6 6 0 0 1 48.249768 -20.249927 A 6 6 0 0 1 42.250134 -26.250077 A 6 6 0 0 1 48.249768 -32.250228 A 6 6 0 0 1 54.227698 -26.749788 L 56.270984 -26.749788 A 6 6 0 0 1 62.249947 -32.250228 A 6 6 0 0 1 68.22736 -26.749788 L 70.271163 -26.749788 A 6 6 0 0 1 76.250126 -32.250228 A 6 6 0 0 1 82.227539 -26.749788 L 84.270825 -26.749788 A 6 6 0 0 1 90.249788 -32.250228 A 6 6 0 0 1 96.227718 -26.749788 L 98.271004 -26.749788 A 6 6 0 0 1 104.24997 -32.250228 A 6 6 0 0 1 110.22738 -26.749788 L 112.27118 -26.749788 A 6 6 0 0 1 118.25015 -32.250228 A 6 6 0 0 1 124.22756 -26.749788 L 126.27085 -26.749788 A 6 6 0 0 1 132.24981 -32.250228 A 6 6 0 0 1 138.22774 -26.749788 L 140.27102 -26.749788 A 6 6 0 0 1 146.24999 -32.250228 A 6 6 0 0 1 152.2274 -26.749788 L 154.2712 -26.749788 A 6 6 0 0 1 160.25017 -32.250228 A 6 6 0 0 1 166.22758 -26.749788 L 168.27087 -26.749788 A 6 6 0 0 1 174.24983 -32.250228 A 6 6 0 0 1 180.22776 -26.749788 L 182.27104 -26.749788 A 6 6 0 0 1 188.25001 -32.250228 A 6 6 0 0 1 194.22742 -26.749788 L 196.27122 -26.749788 A 6 6 0 0 1 202.25019 -32.250228 A 6 6 0 0 1 208.2276 -26.749788 L 210.27089 -26.749788 A 6 6 0 0 1 216.24985 -32.250228 A 6 6 0 0 1 222.22778 -26.749788 L 224.27107 -26.749788 A 6 6 0 0 1 230.25003 -32.250228 A 6 6 0 0 1 236.22744 -26.749788 L 238.27124 -26.749788 A 6 6 0 0 1 244.25021 -32.250228 A 6 6 0 0 1 250.22762 -26.749788 L 252.27091 -26.749788 A 6 6 0 0 1 258.24987 -32.250228 A 6 6 0 0 1 264.22728 -26.749788 L 266.27109 -26.749788 A 6 6 0 0 1 272.25005 -32.250228 A 6 6 0 0 1 278.22746 -26.749788 L 280.27075 -26.749788 A 6 6 0 0 1 285.24977 -32.165479 L 285.24977 -34.336922 A 6 6 0 0 1 280.33741 -39.249801 L 278.16287 -39.249801 A 6 6 0 0 1 272.25005 -34.250106 A 6 6 0 0 1 266.33723 -39.249801 L 264.16269 -39.249801 A 6 6 0 0 1 258.24987 -34.250106 A 6 6 0 0 1 252.33705 -39.249801 L 250.16302 -39.249801 A 6 6 0 0 1 244.25021 -34.250106 A 6 6 0 0 1 238.33739 -39.249801 L 236.16285 -39.249801 A 6 6 0 0 1 230.25003 -34.250106 A 6 6 0 0 1 224.33721 -39.249801 L 222.16267 -39.249801 A 6 6 0 0 1 216.24985 -34.250106 A 6 6 0 0 1 210.33703 -39.249801 L 208.163 -39.249801 A 6 6 0 0 1 202.25019 -34.250106 A 6 6 0 0 1 196.33737 -39.249801 L 194.16283 -39.249801 A 6 6 0 0 1 188.25001 -34.250106 A 6 6 0 0 1 182.33719 -39.249801 L 180.16265 -39.249801 A 6 6 0 0 1 174.24983 -34.250106 A 6 6 0 0 1 168.33701 -39.249801 L 166.16298 -39.249801 A 6 6 0 0 1 160.25017 -34.250106 A 6 6 0 0 1 154.33735 -39.249801 L 152.16281 -39.249801 A 6 6 0 0 1 146.24999 -34.250106 A 6 6 0 0 1 140.33717 -39.249801 L 138.16263 -39.249801 A 6 6 0 0 1 132.24981 -34.250106 A 6 6 0 0 1 126.33699 -39.249801 L 124.16296 -39.249801 A 6 6 0 0 1 118.25015 -34.250106 A 6 6 0 0 1 112.33733 -39.249801 L 110.16278 -39.249801 A 6 6 0 0 1 104.24997 -34.250106 A 6 6 0 0 1 98.33715 -39.249801 L 96.162606 -39.249801 A 6 6 0 0 1 90.249788 -34.250106 A 6 6 0 0 1 84.336971 -39.249801 L 82.162944 -39.249801 A 6 6 0 0 1 76.250126 -34.250106 A 6 6 0 0 1 70.337309 -39.249801 L 68.162764 -39.249801 A 6 6 0 0 1 62.249947 -34.250106 A 6 6 0 0 1 56.33713 -39.249801 L 54.162585 -39.249801 A 6 6 0 0 1 48.249768 -34.250106 A 6 6 0 0 1 42.250134 -40.250256 A 6 6 0 0 1 48.249768 -46.24989 A 6 6 0 0 1 54.227698 -40.749967 L 56.270984 -40.749967 A 6 6 0 0 1 62.249947 -46.24989 A 6 6 0 0 1 68.22736 -40.749967 L 70.271163 -40.749967 A 6 6 0 0 1 76.250126 -46.24989 A 6 6 0 0 1 82.227539 -40.749967 L 84.270825 -40.749967 A 6 6 0 0 1 90.249788 -46.24989 A 6 6 0 0 1 96.227718 -40.749967 L 98.271004 -40.749967 A 6 6 0 0 1 104.24997 -46.24989 A 6 6 0 0 1 110.22738 -40.749967 L 112.27118 -40.749967 A 6 6 0 0 1 118.25015 -46.24989 A 6 6 0 0 1 124.22756 -40.749967 L 126.27085 -40.749967 A 6 6 0 0 1 132.24981 -46.24989 A 6 6 0 0 1 138.22774 -40.749967 L 140.27102 -40.749967 A 6 6 0 0 1 146.24999 -46.24989 A 6 6 0 0 1 152.2274 -40.749967 L 154.2712 -40.749967 A 6 6 0 0 1 160.25017 -46.24989 A 6 6 0 0 1 166.22758 -40.749967 L 168.27087 -40.749967 A 6 6 0 0 1 174.24983 -46.24989 A 6 6 0 0 1 180.22776 -40.749967 L 182.27104 -40.749967 A 6 6 0 0 1 188.25001 -46.24989 A 6 6 0 0 1 194.22742 -40.749967 L 196.27122 -40.749967 A 6 6 0 0 1 202.25019 -46.24989 A 6 6 0 0 1 208.2276 -40.749967 L 210.27089 -40.749967 A 6 6 0 0 1 216.24985 -46.24989 A 6 6 0 0 1 222.22778 -40.749967 L 224.27107 -40.749967 A 6 6 0 0 1 230.25003 -46.24989 A 6 6 0 0 1 236.22744 -40.749967 L 238.27124 -40.749967 A 6 6 0 0 1 244.25021 -46.24989 A 6 6 0 0 1 250.22762 -40.749967 L 252.27091 -40.749967 A 6 6 0 0 1 258.24987 -46.24989 A 6 6 0 0 1 264.22728 -40.749967 L 266.27109 -40.749967 A 6 6 0 0 1 272.25005 -46.24989 A 6 6 0 0 1 278.22746 -40.749967 L 280.27075 -40.749967 A 6 6 0 0 1 285.24977 -46.165658 L 285.24977 -48.337101 A 6 6 0 0 1 280.33741 -53.24998 L 278.16287 -53.24998 A 6 6 0 0 1 272.25005 -48.249768 A 6 6 0 0 1 266.33723 -53.24998 L 264.16269 -53.24998 A 6 6 0 0 1 258.24987 -48.249768 A 6 6 0 0 1 252.33705 -53.24998 L 250.16302 -53.24998 A 6 6 0 0 1 244.25021 -48.249768 A 6 6 0 0 1 238.33739 -53.24998 L 236.16285 -53.24998 A 6 6 0 0 1 230.25003 -48.249768 A 6 6 0 0 1 224.33721 -53.24998 L 222.16267 -53.24998 A 6 6 0 0 1 216.24985 -48.249768 A 6 6 0 0 1 210.33703 -53.24998 L 208.163 -53.24998 A 6 6 0 0 1 202.25019 -48.249768 A 6 6 0 0 1 196.33737 -53.24998 L 194.16283 -53.24998 A 6 6 0 0 1 188.25001 -48.249768 A 6 6 0 0 1 182.33719 -53.24998 L 180.16265 -53.24998 A 6 6 0 0 1 174.24983 -48.249768 A 6 6 0 0 1 168.33701 -53.24998 L 166.16298 -53.24998 A 6 6 0 0 1 160.25017 -48.249768 A 6 6 0 0 1 154.33735 -53.24998 L 152.16281 -53.24998 A 6 6 0 0 1 146.24999 -48.249768 A 6 6 0 0 1 140.33717 -53.24998 L 138.16263 -53.24998 A 6 6 0 0 1 132.24981 -48.249768 A 6 6 0 0 1 126.33699 -53.24998 L 124.16296 -53.24998 A 6 6 0 0 1 118.25015 -48.249768 A 6 6 0 0 1 112.33733 -53.24998 L 110.16278 -53.24998 A 6 6 0 0 1 104.24997 -48.249768 A 6 6 0 0 1 98.33715 -53.24998 L 96.162606 -53.24998 A 6 6 0 0 1 90.249788 -48.249768 A 6 6 0 0 1 84.336971 -53.24998 L 82.162944 -53.24998 A 6 6 0 0 1 76.250126 -48.249768 A 6 6 0 0 1 70.337309 -53.24998 L 68.162764 -53.24998 A 6 6 0 0 1 62.249947 -48.249768 A 6 6 0 0 1 56.33713 -53.24998 L 54.162585 -53.24998 A 6 6 0 0 1 48.249768 -48.249768 A 6 6 0 0 1 42.250134 -54.249919 A 6 6 0 0 1 48.249768 -60.250069 A 6 6 0 0 1 54.227698 -54.750146 L 56.271501 -54.750146 A 6 6 0 0 1 62.249947 -60.250069 A 6 6 0 0 1 68.22736 -54.750146 L 70.27168 -54.750146 A 6 6 0 0 1 76.250126 -60.250069 A 6 6 0 0 1 82.227539 -54.750146 L 84.271342 -54.750146 A 6 6 0 0 1 90.249788 -60.250069 A 6 6 0 0 1 96.227718 -54.750146 L 98.271521 -54.750146 A 6 6 0 0 1 104.24997 -60.250069 A 6 6 0 0 1 110.22738 -54.750146 L 112.2717 -54.750146 A 6 6 0 0 1 118.25015 -60.250069 A 6 6 0 0 1 124.22756 -54.750146 L 126.27136 -54.750146 A 6 6 0 0 1 132.24981 -60.250069 A 6 6 0 0 1 138.22774 -54.750146 L 140.27154 -54.750146 A 6 6 0 0 1 146.24999 -60.250069 A 6 6 0 0 1 152.2274 -54.750146 L 154.27172 -54.750146 A 6 6 0 0 1 160.25017 -60.250069 A 6 6 0 0 1 166.22758 -54.750146 L 168.27138 -54.750146 A 6 6 0 0 1 174.24983 -60.250069 A 6 6 0 0 1 180.22776 -54.750146 L 182.27156 -54.750146 A 6 6 0 0 1 188.25001 -60.250069 A 6 6 0 0 1 194.22742 -54.750146 L 196.27122 -54.750146 A 6 6 0 0 1 202.25019 -60.250069 A 6 6 0 0 1 208.2276 -54.750146 L 210.2714 -54.750146 A 6 6 0 0 1 216.24985 -60.250069 A 6 6 0 0 1 222.22778 -54.750146 L 224.27158 -54.750146 A 6 6 0 0 1 230.25003 -60.250069 A 6 6 0 0 1 236.22744 -54.750146 L 238.27124 -54.750146 A 6 6 0 0 1 244.25021 -60.250069 A 6 6 0 0 1 250.22762 -54.750146 L 252.27142 -54.750146 A 6 6 0 0 1 258.24987 -60.250069 A 6 6 0 0 1 264.22728 -54.750146 L 266.2716 -54.750146 A 6 6 0 0 1 272.25005 -60.250069 A 6 6 0 0 1 278.22746 -54.750146 L 280.27126 -54.750146 A 6 6 0 0 1 285.24977 -60.165837 L 285.24977 -62.33728 A 6 6 0 0 1 280.33741 -67.250159 L 278.16287 -67.250159 A 6 6 0 0 1 272.25005 -62.249947 A 6 6 0 0 1 266.33723 -67.250159 L 264.16269 -67.250159 A 6 6 0 0 1 258.24987 -62.249947 A 6 6 0 0 1 252.33705 -67.250159 L 250.16302 -67.250159 A 6 6 0 0 1 244.25021 -62.249947 A 6 6 0 0 1 238.33739 -67.250159 L 236.16285 -67.250159 A 6 6 0 0 1 230.25003 -62.249947 A 6 6 0 0 1 224.33721 -67.250159 L 222.16267 -67.250159 A 6 6 0 0 1 216.24985 -62.249947 A 6 6 0 0 1 210.33703 -67.250159 L 208.163 -67.250159 A 6 6 0 0 1 202.25019 -62.249947 A 6 6 0 0 1 196.33737 -67.250159 L 194.16283 -67.250159 A 6 6 0 0 1 188.25001 -62.249947 A 6 6 0 0 1 182.33719 -67.250159 L 180.16265 -67.250159 A 6 6 0 0 1 174.24983 -62.249947 A 6 6 0 0 1 168.33701 -67.250159 L 166.16298 -67.250159 A 6 6 0 0 1 160.25017 -62.249947 A 6 6 0 0 1 154.33735 -67.250159 L 152.16281 -67.250159 A 6 6 0 0 1 146.24999 -62.249947 A 6 6 0 0 1 140.33717 -67.250159 L 138.16263 -67.250159 A 6 6 0 0 1 132.24981 -62.249947 A 6 6 0 0 1 126.33699 -67.250159 L 124.16296 -67.250159 A 6 6 0 0 1 118.25015 -62.249947 A 6 6 0 0 1 112.33733 -67.250159 L 110.16278 -67.250159 A 6 6 0 0 1 104.24997 -62.249947 A 6 6 0 0 1 98.33715 -67.250159 L 96.162606 -67.250159 A 6 6 0 0 1 90.249788 -62.249947 A 6 6 0 0 1 84.336971 -67.250159 L 82.162944 -67.250159 A 6 6 0 0 1 76.250126 -62.249947 A 6 6 0 0 1 70.337309 -67.250159 L 68.162764 -67.250159 A 6 6 0 0 1 62.249947 -62.249947 A 6 6 0 0 1 56.33713 -67.250159 L 54.162585 -67.250159 A 6 6 0 0 1 48.249768 -62.249947 A 6 6 0 0 1 42.250134 -68.250098 A 6 6 0 0 1 48.249768 -74.250248 A 6 6 0 0 1 54.227698 -68.749809 L 56.270984 -68.749809 A 6 6 0 0 1 62.249947 -74.250248 A 6 6 0 0 1 68.22736 -68.749809 L 70.271163 -68.749809 A 6 6 0 0 1 76.250126 -74.250248 A 6 6 0 0 1 82.227539 -68.749809 L 84.270825 -68.749809 A 6 6 0 0 1 90.249788 -74.250248 A 6 6 0 0 1 96.227718 -68.749809 L 98.271004 -68.749809 A 6 6 0 0 1 104.24997 -74.250248 A 6 6 0 0 1 110.22738 -68.749809 L 112.27118 -68.749809 A 6 6 0 0 1 118.25015 -74.250248 A 6 6 0 0 1 124.22756 -68.749809 L 126.27085 -68.749809 A 6 6 0 0 1 132.24981 -74.250248 A 6 6 0 0 1 138.22774 -68.749809 L 140.27102 -68.749809 A 6 6 0 0 1 146.24999 -74.250248 A 6 6 0 0 1 152.2274 -68.749809 L 154.2712 -68.749809 A 6 6 0 0 1 160.25017 -74.250248 A 6 6 0 0 1 166.22758 -68.749809 L 168.27087 -68.749809 A 6 6 0 0 1 174.24983 -74.250248 A 6 6 0 0 1 180.22776 -68.749809 L 182.27104 -68.749809 A 6 6 0 0 1 188.25001 -74.250248 A 6 6 0 0 1 194.22742 -68.749809 L 196.27122 -68.749809 A 6 6 0 0 1 202.25019 -74.250248 A 6 6 0 0 1 208.2276 -68.749809 L 210.27089 -68.749809 A 6 6 0 0 1 216.24985 -74.250248 A 6 6 0 0 1 222.22778 -68.749809 L 224.27107 -68.749809 A 6 6 0 0 1 230.25003 -74.250248 A 6 6 0 0 1 236.22744 -68.749809 L 238.27124 -68.749809 A 6 6 0 0 1 244.25021 -74.250248 A 6 6 0 0 1 250.22762 -68.749809 L 252.27091 -68.749809 A 6 6 0 0 1 258.24987 -74.250248 A 6 6 0 0 1 264.22728 -68.749809 L 266.27109 -68.749809 A 6 6 0 0 1 272.25005 -74.250248 A 6 6 0 0 1 278.22746 -68.749809 L 280.27075 -68.749809 A 6 6 0 0 1 285.24977 -74.165499 L 285.24977 -76.336943 A 6 6 0 0 1 280.33741 -81.249821 L 278.16287 -81.249821 A 6 6 0 0 1 272.25005 -76.250126 A 6 6 0 0 1 266.33723 -81.249821 L 264.16269 -81.249821 A 6 6 0 0 1 258.24987 -76.250126 A 6 6 0 0 1 252.33705 -81.249821 L 250.16302 -81.249821 A 6 6 0 0 1 244.25021 -76.250126 A 6 6 0 0 1 238.33739 -81.249821 L 236.16285 -81.249821 A 6 6 0 0 1 230.25003 -76.250126 A 6 6 0 0 1 224.33721 -81.249821 L 222.16267 -81.249821 A 6 6 0 0 1 216.24985 -76.250126 A 6 6 0 0 1 210.33703 -81.249821 L 208.163 -81.249821 A 6 6 0 0 1 202.25019 -76.250126 A 6 6 0 0 1 196.33737 -81.249821 L 194.16283 -81.249821 A 6 6 0 0 1 188.25001 -76.250126 A 6 6 0 0 1 182.33719 -81.249821 L 180.16265 -81.249821 A 6 6 0 0 1 174.24983 -76.250126 A 6 6 0 0 1 168.33701 -81.249821 L 166.16298 -81.249821 A 6 6 0 0 1 160.25017 -76.250126 A 6 6 0 0 1 154.33735 -81.249821 L 152.16281 -81.249821 A 6 6 0 0 1 146.24999 -76.250126 A 6 6 0 0 1 140.33717 -81.249821 L 138.16263 -81.249821 A 6 6 0 0 1 132.24981 -76.250126 A 6 6 0 0 1 126.33699 -81.249821 L 124.16296 -81.249821 A 6 6 0 0 1 118.25015 -76.250126 A 6 6 0 0 1 112.33733 -81.249821 L 110.16278 -81.249821 A 6 6 0 0 1 104.24997 -76.250126 A 6 6 0 0 1 98.33715 -81.249821 L 96.162606 -81.249821 A 6 6 0 0 1 90.249788 -76.250126 A 6 6 0 0 1 84.336971 -81.249821 L 82.162944 -81.249821 A 6 6 0 0 1 76.250126 -76.250126 A 6 6 0 0 1 70.337309 -81.249821 L 68.162764 -81.249821 A 6 6 0 0 1 62.249947 -76.250126 A 6 6 0 0 1 56.33713 -81.249821 L 54.162585 -81.249821 A 6 6 0 0 1 48.249768 -76.250126 A 6 6 0 0 1 42.250134 -82.24976 A 6 6 0 0 1 48.249768 -88.24991 A 6 6 0 0 1 54.227698 -82.749988 L 56.270984 -82.749988 A 6 6 0 0 1 62.249947 -88.24991 A 6 6 0 0 1 68.22736 -82.749988 L 70.271163 -82.749988 A 6 6 0 0 1 76.250126 -88.24991 A 6 6 0 0 1 82.227539 -82.749988 L 84.270825 -82.749988 A 6 6 0 0 1 90.249788 -88.24991 A 6 6 0 0 1 96.227718 -82.749988 L 98.271004 -82.749988 A 6 6 0 0 1 104.24997 -88.24991 A 6 6 0 0 1 110.22738 -82.749988 L 112.27118 -82.749988 A 6 6 0 0 1 118.25015 -88.24991 A 6 6 0 0 1 124.22756 -82.749988 L 126.27085 -82.749988 A 6 6 0 0 1 132.24981 -88.24991 A 6 6 0 0 1 138.22774 -82.749988 L 140.27102 -82.749988 A 6 6 0 0 1 146.24999 -88.24991 A 6 6 0 0 1 152.2274 -82.749988 L 154.2712 -82.749988 A 6 6 0 0 1 160.25017 -88.24991 A 6 6 0 0 1 166.22758 -82.749988 L 168.27087 -82.749988 A 6 6 0 0 1 174.24983 -88.24991 A 6 6 0 0 1 180.22776 -82.749988 L 182.27104 -82.749988 A 6 6 0 0 1 188.25001 -88.24991 A 6 6 0 0 1 194.22742 -82.749988 L 196.27122 -82.749988 A 6 6 0 0 1 202.25019 -88.24991 A 6 6 0 0 1 208.2276 -82.749988 L 210.27089 -82.749988 A 6 6 0 0 1 216.24985 -88.24991 A 6 6 0 0 1 222.22778 -82.749988 L 224.27107 -82.749988 A 6 6 0 0 1 230.25003 -88.24991 A 6 6 0 0 1 236.22744 -82.749988 L 238.27124 -82.749988 A 6 6 0 0 1 244.25021 -88.24991 A 6 6 0 0 1 250.22762 -82.749988 L 252.27091 -82.749988 A 6 6 0 0 1 258.24987 -88.24991 A 6 6 0 0 1 264.22728 -82.749988 L 266.27109 -82.749988 A 6 6 0 0 1 272.25005 -88.24991 A 6 6 0 0 1 278.22746 -82.749988 L 280.27075 -82.749988 A 6 6 0 0 1 285.24977 -88.165678 L 285.24977 -90.337122 A 6 6 0 0 1 280.33741 -95.25 L 278.16287 -95.25 A 6 6 0 0 1 272.25005 -90.249788 A 6 6 0 0 1 266.33723 -95.25 L 264.16269 -95.25 A 6 6 0 0 1 258.24987 -90.249788 A 6 6 0 0 1 252.33705 -95.25 L 250.16302 -95.25 A 6 6 0 0 1 244.25021 -90.249788 A 6 6 0 0 1 238.33739 -95.25 L 236.16285 -95.25 A 6 6 0 0 1 230.25003 -90.249788 A 6 6 0 0 1 224.33721 -95.25 L 222.16267 -95.25 A 6 6 0 0 1 216.24985 -90.249788 A 6 6 0 0 1 210.33703 -95.25 L 208.163 -95.25 A 6 6 0 0 1 202.25019 -90.249788 A 6 6 0 0 1 196.33737 -95.25 L 194.16283 -95.25 A 6 6 0 0 1 188.25001 -90.249788 A 6 6 0 0 1 182.33719 -95.25 L 180.16265 -95.25 A 6 6 0 0 1 174.24983 -90.249788 A 6 6 0 0 1 168.33701 -95.25 L 166.16298 -95.25 A 6 6 0 0 1 160.25017 -90.249788 A 6 6 0 0 1 154.33735 -95.25 L 152.16281 -95.25 A 6 6 0 0 1 146.24999 -90.249788 A 6 6 0 0 1 140.33717 -95.25 L 138.16263 -95.25 A 6 6 0 0 1 132.24981 -90.249788 A 6 6 0 0 1 126.33699 -95.25 L 124.16296 -95.25 A 6 6 0 0 1 118.25015 -90.249788 A 6 6 0 0 1 112.33733 -95.25 L 110.16278 -95.25 A 6 6 0 0 1 104.24997 -90.249788 A 6 6 0 0 1 98.33715 -95.25 L 96.162606 -95.25 A 6 6 0 0 1 90.249788 -90.249788 A 6 6 0 0 1 84.336971 -95.25 L 82.162944 -95.25 A 6 6 0 0 1 76.250126 -90.249788 A 6 6 0 0 1 70.337309 -95.25 L 68.162764 -95.25 A 6 6 0 0 1 62.249947 -90.249788 A 6 6 0 0 1 56.33713 -95.25 L 54.162585 -95.25 A 6 6 0 0 1 48.249768 -90.249788 A 6 6 0 0 1 42.250134 -96.249939 A 6 6 0 0 1 48.249768 -102.25009 A 6 6 0 0 1 54.227698 -96.750167 L 56.271501 -96.750167 A 6 6 0 0 1 62.249947 -102.25009 A 6 6 0 0 1 68.22736 -96.750167 L 70.27168 -96.750167 A 6 6 0 0 1 76.250126 -102.25009 A 6 6 0 0 1 82.227539 -96.750167 L 84.271342 -96.750167 A 6 6 0 0 1 90.249788 -102.25009 A 6 6 0 0 1 96.227718 -96.750167 L 98.271521 -96.750167 A 6 6 0 0 1 104.24997 -102.25009 A 6 6 0 0 1 110.22738 -96.750167 L 112.2717 -96.750167 A 6 6 0 0 1 118.25015 -102.25009 A 6 6 0 0 1 124.22756 -96.750167 L 126.27136 -96.750167 A 6 6 0 0 1 132.24981 -102.25009 A 6 6 0 0 1 138.22774 -96.750167 L 140.27154 -96.750167 A 6 6 0 0 1 146.24999 -102.25009 A 6 6 0 0 1 152.2274 -96.750167 L 154.27172 -96.750167 A 6 6 0 0 1 160.25017 -102.25009 A 6 6 0 0 1 166.22758 -96.750167 L 168.27138 -96.750167 A 6 6 0 0 1 174.24983 -102.25009 A 6 6 0 0 1 180.22776 -96.750167 L 182.27156 -96.750167 A 6 6 0 0 1 188.25001 -102.25009 A 6 6 0 0 1 194.22742 -96.750167 L 196.27122 -96.750167 A 6 6 0 0 1 202.25019 -102.25009 A 6 6 0 0 1 208.2276 -96.750167 L 210.2714 -96.750167 A 6 6 0 0 1 216.24985 -102.25009 A 6 6 0 0 1 222.22778 -96.750167 L 224.27158 -96.750167 A 6 6 0 0 1 230.25003 -102.25009 A 6 6 0 0 1 236.22744 -96.750167 L 238.27124 -96.750167 A 6 6 0 0 1 244.25021 -102.25009 A 6 6 0 0 1 250.22762 -96.750167 L 252.27142 -96.750167 A 6 6 0 0 1 258.24987 -102.25009 A 6 6 0 0 1 264.22728 -96.750167 L 266.2716 -96.750167 A 6 6 0 0 1 272.25005 -102.25009 A 6 6 0 0 1 278.22746 -96.750167 L 280.27126 -96.750167 A 6 6 0 0 1 285.24977 -102.16586 L 285.24977 -104.3373 A 6 6 0 0 1 280.33741 -109.25018 L 278.16287 -109.25018 A 6 6 0 0 1 272.25005 -104.24997 A 6 6 0 0 1 266.33723 -109.25018 L 264.16269 -109.25018 A 6 6 0 0 1 258.24987 -104.24997 A 6 6 0 0 1 252.33705 -109.25018 L 250.16302 -109.25018 A 6 6 0 0 1 244.25021 -104.24997 A 6 6 0 0 1 238.33739 -109.25018 L 236.16285 -109.25018 A 6 6 0 0 1 230.25003 -104.24997 A 6 6 0 0 1 224.33721 -109.25018 L 222.16267 -109.25018 A 6 6 0 0 1 216.24985 -104.24997 A 6 6 0 0 1 210.33703 -109.25018 L 208.163 -109.25018 A 6 6 0 0 1 202.25019 -104.24997 A 6 6 0 0 1 196.33737 -109.25018 L 194.16283 -109.25018 A 6 6 0 0 1 188.25001 -104.24997 A 6 6 0 0 1 182.33719 -109.25018 L 180.16265 -109.25018 A 6 6 0 0 1 174.24983 -104.24997 A 6 6 0 0 1 168.33701 -109.25018 L 166.16298 -109.25018 A 6 6 0 0 1 160.25017 -104.24997 A 6 6 0 0 1 154.33735 -109.25018 L 152.16281 -109.25018 A 6 6 0 0 1 146.24999 -104.24997 A 6 6 0 0 1 140.33717 -109.25018 L 138.16263 -109.25018 A 6 6 0 0 1 132.24981 -104.24997 A 6 6 0 0 1 126.33699 -109.25018 L 124.16296 -109.25018 A 6 6 0 0 1 118.25015 -104.24997 A 6 6 0 0 1 112.33733 -109.25018 L 110.16278 -109.25018 A 6 6 0 0 1 104.24997 -104.24997 A 6 6 0 0 1 98.33715 -109.25018 L 96.162606 -109.25018 A 6 6 0 0 1 90.249788 -104.24997 A 6 6 0 0 1 84.336971 -109.25018 L 82.162944 -109.25018 A 6 6 0 0 1 76.250126 -104.24997 A 6 6 0 0 1 70.337309 -109.25018 L 68.162764 -109.25018 A 6 6 0 0 1 62.249947 -104.24997 A 6 6 0 0 1 56.33713 -109.25018 L 54.162585 -109.25018 A 6 6 0 0 1 48.249768 -104.24997 A 6 6 0 0 1 42.250134 -110.25012 A 6 6 0 0 1 48.249768 -116.24975 A 6 6 0 0 1 54.227698 -110.74983 L 56.270984 -110.74983 A 6 6 0 0 1 62.249947 -116.24975 A 6 6 0 0 1 68.22736 -110.74983 L 70.271163 -110.74983 A 6 6 0 0 1 76.250126 -116.24975 A 6 6 0 0 1 82.227539 -110.74983 L 84.270825 -110.74983 A 6 6 0 0 1 90.249788 -116.24975 A 6 6 0 0 1 96.227718 -110.74983 L 98.271004 -110.74983 A 6 6 0 0 1 104.24997 -116.24975 A 6 6 0 0 1 110.22738 -110.74983 L 112.27118 -110.74983 A 6 6 0 0 1 118.25015 -116.24975 A 6 6 0 0 1 124.22756 -110.74983 L 126.27085 -110.74983 A 6 6 0 0 1 132.24981 -116.24975 A 6 6 0 0 1 138.22774 -110.74983 L 140.27102 -110.74983 A 6 6 0 0 1 146.24999 -116.24975 A 6 6 0 0 1 152.2274 -110.74983 L 154.2712 -110.74983 A 6 6 0 0 1 160.25017 -116.24975 A 6 6 0 0 1 166.22758 -110.74983 L 168.27087 -110.74983 A 6 6 0 0 1 174.24983 -116.24975 A 6 6 0 0 1 180.22776 -110.74983 L 182.27104 -110.74983 A 6 6 0 0 1 188.25001 -116.24975 A 6 6 0 0 1 194.22742 -110.74983 L 196.27122 -110.74983 A 6 6 0 0 1 202.25019 -116.24975 A 6 6 0 0 1 208.2276 -110.74983 L 210.27089 -110.74983 A 6 6 0 0 1 216.24985 -116.24975 A 6 6 0 0 1 222.22778 -110.74983 L 224.27107 -110.74983 A 6 6 0 0 1 230.25003 -116.24975 A 6 6 0 0 1 236.22744 -110.74983 L 238.27124 -110.74983 A 6 6 0 0 1 244.25021 -116.24975 A 6 6 0 0 1 250.22762 -110.74983 L 252.27091 -110.74983 A 6 6 0 0 1 258.24987 -116.24975 A 6 6 0 0 1 264.22728 -110.74983 L 266.27109 -110.74983 A 6 6 0 0 1 272.25005 -116.24975 A 6 6 0 0 1 278.22746 -110.74983 L 280.27075 -110.74983 A 6 6 0 0 1 285.24977 -116.16552 L 285.24977 -118.33696 A 6 6 0 0 1 280.33741 -123.24984 L 278.16287 -123.24984 A 6 6 0 0 1 272.25005 -118.25015 A 6 6 0 0 1 266.33723 -123.24984 L 264.16269 -123.24984 A 6 6 0 0 1 258.24987 -118.25015 A 6 6 0 0 1 252.33705 -123.24984 L 250.16302 -123.24984 A 6 6 0 0 1 244.25021 -118.25015 A 6 6 0 0 1 238.33739 -123.24984 L 236.16285 -123.24984 A 6 6 0 0 1 230.25003 -118.25015 A 6 6 0 0 1 224.33721 -123.24984 L 222.16267 -123.24984 A 6 6 0 0 1 216.24985 -118.25015 A 6 6 0 0 1 210.33703 -123.24984 L 208.163 -123.24984 A 6 6 0 0 1 202.25019 -118.25015 A 6 6 0 0 1 196.33737 -123.24984 L 194.16283 -123.24984 A 6 6 0 0 1 188.25001 -118.25015 A 6 6 0 0 1 182.33719 -123.24984 L 180.16265 -123.24984 A 6 6 0 0 1 174.24983 -118.25015 A 6 6 0 0 1 168.33701 -123.24984 L 166.16298 -123.24984 A 6 6 0 0 1 160.25017 -118.25015 A 6 6 0 0 1 154.33735 -123.24984 L 152.16281 -123.24984 A 6 6 0 0 1 146.24999 -118.25015 A 6 6 0 0 1 140.33717 -123.24984 L 138.16263 -123.24984 A 6 6 0 0 1 132.24981 -118.25015 A 6 6 0 0 1 126.33699 -123.24984 L 124.16296 -123.24984 A 6 6 0 0 1 118.25015 -118.25015 A 6 6 0 0 1 112.33733 -123.24984 L 110.16278 -123.24984 A 6 6 0 0 1 104.24997 -118.25015 A 6 6 0 0 1 98.33715 -123.24984 L 96.162606 -123.24984 A 6 6 0 0 1 90.249788 -118.25015 A 6 6 0 0 1 84.336971 -123.24984 L 82.162944 -123.24984 A 6 6 0 0 1 76.250126 -118.25015 A 6 6 0 0 1 70.337309 -123.24984 L 68.162764 -123.24984 A 6 6 0 0 1 62.249947 -118.25015 A 6 6 0 0 1 56.33713 -123.24984 L 54.162585 -123.24984 A 6 6 0 0 1 48.249768 -118.25015 A 6 6 0 0 1 42.250134 -124.24978 A 6 6 0 0 1 48.249768 -130.24993 A 6 6 0 0 1 54.227698 -124.75001 L 56.271501 -124.75001 A 6 6 0 0 1 62.249947 -130.24993 A 6 6 0 0 1 68.22736 -124.75001 L 70.27168 -124.75001 A 6 6 0 0 1 76.250126 -130.24993 A 6 6 0 0 1 82.227539 -124.75001 L 84.271342 -124.75001 A 6 6 0 0 1 90.249788 -130.24993 A 6 6 0 0 1 96.227718 -124.75001 L 98.271521 -124.75001 A 6 6 0 0 1 104.24997 -130.24993 A 6 6 0 0 1 110.22738 -124.75001 L 112.2717 -124.75001 A 6 6 0 0 1 118.25015 -130.24993 A 6 6 0 0 1 124.22756 -124.75001 L 126.27136 -124.75001 A 6 6 0 0 1 132.24981 -130.24993 A 6 6 0 0 1 138.22774 -124.75001 L 140.27154 -124.75001 A 6 6 0 0 1 146.24999 -130.24993 A 6 6 0 0 1 152.2274 -124.75001 L 154.27172 -124.75001 A 6 6 0 0 1 160.25017 -130.24993 A 6 6 0 0 1 166.22758 -124.75001 L 168.27138 -124.75001 A 6 6 0 0 1 174.24983 -130.24993 A 6 6 0 0 1 180.22776 -124.75001 L 182.27156 -124.75001 A 6 6 0 0 1 188.25001 -130.24993 A 6 6 0 0 1 194.22742 -124.75001 L 196.27122 -124.75001 A 6 6 0 0 1 202.25019 -130.24993 A 6 6 0 0 1 208.2276 -124.75001 L 210.2714 -124.75001 A 6 6 0 0 1 216.24985 -130.24993 A 6 6 0 0 1 222.22778 -124.75001 L 224.27158 -124.75001 A 6 6 0 0 1 230.25003 -130.24993 A 6 6 0 0 1 236.22744 -124.75001 L 238.27124 -124.75001 A 6 6 0 0 1 244.25021 -130.24993 A 6 6 0 0 1 250.22762 -124.75001 L 252.27142 -124.75001 A 6 6 0 0 1 258.24987 -130.24993 A 6 6 0 0 1 264.22728 -124.75001 L 266.2716 -124.75001 A 6 6 0 0 1 272.25005 -130.24993 A 6 6 0 0 1 278.22746 -124.75001 L 280.27126 -124.75001 A 6 6 0 0 1 285.24977 -130.1657 L 285.24977 -132.33714 A 6 6 0 0 1 280.33741 -137.25002 L 278.16287 -137.25002 A 6 6 0 0 1 272.25005 -132.24981 A 6 6 0 0 1 266.33723 -137.25002 L 264.16269 -137.25002 A 6 6 0 0 1 258.24987 -132.24981 A 6 6 0 0 1 252.33705 -137.25002 L 250.16302 -137.25002 A 6 6 0 0 1 244.25021 -132.24981 A 6 6 0 0 1 238.33739 -137.25002 L 236.16285 -137.25002 A 6 6 0 0 1 230.25003 -132.24981 A 6 6 0 0 1 224.33721 -137.25002 L 222.16267 -137.25002 A 6 6 0 0 1 216.24985 -132.24981 A 6 6 0 0 1 210.33703 -137.25002 L 208.163 -137.25002 A 6 6 0 0 1 202.25019 -132.24981 A 6 6 0 0 1 196.33737 -137.25002 L 194.16283 -137.25002 A 6 6 0 0 1 188.25001 -132.24981 A 6 6 0 0 1 182.33719 -137.25002 L 180.16265 -137.25002 A 6 6 0 0 1 174.24983 -132.24981 A 6 6 0 0 1 168.33701 -137.25002 L 166.16298 -137.25002 A 6 6 0 0 1 160.25017 -132.24981 A 6 6 0 0 1 154.33735 -137.25002 L 152.16281 -137.25002 A 6 6 0 0 1 146.24999 -132.24981 A 6 6 0 0 1 140.33717 -137.25002 L 138.16263 -137.25002 A 6 6 0 0 1 132.24981 -132.24981 A 6 6 0 0 1 126.33699 -137.25002 L 124.16296 -137.25002 A 6 6 0 0 1 118.25015 -132.24981 A 6 6 0 0 1 112.33733 -137.25002 L 110.16278 -137.25002 A 6 6 0 0 1 104.24997 -132.24981 A 6 6 0 0 1 98.33715 -137.25002 L 96.162606 -137.25002 A 6 6 0 0 1 90.249788 -132.24981 A 6 6 0 0 1 84.336971 -137.25002 L 82.162944 -137.25002 A 6 6 0 0 1 76.250126 -132.24981 A 6 6 0 0 1 70.337309 -137.25002 L 68.162764 -137.25002 A 6 6 0 0 1 62.249947 -132.24981 A 6 6 0 0 1 56.33713 -137.25002 L 54.162585 -137.25002 A 6 6 0 0 1 48.249768 -132.24981 A 6 6 0 0 1 42.250134 -138.24996 A 6 6 0 0 1 48.249768 -144.25011 A 6 6 0 0 1 54.227698 -138.75019 L 56.271501 -138.75019 A 6 6 0 0 1 62.249947 -144.25011 A 6 6 0 0 1 68.22736 -138.75019 L 70.27168 -138.75019 A 6 6 0 0 1 76.250126 -144.25011 A 6 6 0 0 1 82.227539 -138.75019 L 84.271342 -138.75019 A 6 6 0 0 1 90.249788 -144.25011 A 6 6 0 0 1 96.227718 -138.75019 L 98.271521 -138.75019 A 6 6 0 0 1 104.24997 -144.25011 A 6 6 0 0 1 110.22738 -138.75019 L 112.2717 -138.75019 A 6 6 0 0 1 118.25015 -144.25011 A 6 6 0 0 1 124.22756 -138.75019 L 126.27136 -138.75019 A 6 6 0 0 1 132.24981 -144.25011 A 6 6 0 0 1 138.22774 -138.75019 L 140.27154 -138.75019 A 6 6 0 0 1 146.24999 -144.25011 A 6 6 0 0 1 152.2274 -138.75019 L 154.27172 -138.75019 A 6 6 0 0 1 160.25017 -144.25011 A 6 6 0 0 1 166.22758 -138.75019 L 168.27138 -138.75019 A 6 6 0 0 1 174.24983 -144.25011 A 6 6 0 0 1 180.22776 -138.75019 L 182.27156 -138.75019 A 6 6 0 0 1 188.25001 -144.25011 A 6 6 0 0 1 194.22742 -138.75019 L 196.27122 -138.75019 A 6 6 0 0 1 202.25019 -144.25011 A 6 6 0 0 1 208.2276 -138.75019 L 210.2714 -138.75019 A 6 6 0 0 1 216.24985 -144.25011 A 6 6 0 0 1 222.22778 -138.75019 L 224.27158 -138.75019 A 6 6 0 0 1 230.25003 -144.25011 A 6 6 0 0 1 236.22744 -138.75019 L 238.27124 -138.75019 A 6 6 0 0 1 244.25021 -144.25011 A 6 6 0 0 1 250.22762 -138.75019 L 252.27142 -138.75019 A 6 6 0 0 1 258.24987 -144.25011 A 6 6 0 0 1 264.22728 -138.75019 L 266.2716 -138.75019 A 6 6 0 0 1 272.25005 -144.25011 A 6 6 0 0 1 278.22746 -138.75019 L 280.27126 -138.75019 A 6 6 0 0 1 286.25023 -144.25011 A 6 6 0 0 1 292.24986 -138.24996 A 6 6 0 0 1 286.74994 -132.27255 L 286.74994 -130.22771 A 6 6 0 0 1 292.24986 -124.24978 A 6 6 0 0 1 286.74994 -118.27237 L 286.74994 -116.22753 A 6 6 0 0 1 292.24986 -110.25012 A 6 6 0 0 1 286.74994 -104.27271 L 286.74994 -102.22735 A 6 6 0 0 1 292.24986 -96.249939 A 6 6 0 0 1 286.74994 -90.272526 L 286.74994 -88.22769 A 6 6 0 0 1 292.24986 -82.24976 A 6 6 0 0 1 291.70054 -79.750171 L 296.74985 -79.750171 L 296.74985 -149.75003 L 37.249923 -149.75003 L 37.249923 -0.25011393 z "
       transform="rotate(90)" />
  </g>
</svg>
