<?xml version="1.0" encoding="UTF-8" standalone="no"?>
<!-- Created with Inkscape (http://www.inkscape.org/) -->

<svg
   width="210mm"
   height="297mm"
   viewBox="0 0 210 297"
   version="1.1"
   id="svg20767"
   inkscape:version="1.2.2 (732a01da63, 2022-12-09)"
   sodipodi:docname="Layer2_finalYellow_12mm.svg"
   xmlns:inkscape="http://www.inkscape.org/namespaces/inkscape"
   xmlns:sodipodi="http://sodipodi.sourceforge.net/DTD/sodipodi-0.dtd"
   xmlns="http://www.w3.org/2000/svg"
   xmlns:svg="http://www.w3.org/2000/svg">
  <sodipodi:namedview
     id="namedview20769"
     pagecolor="#ffffff"
     bordercolor="#666666"
     borderopacity="1.0"
     inkscape:showpageshadow="2"
     inkscape:pageopacity="0.0"
     inkscape:pagecheckerboard="0"
     inkscape:deskcolor="#d1d1d1"
     inkscape:document-units="mm"
     showgrid="false"
     inkscape:zoom="1.0885159"
     inkscape:rotation="90"
     inkscape:cx="227.3738"
     inkscape:cy="630.21587"
     inkscape:window-width="1920"
     inkscape:window-height="1001"
     inkscape:window-x="-9"
     inkscape:window-y="219"
     inkscape:window-maximized="1"
     inkscape:current-layer="layer1" />
  <defs
     id="defs20764" />
  <g
     inkscape:label="Ebene 1"
     inkscape:groupmode="layer"
     id="layer1">
    <path
       id="rect111"
       style="fill:none;fill-rule:evenodd;stroke:#000000;stroke-width:0.5;stroke-dasharray:none;stroke-opacity:1"
       d="M 37.249923 -0.25011393 L 296.74985 -0.25011393 L 296.74985 -149.75003 L 37.249923 -149.75003 L 37.249923 -0.25011393 z M 42.500248 -12.249898 A 5.7500005 5.7500005 0 0 1 48.249768 -17.999935 A 5.7500005 5.7500005 0 0 1 53.999805 -12.249898 A 5.7500005 5.7500005 0 0 1 48.249768 -6.4998617 A 5.7500005 5.7500005 0 0 1 42.500248 -12.249898 z M 42.500248 -26.250077 A 5.7500005 5.7499967 0 0 1 48.249768 -32.000114 A 5.7500005 5.7499967 0 0 1 53.999805 -26.250077 A 5.7500005 5.7499967 0 0 1 48.249768 -20.500041 A 5.7500005 5.7499967 0 0 1 42.500248 -26.250077 z M 42.500248 -40.250256 A 5.7500005 5.7500005 0 0 1 48.249768 -45.999776 A 5.7500005 5.7500005 0 0 1 53.999805 -40.250256 A 5.7500005 5.7500005 0 0 1 48.249768 -34.50022 A 5.7500005 5.7500005 0 0 1 42.500248 -40.250256 z M 42.500248 -54.249919 A 5.7500005 5.7500005 0 0 1 48.249768 -59.999955 A 5.7500005 5.7500005 0 0 1 53.999805 -54.249919 A 5.7500005 5.7500005 0 0 1 48.249768 -48.499882 A 5.7500005 5.7500005 0 0 1 42.500248 -54.249919 z M 42.500248 -68.250098 A 5.7500005 5.7499967 0 0 1 48.249768 -74.000134 A 5.7500005 5.7499967 0 0 1 53.999805 -68.250098 A 5.7500005 5.7499967 0 0 1 48.249768 -62.500061 A 5.7500005 5.7499967 0 0 1 42.500248 -68.250098 z M 42.500248 -82.24976 A 5.7500005 5.7499967 0 0 1 48.249768 -87.999797 A 5.7500005 5.7499967 0 0 1 53.999805 -82.24976 A 5.7500005 5.7499967 0 0 1 48.249768 -76.50024 A 5.7500005 5.7499967 0 0 1 42.500248 -82.24976 z M 42.500248 -96.249939 A 5.7500005 5.7500005 0 0 1 48.249768 -101.99998 A 5.7500005 5.7500005 0 0 1 53.999805 -96.249939 A 5.7500005 5.7500005 0 0 1 48.249768 -90.499902 A 5.7500005 5.7500005 0 0 1 42.500248 -96.249939 z M 42.500248 -110.25012 A 5.7500005 5.7500005 0 0 1 48.249768 -116.00015 A 5.7500005 5.7500005 0 0 1 53.999805 -110.25012 A 5.7500005 5.7500005 0 0 1 48.249768 -104.50008 A 5.7500005 5.7500005 0 0 1 42.500248 -110.25012 z M 42.500248 -124.24978 A 5.7500005 5.7500005 0 0 1 48.249768 -129.99982 A 5.7500005 5.7500005 0 0 1 53.999805 -124.24978 A 5.7500005 5.7500005 0 0 1 48.249768 -118.49974 A 5.7500005 5.7500005 0 0 1 42.500248 -124.24978 z M 42.500248 -138.24996 A 5.7500005 5.7500005 0 0 1 48.249768 -144 A 5.7500005 5.7500005 0 0 1 53.999805 -138.24996 A 5.7500005 5.7500005 0 0 1 48.249768 -132.49992 A 5.7500005 5.7500005 0 0 1 42.500248 -138.24996 z M 70.50009 -12.249898 A 5.7500005 5.7500005 0 0 1 76.250126 -17.999935 A 5.7500005 5.7500005 0 0 1 82.000163 -12.249898 A 5.7500005 5.7500005 0 0 1 76.250126 -6.4998617 A 5.7500005 5.7500005 0 0 1 70.50009 -12.249898 z M 70.50009 -26.250077 A 5.7500005 5.7499967 0 0 1 76.250126 -32.000114 A 5.7500005 5.7499967 0 0 1 82.000163 -26.250077 A 5.7500005 5.7499967 0 0 1 76.250126 -20.500041 A 5.7500005 5.7499967 0 0 1 70.50009 -26.250077 z M 70.50009 -40.250256 A 5.7500005 5.7500005 0 0 1 76.250126 -45.999776 A 5.7500005 5.7500005 0 0 1 82.000163 -40.250256 A 5.7500005 5.7500005 0 0 1 76.250126 -34.50022 A 5.7500005 5.7500005 0 0 1 70.50009 -40.250256 z M 70.50009 -54.249919 A 5.7500005 5.7500005 0 0 1 76.250126 -59.999955 A 5.7500005 5.7500005 0 0 1 82.000163 -54.249919 A 5.7500005 5.7500005 0 0 1 76.250126 -48.499882 A 5.7500005 5.7500005 0 0 1 70.50009 -54.249919 z M 70.50009 -68.250098 A 5.7500005 5.7499967 0 0 1 76.250126 -74.000134 A 5.7500005 5.7499967 0 0 1 82.000163 -68.250098 A 5.7500005 5.7499967 0 0 1 76.250126 -62.500061 A 5.7500005 5.7499967 0 0 1 70.50009 -68.250098 z M 70.50009 -82.24976 A 5.7500005 5.7499967 0 0 1 76.250126 -87.999797 A 5.7500005 5.7499967 0 0 1 82.000163 -82.24976 A 5.7500005 5.7499967 0 0 1 76.250126 -76.50024 A 5.7500005 5.7499967 0 0 1 70.50009 -82.24976 z M 70.50009 -96.249939 A 5.7500005 5.7500005 0 0 1 76.250126 -101.99998 A 5.7500005 5.7500005 0 0 1 82.000163 -96.249939 A 5.7500005 5.7500005 0 0 1 76.250126 -90.499902 A 5.7500005 5.7500005 0 0 1 70.50009 -96.249939 z M 70.50009 -110.25012 A 5.7500005 5.7500005 0 0 1 76.250126 -116.00015 A 5.7500005 5.7500005 0 0 1 82.000163 -110.25012 A 5.7500005 5.7500005 0 0 1 76.250126 -104.50008 A 5.7500005 5.7500005 0 0 1 70.50009 -110.25012 z M 70.50009 -124.24978 A 5.7500005 5.7500005 0 0 1 76.250126 -129.99982 A 5.7500005 5.7500005 0 0 1 82.000163 -124.24978 A 5.7500005 5.7500005 0 0 1 76.250126 -118.49974 A 5.7500005 5.7500005 0 0 1 70.50009 -124.24978 z M 70.50009 -138.24996 A 5.7500005 5.7500005 0 0 1 76.250126 -144 A 5.7500005 5.7500005 0 0 1 82.000163 -138.24996 A 5.7500005 5.7500005 0 0 1 76.250126 -132.49992 A 5.7500005 5.7500005 0 0 1 70.50009 -138.24996 z M 98.499931 -12.249898 A 5.7500005 5.7500005 0 0 1 104.24997 -17.999935 A 5.7500005 5.7500005 0 0 1 110 -12.249898 A 5.7500005 5.7500005 0 0 1 104.24997 -6.4998617 A 5.7500005 5.7500005 0 0 1 98.499931 -12.249898 z M 98.499931 -26.250077 A 5.7500005 5.7499967 0 0 1 104.24997 -32.000114 A 5.7500005 5.7499967 0 0 1 110 -26.250077 A 5.7500005 5.7499967 0 0 1 104.24997 -20.500041 A 5.7500005 5.7499967 0 0 1 98.499931 -26.250077 z M 98.499931 -40.250256 A 5.7500005 5.7500005 0 0 1 104.24997 -45.999776 A 5.7500005 5.7500005 0 0 1 110 -40.250256 A 5.7500005 5.7500005 0 0 1 104.24997 -34.50022 A 5.7500005 5.7500005 0 0 1 98.499931 -40.250256 z M 98.499931 -54.249919 A 5.7500005 5.7500005 0 0 1 104.24997 -59.999955 A 5.7500005 5.7500005 0 0 1 110 -54.249919 A 5.7500005 5.7500005 0 0 1 104.24997 -48.499882 A 5.7500005 5.7500005 0 0 1 98.499931 -54.249919 z M 98.499931 -68.250098 A 5.7500005 5.7499967 0 0 1 104.24997 -74.000134 A 5.7500005 5.7499967 0 0 1 110 -68.250098 A 5.7500005 5.7499967 0 0 1 104.24997 -62.500061 A 5.7500005 5.7499967 0 0 1 98.499931 -68.250098 z M 98.499931 -82.24976 A 5.7500005 5.7499967 0 0 1 104.24997 -87.999797 A 5.7500005 5.7499967 0 0 1 110 -82.24976 A 5.7500005 5.7499967 0 0 1 104.24997 -76.50024 A 5.7500005 5.7499967 0 0 1 98.499931 -82.24976 z M 98.499931 -96.249939 A 5.7500005 5.7500005 0 0 1 104.24997 -101.99998 A 5.7500005 5.7500005 0 0 1 110 -96.249939 A 5.7500005 5.7500005 0 0 1 104.24997 -90.499902 A 5.7500005 5.7500005 0 0 1 98.499931 -96.249939 z M 98.499931 -110.25012 A 5.7500005 5.7500005 0 0 1 104.24997 -116.00015 A 5.7500005 5.7500005 0 0 1 110 -110.25012 A 5.7500005 5.7500005 0 0 1 104.24997 -104.50008 A 5.7500005 5.7500005 0 0 1 98.499931 -110.25012 z M 98.499931 -124.24978 A 5.7500005 5.7500005 0 0 1 104.24997 -129.99982 A 5.7500005 5.7500005 0 0 1 110 -124.24978 A 5.7500005 5.7500005 0 0 1 104.24997 -118.49974 A 5.7500005 5.7500005 0 0 1 98.499931 -124.24978 z M 98.499931 -138.24996 A 5.7500005 5.7500005 0 0 1 104.24997 -144 A 5.7500005 5.7500005 0 0 1 110 -138.24996 A 5.7500005 5.7500005 0 0 1 104.24997 -132.49992 A 5.7500005 5.7500005 0 0 1 98.499931 -138.24996 z M 126.49977 -12.249898 A 5.7500005 5.7500005 0 0 1 132.24981 -17.999935 A 5.7500005 5.7500005 0 0 1 137.99985 -12.249898 A 5.7500005 5.7500005 0 0 1 132.24981 -6.4998617 A 5.7500005 5.7500005 0 0 1 126.49977 -12.249898 z M 126.49977 -26.250077 A 5.7500005 5.7499967 0 0 1 132.24981 -32.000114 A 5.7500005 5.7499967 0 0 1 137.99985 -26.250077 A 5.7500005 5.7499967 0 0 1 132.24981 -20.500041 A 5.7500005 5.7499967 0 0 1 126.49977 -26.250077 z M 126.49977 -40.250256 A 5.7500005 5.7500005 0 0 1 132.24981 -45.999776 A 5.7500005 5.7500005 0 0 1 137.99985 -40.250256 A 5.7500005 5.7500005 0 0 1 132.24981 -34.50022 A 5.7500005 5.7500005 0 0 1 126.49977 -40.250256 z M 126.49977 -54.249919 A 5.7500005 5.7500005 0 0 1 132.24981 -59.999955 A 5.7500005 5.7500005 0 0 1 137.99985 -54.249919 A 5.7500005 5.7500005 0 0 1 132.24981 -48.499882 A 5.7500005 5.7500005 0 0 1 126.49977 -54.249919 z M 126.49977 -68.250098 A 5.7500005 5.7499967 0 0 1 132.24981 -74.000134 A 5.7500005 5.7499967 0 0 1 137.99985 -68.250098 A 5.7500005 5.7499967 0 0 1 132.24981 -62.500061 A 5.7500005 5.7499967 0 0 1 126.49977 -68.250098 z M 126.49977 -82.24976 A 5.7500005 5.7499967 0 0 1 132.24981 -87.999797 A 5.7500005 5.7499967 0 0 1 137.99985 -82.24976 A 5.7500005 5.7499967 0 0 1 132.24981 -76.50024 A 5.7500005 5.7499967 0 0 1 126.49977 -82.24976 z M 126.49977 -96.249939 A 5.7500005 5.7500005 0 0 1 132.24981 -101.99998 A 5.7500005 5.7500005 0 0 1 137.99985 -96.249939 A 5.7500005 5.7500005 0 0 1 132.24981 -90.499902 A 5.7500005 5.7500005 0 0 1 126.49977 -96.249939 z M 126.49977 -110.25012 A 5.7500005 5.7500005 0 0 1 132.24981 -116.00015 A 5.7500005 5.7500005 0 0 1 137.99985 -110.25012 A 5.7500005 5.7500005 0 0 1 132.24981 -104.50008 A 5.7500005 5.7500005 0 0 1 126.49977 -110.25012 z M 126.49977 -124.24978 A 5.7500005 5.7500005 0 0 1 132.24981 -129.99982 A 5.7500005 5.7500005 0 0 1 137.99985 -124.24978 A 5.7500005 5.7500005 0 0 1 132.24981 -118.49974 A 5.7500005 5.7500005 0 0 1 126.49977 -124.24978 z M 126.49977 -138.24996 A 5.7500005 5.7500005 0 0 1 132.24981 -144 A 5.7500005 5.7500005 0 0 1 137.99985 -138.24996 A 5.7500005 5.7500005 0 0 1 132.24981 -132.49992 A 5.7500005 5.7500005 0 0 1 126.49977 -138.24996 z M 154.50013 -12.249898 A 5.7500005 5.7500005 0 0 1 160.25017 -17.999935 A 5.7500005 5.7500005 0 0 1 166.0002 -12.249898 A 5.7500005 5.7500005 0 0 1 160.25017 -6.4998617 A 5.7500005 5.7500005 0 0 1 154.50013 -12.249898 z M 154.50013 -26.250077 A 5.7500005 5.7499967 0 0 1 160.25017 -32.000114 A 5.7500005 5.7499967 0 0 1 166.0002 -26.250077 A 5.7500005 5.7499967 0 0 1 160.25017 -20.500041 A 5.7500005 5.7499967 0 0 1 154.50013 -26.250077 z M 154.50013 -40.250256 A 5.7500005 5.7500005 0 0 1 160.25017 -45.999776 A 5.7500005 5.7500005 0 0 1 166.0002 -40.250256 A 5.7500005 5.7500005 0 0 1 160.25017 -34.50022 A 5.7500005 5.7500005 0 0 1 154.50013 -40.250256 z M 154.50013 -54.249919 A 5.7500005 5.7500005 0 0 1 160.25017 -59.999955 A 5.7500005 5.7500005 0 0 1 166.0002 -54.249919 A 5.7500005 5.7500005 0 0 1 160.25017 -48.499882 A 5.7500005 5.7500005 0 0 1 154.50013 -54.249919 z M 154.50013 -68.250098 A 5.7500005 5.7499967 0 0 1 160.25017 -74.000134 A 5.7500005 5.7499967 0 0 1 166.0002 -68.250098 A 5.7500005 5.7499967 0 0 1 160.25017 -62.500061 A 5.7500005 5.7499967 0 0 1 154.50013 -68.250098 z M 154.50013 -82.24976 A 5.7500005 5.7499967 0 0 1 160.25017 -87.999797 A 5.7500005 5.7499967 0 0 1 166.0002 -82.24976 A 5.7500005 5.7499967 0 0 1 160.25017 -76.50024 A 5.7500005 5.7499967 0 0 1 154.50013 -82.24976 z M 154.50013 -96.249939 A 5.7500005 5.7500005 0 0 1 160.25017 -101.99998 A 5.7500005 5.7500005 0 0 1 166.0002 -96.249939 A 5.7500005 5.7500005 0 0 1 160.25017 -90.499902 A 5.7500005 5.7500005 0 0 1 154.50013 -96.249939 z M 154.50013 -110.25012 A 5.7500005 5.7500005 0 0 1 160.25017 -116.00015 A 5.7500005 5.7500005 0 0 1 166.0002 -110.25012 A 5.7500005 5.7500005 0 0 1 160.25017 -104.50008 A 5.7500005 5.7500005 0 0 1 154.50013 -110.25012 z M 154.50013 -124.24978 A 5.7500005 5.7500005 0 0 1 160.25017 -129.99982 A 5.7500005 5.7500005 0 0 1 166.0002 -124.24978 A 5.7500005 5.7500005 0 0 1 160.25017 -118.49974 A 5.7500005 5.7500005 0 0 1 154.50013 -124.24978 z M 154.50013 -138.24996 A 5.7500005 5.7500005 0 0 1 160.25017 -144 A 5.7500005 5.7500005 0 0 1 166.0002 -138.24996 A 5.7500005 5.7500005 0 0 1 160.25017 -132.49992 A 5.7500005 5.7500005 0 0 1 154.50013 -138.24996 z M 182.49997 -12.249898 A 5.7500005 5.7500005 0 0 1 188.25001 -17.999935 A 5.7500005 5.7500005 0 0 1 194.00004 -12.249898 A 5.7500005 5.7500005 0 0 1 188.25001 -6.4998617 A 5.7500005 5.7500005 0 0 1 182.49997 -12.249898 z M 182.49997 -26.250077 A 5.7500005 5.7499967 0 0 1 188.25001 -32.000114 A 5.7500005 5.7499967 0 0 1 194.00004 -26.250077 A 5.7500005 5.7499967 0 0 1 188.25001 -20.500041 A 5.7500005 5.7499967 0 0 1 182.49997 -26.250077 z M 182.49997 -40.250256 A 5.7500005 5.7500005 0 0 1 188.25001 -45.999776 A 5.7500005 5.7500005 0 0 1 194.00004 -40.250256 A 5.7500005 5.7500005 0 0 1 188.25001 -34.50022 A 5.7500005 5.7500005 0 0 1 182.49997 -40.250256 z M 182.49997 -54.249919 A 5.7500005 5.7500005 0 0 1 188.25001 -59.999955 A 5.7500005 5.7500005 0 0 1 194.00004 -54.249919 A 5.7500005 5.7500005 0 0 1 188.25001 -48.499882 A 5.7500005 5.7500005 0 0 1 182.49997 -54.249919 z M 182.49997 -68.250098 A 5.7500005 5.7499967 0 0 1 188.25001 -74.000134 A 5.7500005 5.7499967 0 0 1 194.00004 -68.250098 A 5.7500005 5.7499967 0 0 1 188.25001 -62.500061 A 5.7500005 5.7499967 0 0 1 182.49997 -68.250098 z M 182.49997 -82.24976 A 5.7500005 5.7499967 0 0 1 188.25001 -87.999797 A 5.7500005 5.7499967 0 0 1 194.00004 -82.24976 A 5.7500005 5.7499967 0 0 1 188.25001 -76.50024 A 5.7500005 5.7499967 0 0 1 182.49997 -82.24976 z M 182.49997 -96.249939 A 5.7500005 5.7500005 0 0 1 188.25001 -101.99998 A 5.7500005 5.7500005 0 0 1 194.00004 -96.249939 A 5.7500005 5.7500005 0 0 1 188.25001 -90.499902 A 5.7500005 5.7500005 0 0 1 182.49997 -96.249939 z M 182.49997 -110.25012 A 5.7500005 5.7500005 0 0 1 188.25001 -116.00015 A 5.7500005 5.7500005 0 0 1 194.00004 -110.25012 A 5.7500005 5.7500005 0 0 1 188.25001 -104.50008 A 5.7500005 5.7500005 0 0 1 182.49997 -110.25012 z M 182.49997 -124.24978 A 5.7500005 5.7500005 0 0 1 188.25001 -129.99982 A 5.7500005 5.7500005 0 0 1 194.00004 -124.24978 A 5.7500005 5.7500005 0 0 1 188.25001 -118.49974 A 5.7500005 5.7500005 0 0 1 182.49997 -124.24978 z M 182.49997 -138.24996 A 5.7500005 5.7500005 0 0 1 188.25001 -144 A 5.7500005 5.7500005 0 0 1 194.00004 -138.24996 A 5.7500005 5.7500005 0 0 1 188.25001 -132.49992 A 5.7500005 5.7500005 0 0 1 182.49997 -138.24996 z M 210.49981 -12.249898 A 5.7500005 5.7500005 0 0 1 216.24985 -17.999935 A 5.7500005 5.7500005 0 0 1 221.99989 -12.249898 A 5.7500005 5.7500005 0 0 1 216.24985 -6.4998617 A 5.7500005 5.7500005 0 0 1 210.49981 -12.249898 z M 210.49981 -26.250077 A 5.7500005 5.7499967 0 0 1 216.24985 -32.000114 A 5.7500005 5.7499967 0 0 1 221.99989 -26.250077 A 5.7500005 5.7499967 0 0 1 216.24985 -20.500041 A 5.7500005 5.7499967 0 0 1 210.49981 -26.250077 z M 210.49981 -40.250256 A 5.7500005 5.7500005 0 0 1 216.24985 -45.999776 A 5.7500005 5.7500005 0 0 1 221.99989 -40.250256 A 5.7500005 5.7500005 0 0 1 216.24985 -34.50022 A 5.7500005 5.7500005 0 0 1 210.49981 -40.250256 z M 210.49981 -54.249919 A 5.7500005 5.7500005 0 0 1 216.24985 -59.999955 A 5.7500005 5.7500005 0 0 1 221.99989 -54.249919 A 5.7500005 5.7500005 0 0 1 216.24985 -48.499882 A 5.7500005 5.7500005 0 0 1 210.49981 -54.249919 z M 210.49981 -68.250098 A 5.7500005 5.7499967 0 0 1 216.24985 -74.000134 A 5.7500005 5.7499967 0 0 1 221.99989 -68.250098 A 5.7500005 5.7499967 0 0 1 216.24985 -62.500061 A 5.7500005 5.7499967 0 0 1 210.49981 -68.250098 z M 210.49981 -82.24976 A 5.7500005 5.7499967 0 0 1 216.24985 -87.999797 A 5.7500005 5.7499967 0 0 1 221.99989 -82.24976 A 5.7500005 5.7499967 0 0 1 216.24985 -76.50024 A 5.7500005 5.7499967 0 0 1 210.49981 -82.24976 z M 210.49981 -96.249939 A 5.7500005 5.7500005 0 0 1 216.24985 -101.99998 A 5.7500005 5.7500005 0 0 1 221.99989 -96.249939 A 5.7500005 5.7500005 0 0 1 216.24985 -90.499902 A 5.7500005 5.7500005 0 0 1 210.49981 -96.249939 z M 210.49981 -110.25012 A 5.7500005 5.7500005 0 0 1 216.24985 -116.00015 A 5.7500005 5.7500005 0 0 1 221.99989 -110.25012 A 5.7500005 5.7500005 0 0 1 216.24985 -104.50008 A 5.7500005 5.7500005 0 0 1 210.49981 -110.25012 z M 210.49981 -124.24978 A 5.7500005 5.7500005 0 0 1 216.24985 -129.99982 A 5.7500005 5.7500005 0 0 1 221.99989 -124.24978 A 5.7500005 5.7500005 0 0 1 216.24985 -118.49974 A 5.7500005 5.7500005 0 0 1 210.49981 -124.24978 z M 210.49981 -138.24996 A 5.7500005 5.7500005 0 0 1 216.24985 -144 A 5.7500005 5.7500005 0 0 1 221.99989 -138.24996 A 5.7500005 5.7500005 0 0 1 216.24985 -132.49992 A 5.7500005 5.7500005 0 0 1 210.49981 -138.24996 z M 238.50017 -12.249898 A 5.7500005 5.7500005 0 0 1 244.25021 -17.999935 A 5.7500005 5.7500005 0 0 1 250.00024 -12.249898 A 5.7500005 5.7500005 0 0 1 244.25021 -6.4998617 A 5.7500005 5.7500005 0 0 1 238.50017 -12.249898 z M 238.50017 -26.250077 A 5.7500005 5.7499967 0 0 1 244.25021 -32.000114 A 5.7500005 5.7499967 0 0 1 250.00024 -26.250077 A 5.7500005 5.7499967 0 0 1 244.25021 -20.500041 A 5.7500005 5.7499967 0 0 1 238.50017 -26.250077 z M 238.50017 -40.250256 A 5.7500005 5.7500005 0 0 1 244.25021 -45.999776 A 5.7500005 5.7500005 0 0 1 250.00024 -40.250256 A 5.7500005 5.7500005 0 0 1 244.25021 -34.50022 A 5.7500005 5.7500005 0 0 1 238.50017 -40.250256 z M 238.50017 -54.249919 A 5.7500005 5.7500005 0 0 1 244.25021 -59.999955 A 5.7500005 5.7500005 0 0 1 250.00024 -54.249919 A 5.7500005 5.7500005 0 0 1 244.25021 -48.499882 A 5.7500005 5.7500005 0 0 1 238.50017 -54.249919 z M 238.50017 -68.250098 A 5.7500005 5.7499967 0 0 1 244.25021 -74.000134 A 5.7500005 5.7499967 0 0 1 250.00024 -68.250098 A 5.7500005 5.7499967 0 0 1 244.25021 -62.500061 A 5.7500005 5.7499967 0 0 1 238.50017 -68.250098 z M 238.50017 -82.24976 A 5.7500005 5.7499967 0 0 1 244.25021 -87.999797 A 5.7500005 5.7499967 0 0 1 250.00024 -82.24976 A 5.7500005 5.7499967 0 0 1 244.25021 -76.50024 A 5.7500005 5.7499967 0 0 1 238.50017 -82.24976 z M 238.50017 -96.249939 A 5.7500005 5.7500005 0 0 1 244.25021 -101.99998 A 5.7500005 5.7500005 0 0 1 250.00024 -96.249939 A 5.7500005 5.7500005 0 0 1 244.25021 -90.499902 A 5.7500005 5.7500005 0 0 1 238.50017 -96.249939 z M 238.50017 -110.25012 A 5.7500005 5.7500005 0 0 1 244.25021 -116.00015 A 5.7500005 5.7500005 0 0 1 250.00024 -110.25012 A 5.7500005 5.7500005 0 0 1 244.25021 -104.50008 A 5.7500005 5.7500005 0 0 1 238.50017 -110.25012 z M 238.50017 -124.24978 A 5.7500005 5.7500005 0 0 1 244.25021 -129.99982 A 5.7500005 5.7500005 0 0 1 250.00024 -124.24978 A 5.7500005 5.7500005 0 0 1 244.25021 -118.49974 A 5.7500005 5.7500005 0 0 1 238.50017 -124.24978 z M 238.50017 -138.24996 A 5.7500005 5.7500005 0 0 1 244.25021 -144 A 5.7500005 5.7500005 0 0 1 250.00024 -138.24996 A 5.7500005 5.7500005 0 0 1 244.25021 -132.49992 A 5.7500005 5.7500005 0 0 1 238.50017 -138.24996 z M 266.50001 -12.249898 A 5.7500005 5.7500005 0 0 1 272.25005 -17.999935 A 5.7500005 5.7500005 0 0 1 278.00009 -12.249898 A 5.7500005 5.7500005 0 0 1 272.25005 -6.4998617 A 5.7500005 5.7500005 0 0 1 266.50001 -12.249898 z M 266.50001 -26.250077 A 5.7500005 5.7500005 0 0 1 272.25005 -32.000114 A 5.7500005 5.7500005 0 0 1 278.00009 -26.250077 A 5.7500005 5.7500005 0 0 1 272.25005 -20.500041 A 5.7500005 5.7500005 0 0 1 266.50001 -26.250077 z M 266.50001 -40.250256 A 5.7500005 5.7500005 0 0 1 272.25005 -45.999776 A 5.7500005 5.7500005 0 0 1 278.00009 -40.250256 A 5.7500005 5.7500005 0 0 1 272.25005 -34.50022 A 5.7500005 5.7500005 0 0 1 266.50001 -40.250256 z M 266.50001 -54.249919 A 5.7500005 5.7500005 0 0 1 272.25005 -59.999955 A 5.7500005 5.7500005 0 0 1 278.00009 -54.249919 A 5.7500005 5.7500005 0 0 1 272.25005 -48.499882 A 5.7500005 5.7500005 0 0 1 266.50001 -54.249919 z M 266.50001 -68.250098 A 5.7500005 5.7499967 0 0 1 272.25005 -74.000134 A 5.7500005 5.7499967 0 0 1 278.00009 -68.250098 A 5.7500005 5.7499967 0 0 1 272.25005 -62.500061 A 5.7500005 5.7499967 0 0 1 266.50001 -68.250098 z M 266.50001 -82.24976 A 5.7500005 5.7499967 0 0 1 272.25005 -87.999797 A 5.7500005 5.7499967 0 0 1 278.00009 -82.24976 A 5.7500005 5.7499967 0 0 1 272.25005 -76.50024 A 5.7500005 5.7499967 0 0 1 266.50001 -82.24976 z M 266.50001 -96.249939 A 5.7500005 5.7500005 0 0 1 272.25005 -101.99998 A 5.7500005 5.7500005 0 0 1 278.00009 -96.249939 A 5.7500005 5.7500005 0 0 1 272.25005 -90.499902 A 5.7500005 5.7500005 0 0 1 266.50001 -96.249939 z M 266.50001 -110.25012 A 5.7500005 5.7500005 0 0 1 272.25005 -116.00015 A 5.7500005 5.7500005 0 0 1 278.00009 -110.25012 A 5.7500005 5.7500005 0 0 1 272.25005 -104.50008 A 5.7500005 5.7500005 0 0 1 266.50001 -110.25012 z M 266.50001 -124.24978 A 5.7500005 5.7500005 0 0 1 272.25005 -129.99982 A 5.7500005 5.7500005 0 0 1 278.00009 -124.24978 A 5.7500005 5.7500005 0 0 1 272.25005 -118.49974 A 5.7500005 5.7500005 0 0 1 266.50001 -124.24978 z M 266.50001 -138.24996 A 5.7500005 5.7500005 0 0 1 272.25005 -144 A 5.7500005 5.7500005 0 0 1 278.00009 -138.24996 A 5.7500005 5.7500005 0 0 1 272.25005 -132.49992 A 5.7500005 5.7500005 0 0 1 266.50001 -138.24996 z "
       transform="rotate(90)" />
  </g>
</svg>
