<?xml version="1.0" encoding="UTF-8" standalone="no"?>
<!-- Created with Inkscape (http://www.inkscape.org/) -->

<svg
   width="210mm"
   height="297mm"
   viewBox="0 0 210 297"
   version="1.1"
   id="svg1697"
   inkscape:version="1.2.2 (732a01da63, 2022-12-09)"
   sodipodi:docname="Layer1_finalYellow_12mm.svg"
   xmlns:inkscape="http://www.inkscape.org/namespaces/inkscape"
   xmlns:sodipodi="http://sodipodi.sourceforge.net/DTD/sodipodi-0.dtd"
   xmlns="http://www.w3.org/2000/svg"
   xmlns:svg="http://www.w3.org/2000/svg">
  <sodipodi:namedview
     id="namedview1699"
     pagecolor="#ffffff"
     bordercolor="#666666"
     borderopacity="1.0"
     inkscape:showpageshadow="2"
     inkscape:pageopacity="0.0"
     inkscape:pagecheckerboard="0"
     inkscape:deskcolor="#d1d1d1"
     inkscape:document-units="mm"
     showgrid="false"
     inkscape:zoom="1.0885159"
     inkscape:rotation="90"
     inkscape:cx="291.68155"
     inkscape:cy="756.994"
     inkscape:window-width="1920"
     inkscape:window-height="1001"
     inkscape:window-x="-9"
     inkscape:window-y="219"
     inkscape:window-maximized="1"
     inkscape:current-layer="layer1" />
  <defs
     id="defs1694" />
  <g
     inkscape:label="Ebene 1"
     inkscape:groupmode="layer"
     id="layer1">
    <path
       id="rect111"
       style="fill:none;fill-rule:evenodd;stroke:#000000;stroke-width:0.5;stroke-dasharray:none;stroke-opacity:1"
       d="M 37.249923 -0.25011393 L 296.74985 -0.25011393 L 296.74985 -149.75003 L 37.249923 -149.75003 L 37.249923 -0.25011393 z M 56.49991 -12.249898 A 5.7500005 5.7500005 0 0 1 62.249947 -17.999935 A 5.7500005 5.7500005 0 0 1 67.999984 -12.249898 A 5.7500005 5.7500005 0 0 1 62.249947 -6.4998617 A 5.7500005 5.7500005 0 0 1 56.49991 -12.249898 z M 56.49991 -26.250077 A 5.7500005 5.7499967 0 0 1 62.249947 -32.000114 A 5.7500005 5.7499967 0 0 1 67.999984 -26.250077 A 5.7500005 5.7499967 0 0 1 62.249947 -20.500041 A 5.7500005 5.7499967 0 0 1 56.49991 -26.250077 z M 56.49991 -40.250256 A 5.7500005 5.7499986 0 0 1 62.249947 -45.999776 A 5.7500005 5.7499986 0 0 1 67.999984 -40.250256 A 5.7500005 5.7499986 0 0 1 62.249947 -34.50022 A 5.7500005 5.7499986 0 0 1 56.49991 -40.250256 z M 56.49991 -54.249919 A 5.7500005 5.7500005 0 0 1 62.249947 -59.999955 A 5.7500005 5.7500005 0 0 1 67.999984 -54.249919 A 5.7500005 5.7500005 0 0 1 62.249947 -48.499882 A 5.7500005 5.7500005 0 0 1 56.49991 -54.249919 z M 56.49991 -68.250098 A 5.7500005 5.7499967 0 0 1 62.249947 -74.000134 A 5.7500005 5.7499967 0 0 1 67.999984 -68.250098 A 5.7500005 5.7499967 0 0 1 62.249947 -62.500061 A 5.7500005 5.7499967 0 0 1 56.49991 -68.250098 z M 56.49991 -82.24976 A 5.7500005 5.7499967 0 0 1 62.249947 -87.999797 A 5.7500005 5.7499967 0 0 1 67.999984 -82.24976 A 5.7500005 5.7499967 0 0 1 62.249947 -76.50024 A 5.7500005 5.7499967 0 0 1 56.49991 -82.24976 z M 56.49991 -96.249939 A 5.7500005 5.7499967 0 0 1 62.249947 -101.99998 A 5.7500005 5.7499967 0 0 1 67.999984 -96.249939 A 5.7500005 5.7499967 0 0 1 62.249947 -90.499902 A 5.7500005 5.7499967 0 0 1 56.49991 -96.249939 z M 56.49991 -110.25012 A 5.7500005 5.7500005 0 0 1 62.249947 -116.00015 A 5.7500005 5.7500005 0 0 1 67.999984 -110.25012 A 5.7500005 5.7500005 0 0 1 62.249947 -104.50008 A 5.7500005 5.7500005 0 0 1 56.49991 -110.25012 z M 56.49991 -124.24978 A 5.7500005 5.7500005 0 0 1 62.249947 -129.99982 A 5.7500005 5.7500005 0 0 1 67.999984 -124.24978 A 5.7500005 5.7500005 0 0 1 62.249947 -118.49974 A 5.7500005 5.7500005 0 0 1 56.49991 -124.24978 z M 56.49991 -138.24996 A 5.7500005 5.7500005 0 0 1 62.249947 -144 A 5.7500005 5.7500005 0 0 1 67.999984 -138.24996 A 5.7500005 5.7500005 0 0 1 62.249947 -132.49992 A 5.7500005 5.7500005 0 0 1 56.49991 -138.24996 z M 84.499752 -12.249898 A 5.7500005 5.7500005 0 0 1 90.249788 -17.999935 A 5.7500005 5.7500005 0 0 1 95.999825 -12.249898 A 5.7500005 5.7500005 0 0 1 90.249788 -6.4998617 A 5.7500005 5.7500005 0 0 1 84.499752 -12.249898 z M 84.499752 -26.250077 A 5.7500005 5.7499967 0 0 1 90.249788 -32.000114 A 5.7500005 5.7499967 0 0 1 95.999825 -26.250077 A 5.7500005 5.7499967 0 0 1 90.249788 -20.500041 A 5.7500005 5.7499967 0 0 1 84.499752 -26.250077 z M 84.499752 -40.24974 A 5.7500005 5.7499986 0 0 1 90.249788 -45.999776 A 5.7500005 5.7499986 0 0 1 95.999825 -40.24974 A 5.7500005 5.7499986 0 0 1 90.249788 -34.50022 A 5.7500005 5.7499986 0 0 1 84.499752 -40.24974 z M 84.499752 -54.249919 A 5.7500005 5.7500005 0 0 1 90.249788 -59.999955 A 5.7500005 5.7500005 0 0 1 95.999825 -54.249919 A 5.7500005 5.7500005 0 0 1 90.249788 -48.499882 A 5.7500005 5.7500005 0 0 1 84.499752 -54.249919 z M 84.499752 -68.250098 A 5.7500005 5.7499967 0 0 1 90.249788 -74.000134 A 5.7500005 5.7499967 0 0 1 95.999825 -68.250098 A 5.7500005 5.7499967 0 0 1 90.249788 -62.500061 A 5.7500005 5.7499967 0 0 1 84.499752 -68.250098 z M 84.499752 -82.24976 A 5.7500005 5.7499967 0 0 1 90.249788 -87.999797 A 5.7500005 5.7499967 0 0 1 95.999825 -82.24976 A 5.7500005 5.7499967 0 0 1 90.249788 -76.50024 A 5.7500005 5.7499967 0 0 1 84.499752 -82.24976 z M 84.499752 -96.249939 A 5.7500005 5.7499967 0 0 1 90.249788 -101.99998 A 5.7500005 5.7499967 0 0 1 95.999825 -96.249939 A 5.7500005 5.7499967 0 0 1 90.249788 -90.499902 A 5.7500005 5.7499967 0 0 1 84.499752 -96.249939 z M 84.499752 -110.25012 A 5.7500005 5.7500005 0 0 1 90.249788 -116.00015 A 5.7500005 5.7500005 0 0 1 95.999825 -110.25012 A 5.7500005 5.7500005 0 0 1 90.249788 -104.50008 A 5.7500005 5.7500005 0 0 1 84.499752 -110.25012 z M 84.499752 -124.24978 A 5.7500005 5.7500005 0 0 1 90.249788 -129.99982 A 5.7500005 5.7500005 0 0 1 95.999825 -124.24978 A 5.7500005 5.7500005 0 0 1 90.249788 -118.49974 A 5.7500005 5.7500005 0 0 1 84.499752 -124.24978 z M 84.499752 -138.24996 A 5.7500005 5.7500005 0 0 1 90.249788 -144 A 5.7500005 5.7500005 0 0 1 95.999825 -138.24996 A 5.7500005 5.7500005 0 0 1 90.249788 -132.49992 A 5.7500005 5.7500005 0 0 1 84.499752 -138.24996 z M 112.50011 -12.249898 A 5.7500005 5.7500005 0 0 1 118.25015 -17.999935 A 5.7500005 5.7500005 0 0 1 124.00018 -12.249898 A 5.7500005 5.7500005 0 0 1 118.25015 -6.4998617 A 5.7500005 5.7500005 0 0 1 112.50011 -12.249898 z M 112.50011 -26.250077 A 5.7500005 5.7499967 0 0 1 118.25015 -32.000114 A 5.7500005 5.7499967 0 0 1 124.00018 -26.250077 A 5.7500005 5.7499967 0 0 1 118.25015 -20.500041 A 5.7500005 5.7499967 0 0 1 112.50011 -26.250077 z M 112.50011 -40.24974 A 5.7500005 5.7499986 0 0 1 118.25015 -45.999776 A 5.7500005 5.7499986 0 0 1 124.00018 -40.24974 A 5.7500005 5.7499986 0 0 1 118.25015 -34.50022 A 5.7500005 5.7499986 0 0 1 112.50011 -40.24974 z M 112.50011 -54.249919 A 5.7500005 5.7500005 0 0 1 118.25015 -59.999955 A 5.7500005 5.7500005 0 0 1 124.00018 -54.249919 A 5.7500005 5.7500005 0 0 1 118.25015 -48.499882 A 5.7500005 5.7500005 0 0 1 112.50011 -54.249919 z M 112.50011 -68.250098 A 5.7500005 5.7499967 0 0 1 118.25015 -74.000134 A 5.7500005 5.7499967 0 0 1 124.00018 -68.250098 A 5.7500005 5.7499967 0 0 1 118.25015 -62.500061 A 5.7500005 5.7499967 0 0 1 112.50011 -68.250098 z M 112.50011 -82.24976 A 5.7500005 5.7499967 0 0 1 118.25015 -87.999797 A 5.7500005 5.7499967 0 0 1 124.00018 -82.24976 A 5.7500005 5.7499967 0 0 1 118.25015 -76.50024 A 5.7500005 5.7499967 0 0 1 112.50011 -82.24976 z M 112.50011 -96.249939 A 5.7500005 5.7499967 0 0 1 118.25015 -101.99998 A 5.7500005 5.7499967 0 0 1 124.00018 -96.249939 A 5.7500005 5.7499967 0 0 1 118.25015 -90.499902 A 5.7500005 5.7499967 0 0 1 112.50011 -96.249939 z M 112.50011 -110.25012 A 5.7500005 5.7500005 0 0 1 118.25015 -116.00015 A 5.7500005 5.7500005 0 0 1 124.00018 -110.25012 A 5.7500005 5.7500005 0 0 1 118.25015 -104.50008 A 5.7500005 5.7500005 0 0 1 112.50011 -110.25012 z M 112.50011 -124.24978 A 5.7500005 5.7500005 0 0 1 118.25015 -129.99982 A 5.7500005 5.7500005 0 0 1 124.00018 -124.24978 A 5.7500005 5.7500005 0 0 1 118.25015 -118.49974 A 5.7500005 5.7500005 0 0 1 112.50011 -124.24978 z M 112.50011 -138.24996 A 5.7500005 5.7500005 0 0 1 118.25015 -144 A 5.7500005 5.7500005 0 0 1 124.00018 -138.24996 A 5.7500005 5.7500005 0 0 1 118.25015 -132.49992 A 5.7500005 5.7500005 0 0 1 112.50011 -138.24996 z M 140.49995 -12.249898 A 5.7500005 5.7500005 0 0 1 146.24999 -17.999935 A 5.7500005 5.7500005 0 0 1 152.00002 -12.249898 A 5.7500005 5.7500005 0 0 1 146.24999 -6.4998617 A 5.7500005 5.7500005 0 0 1 140.49995 -12.249898 z M 140.49995 -26.250077 A 5.7500005 5.7499967 0 0 1 146.24999 -32.000114 A 5.7500005 5.7499967 0 0 1 152.00002 -26.250077 A 5.7500005 5.7499967 0 0 1 146.24999 -20.500041 A 5.7500005 5.7499967 0 0 1 140.49995 -26.250077 z M 140.49995 -40.24974 A 5.7500005 5.7499986 0 0 1 146.24999 -45.999776 A 5.7500005 5.7499986 0 0 1 152.00002 -40.24974 A 5.7500005 5.7499986 0 0 1 146.24999 -34.50022 A 5.7500005 5.7499986 0 0 1 140.49995 -40.24974 z M 140.49995 -54.249919 A 5.7500005 5.7500005 0 0 1 146.24999 -59.999955 A 5.7500005 5.7500005 0 0 1 152.00002 -54.249919 A 5.7500005 5.7500005 0 0 1 146.24999 -48.499882 A 5.7500005 5.7500005 0 0 1 140.49995 -54.249919 z M 140.49995 -68.250098 A 5.7500005 5.7499967 0 0 1 146.24999 -74.000134 A 5.7500005 5.7499967 0 0 1 152.00002 -68.250098 A 5.7500005 5.7499967 0 0 1 146.24999 -62.500061 A 5.7500005 5.7499967 0 0 1 140.49995 -68.250098 z M 140.49995 -82.24976 A 5.7500005 5.7499967 0 0 1 146.24999 -87.999797 A 5.7500005 5.7499967 0 0 1 152.00002 -82.24976 A 5.7500005 5.7499967 0 0 1 146.24999 -76.50024 A 5.7500005 5.7499967 0 0 1 140.49995 -82.24976 z M 140.49995 -96.249939 A 5.7500005 5.7499967 0 0 1 146.24999 -101.99998 A 5.7500005 5.7499967 0 0 1 152.00002 -96.249939 A 5.7500005 5.7499967 0 0 1 146.24999 -90.499902 A 5.7500005 5.7499967 0 0 1 140.49995 -96.249939 z M 140.49995 -110.25012 A 5.7500005 5.7500005 0 0 1 146.24999 -116.00015 A 5.7500005 5.7500005 0 0 1 152.00002 -110.25012 A 5.7500005 5.7500005 0 0 1 146.24999 -104.50008 A 5.7500005 5.7500005 0 0 1 140.49995 -110.25012 z M 140.49995 -124.24978 A 5.7500005 5.7500005 0 0 1 146.24999 -129.99982 A 5.7500005 5.7500005 0 0 1 152.00002 -124.24978 A 5.7500005 5.7500005 0 0 1 146.24999 -118.49974 A 5.7500005 5.7500005 0 0 1 140.49995 -124.24978 z M 140.49995 -138.24996 A 5.7500005 5.7500005 0 0 1 146.24999 -144 A 5.7500005 5.7500005 0 0 1 152.00002 -138.24996 A 5.7500005 5.7500005 0 0 1 146.24999 -132.49992 A 5.7500005 5.7500005 0 0 1 140.49995 -138.24996 z M 168.49979 -12.249898 A 5.7500005 5.7500005 0 0 1 174.24983 -17.999935 A 5.7500005 5.7500005 0 0 1 179.99987 -12.249898 A 5.7500005 5.7500005 0 0 1 174.24983 -6.4998617 A 5.7500005 5.7500005 0 0 1 168.49979 -12.249898 z M 168.49979 -26.250077 A 5.7500005 5.7499967 0 0 1 174.24983 -32.000114 A 5.7500005 5.7499967 0 0 1 179.99987 -26.250077 A 5.7500005 5.7499967 0 0 1 174.24983 -20.500041 A 5.7500005 5.7499967 0 0 1 168.49979 -26.250077 z M 168.49979 -40.24974 A 5.7500005 5.7499986 0 0 1 174.24983 -45.999776 A 5.7500005 5.7499986 0 0 1 179.99987 -40.24974 A 5.7500005 5.7499986 0 0 1 174.24983 -34.50022 A 5.7500005 5.7499986 0 0 1 168.49979 -40.24974 z M 168.49979 -54.249919 A 5.7500005 5.7500005 0 0 1 174.24983 -59.999955 A 5.7500005 5.7500005 0 0 1 179.99987 -54.249919 A 5.7500005 5.7500005 0 0 1 174.24983 -48.499882 A 5.7500005 5.7500005 0 0 1 168.49979 -54.249919 z M 168.49979 -68.250098 A 5.7500005 5.7499967 0 0 1 174.24983 -74.000134 A 5.7500005 5.7499967 0 0 1 179.99987 -68.250098 A 5.7500005 5.7499967 0 0 1 174.24983 -62.500061 A 5.7500005 5.7499967 0 0 1 168.49979 -68.250098 z M 168.49979 -82.24976 A 5.7500005 5.7499967 0 0 1 174.24983 -87.999797 A 5.7500005 5.7499967 0 0 1 179.99987 -82.24976 A 5.7500005 5.7499967 0 0 1 174.24983 -76.50024 A 5.7500005 5.7499967 0 0 1 168.49979 -82.24976 z M 168.49979 -96.249939 A 5.7500005 5.7499967 0 0 1 174.24983 -101.99998 A 5.7500005 5.7499967 0 0 1 179.99987 -96.249939 A 5.7500005 5.7499967 0 0 1 174.24983 -90.499902 A 5.7500005 5.7499967 0 0 1 168.49979 -96.249939 z M 168.49979 -110.25012 A 5.7500005 5.7500005 0 0 1 174.24983 -116.00015 A 5.7500005 5.7500005 0 0 1 179.99987 -110.25012 A 5.7500005 5.7500005 0 0 1 174.24983 -104.50008 A 5.7500005 5.7500005 0 0 1 168.49979 -110.25012 z M 168.49979 -124.24978 A 5.7500005 5.7500005 0 0 1 174.24983 -129.99982 A 5.7500005 5.7500005 0 0 1 179.99987 -124.24978 A 5.7500005 5.7500005 0 0 1 174.24983 -118.49974 A 5.7500005 5.7500005 0 0 1 168.49979 -124.24978 z M 168.49979 -138.24996 A 5.7500005 5.7500005 0 0 1 174.24983 -144 A 5.7500005 5.7500005 0 0 1 179.99987 -138.24996 A 5.7500005 5.7500005 0 0 1 174.24983 -132.49992 A 5.7500005 5.7500005 0 0 1 168.49979 -138.24996 z M 196.50015 -12.249898 A 5.7500005 5.7500005 0 0 1 202.25019 -17.999935 A 5.7500005 5.7500005 0 0 1 208.00022 -12.249898 A 5.7500005 5.7500005 0 0 1 202.25019 -6.4998617 A 5.7500005 5.7500005 0 0 1 196.50015 -12.249898 z M 196.50015 -26.250077 A 5.7500005 5.7499967 0 0 1 202.25019 -32.000114 A 5.7500005 5.7499967 0 0 1 208.00022 -26.250077 A 5.7500005 5.7499967 0 0 1 202.25019 -20.500041 A 5.7500005 5.7499967 0 0 1 196.50015 -26.250077 z M 196.50015 -40.24974 A 5.7500005 5.7499986 0 0 1 202.25019 -45.999776 A 5.7500005 5.7499986 0 0 1 208.00022 -40.24974 A 5.7500005 5.7499986 0 0 1 202.25019 -34.50022 A 5.7500005 5.7499986 0 0 1 196.50015 -40.24974 z M 196.50015 -54.249919 A 5.7500005 5.7500005 0 0 1 202.25019 -59.999955 A 5.7500005 5.7500005 0 0 1 208.00022 -54.249919 A 5.7500005 5.7500005 0 0 1 202.25019 -48.499882 A 5.7500005 5.7500005 0 0 1 196.50015 -54.249919 z M 196.50015 -68.250098 A 5.7500005 5.7499967 0 0 1 202.25019 -74.000134 A 5.7500005 5.7499967 0 0 1 208.00022 -68.250098 A 5.7500005 5.7499967 0 0 1 202.25019 -62.500061 A 5.7500005 5.7499967 0 0 1 196.50015 -68.250098 z M 196.50015 -82.24976 A 5.7500005 5.7499967 0 0 1 202.25019 -87.999797 A 5.7500005 5.7499967 0 0 1 208.00022 -82.24976 A 5.7500005 5.7499967 0 0 1 202.25019 -76.50024 A 5.7500005 5.7499967 0 0 1 196.50015 -82.24976 z M 196.50015 -96.249939 A 5.7500005 5.7499967 0 0 1 202.25019 -101.99998 A 5.7500005 5.7499967 0 0 1 208.00022 -96.249939 A 5.7500005 5.7499967 0 0 1 202.25019 -90.499902 A 5.7500005 5.7499967 0 0 1 196.50015 -96.249939 z M 196.50015 -110.25012 A 5.7500005 5.7500005 0 0 1 202.25019 -116.00015 A 5.7500005 5.7500005 0 0 1 208.00022 -110.25012 A 5.7500005 5.7500005 0 0 1 202.25019 -104.50008 A 5.7500005 5.7500005 0 0 1 196.50015 -110.25012 z M 196.50015 -124.24978 A 5.7500005 5.7500005 0 0 1 202.25019 -129.99982 A 5.7500005 5.7500005 0 0 1 208.00022 -124.24978 A 5.7500005 5.7500005 0 0 1 202.25019 -118.49974 A 5.7500005 5.7500005 0 0 1 196.50015 -124.24978 z M 196.50015 -138.24996 A 5.7500005 5.7500005 0 0 1 202.25019 -144 A 5.7500005 5.7500005 0 0 1 208.00022 -138.24996 A 5.7500005 5.7500005 0 0 1 202.25019 -132.49992 A 5.7500005 5.7500005 0 0 1 196.50015 -138.24996 z M 224.49999 -12.249898 A 5.7500005 5.7500005 0 0 1 230.25003 -17.999935 A 5.7500005 5.7500005 0 0 1 236.00007 -12.249898 A 5.7500005 5.7500005 0 0 1 230.25003 -6.4998617 A 5.7500005 5.7500005 0 0 1 224.49999 -12.249898 z M 224.49999 -26.250077 A 5.7500005 5.7499967 0 0 1 230.25003 -32.000114 A 5.7500005 5.7499967 0 0 1 236.00007 -26.250077 A 5.7500005 5.7499967 0 0 1 230.25003 -20.500041 A 5.7500005 5.7499967 0 0 1 224.49999 -26.250077 z M 224.49999 -40.24974 A 5.7500005 5.7499986 0 0 1 230.25003 -45.999776 A 5.7500005 5.7499986 0 0 1 236.00007 -40.24974 A 5.7500005 5.7499986 0 0 1 230.25003 -34.50022 A 5.7500005 5.7499986 0 0 1 224.49999 -40.24974 z M 224.49999 -54.249919 A 5.7500005 5.7500005 0 0 1 230.25003 -59.999955 A 5.7500005 5.7500005 0 0 1 236.00007 -54.249919 A 5.7500005 5.7500005 0 0 1 230.25003 -48.499882 A 5.7500005 5.7500005 0 0 1 224.49999 -54.249919 z M 224.49999 -68.250098 A 5.7500005 5.7499967 0 0 1 230.25003 -74.000134 A 5.7500005 5.7499967 0 0 1 236.00007 -68.250098 A 5.7500005 5.7499967 0 0 1 230.25003 -62.500061 A 5.7500005 5.7499967 0 0 1 224.49999 -68.250098 z M 224.49999 -82.24976 A 5.7500005 5.7499967 0 0 1 230.25003 -87.999797 A 5.7500005 5.7499967 0 0 1 236.00007 -82.24976 A 5.7500005 5.7499967 0 0 1 230.25003 -76.50024 A 5.7500005 5.7499967 0 0 1 224.49999 -82.24976 z M 224.49999 -96.249939 A 5.7500005 5.7499967 0 0 1 230.25003 -101.99998 A 5.7500005 5.7499967 0 0 1 236.00007 -96.249939 A 5.7500005 5.7499967 0 0 1 230.25003 -90.499902 A 5.7500005 5.7499967 0 0 1 224.49999 -96.249939 z M 224.49999 -110.25012 A 5.7500005 5.7500005 0 0 1 230.25003 -116.00015 A 5.7500005 5.7500005 0 0 1 236.00007 -110.25012 A 5.7500005 5.7500005 0 0 1 230.25003 -104.50008 A 5.7500005 5.7500005 0 0 1 224.49999 -110.25012 z M 224.49999 -124.24978 A 5.7500005 5.7500005 0 0 1 230.25003 -129.99982 A 5.7500005 5.7500005 0 0 1 236.00007 -124.24978 A 5.7500005 5.7500005 0 0 1 230.25003 -118.49974 A 5.7500005 5.7500005 0 0 1 224.49999 -124.24978 z M 224.49999 -138.24996 A 5.7500005 5.7500005 0 0 1 230.25003 -144 A 5.7500005 5.7500005 0 0 1 236.00007 -138.24996 A 5.7500005 5.7500005 0 0 1 230.25003 -132.49992 A 5.7500005 5.7500005 0 0 1 224.49999 -138.24996 z M 252.49983 -12.249898 A 5.7500005 5.7500005 0 0 1 258.24987 -17.999935 A 5.7500005 5.7500005 0 0 1 263.99991 -12.249898 A 5.7500005 5.7500005 0 0 1 258.24987 -6.4998617 A 5.7500005 5.7500005 0 0 1 252.49983 -12.249898 z M 252.49983 -26.250077 A 5.7500005 5.7499967 0 0 1 258.24987 -32.000114 A 5.7500005 5.7499967 0 0 1 263.99991 -26.250077 A 5.7500005 5.7499967 0 0 1 258.24987 -20.500041 A 5.7500005 5.7499967 0 0 1 252.49983 -26.250077 z M 252.49983 -40.24974 A 5.7500005 5.7499986 0 0 1 258.24987 -45.999776 A 5.7500005 5.7499986 0 0 1 263.99991 -40.24974 A 5.7500005 5.7499986 0 0 1 258.24987 -34.50022 A 5.7500005 5.7499986 0 0 1 252.49983 -40.24974 z M 252.49983 -54.249919 A 5.7500005 5.7500005 0 0 1 258.24987 -59.999955 A 5.7500005 5.7500005 0 0 1 263.99991 -54.249919 A 5.7500005 5.7500005 0 0 1 258.24987 -48.499882 A 5.7500005 5.7500005 0 0 1 252.49983 -54.249919 z M 252.49983 -68.250098 A 5.7500005 5.7499967 0 0 1 258.24987 -74.000134 A 5.7500005 5.7499967 0 0 1 263.99991 -68.250098 A 5.7500005 5.7499967 0 0 1 258.24987 -62.500061 A 5.7500005 5.7499967 0 0 1 252.49983 -68.250098 z M 252.49983 -82.24976 A 5.7500005 5.7499967 0 0 1 258.24987 -87.999797 A 5.7500005 5.7499967 0 0 1 263.99991 -82.24976 A 5.7500005 5.7499967 0 0 1 258.24987 -76.50024 A 5.7500005 5.7499967 0 0 1 252.49983 -82.24976 z M 252.49983 -96.249939 A 5.7500005 5.7499967 0 0 1 258.24987 -101.99998 A 5.7500005 5.7499967 0 0 1 263.99991 -96.249939 A 5.7500005 5.7499967 0 0 1 258.24987 -90.499902 A 5.7500005 5.7499967 0 0 1 252.49983 -96.249939 z M 252.49983 -110.25012 A 5.7500005 5.7500005 0 0 1 258.24987 -116.00015 A 5.7500005 5.7500005 0 0 1 263.99991 -110.25012 A 5.7500005 5.7500005 0 0 1 258.24987 -104.50008 A 5.7500005 5.7500005 0 0 1 252.49983 -110.25012 z M 252.49983 -124.24978 A 5.7500005 5.7500005 0 0 1 258.24987 -129.99982 A 5.7500005 5.7500005 0 0 1 263.99991 -124.24978 A 5.7500005 5.7500005 0 0 1 258.24987 -118.49974 A 5.7500005 5.7500005 0 0 1 252.49983 -124.24978 z M 252.49983 -138.24996 A 5.7500005 5.7500005 0 0 1 258.24987 -144 A 5.7500005 5.7500005 0 0 1 263.99991 -138.24996 A 5.7500005 5.7500005 0 0 1 258.24987 -132.49992 A 5.7500005 5.7500005 0 0 1 252.49983 -138.24996 z M 280.50019 -12.249898 A 5.7500005 5.7500005 0 0 1 286.25023 -17.999935 A 5.7500005 5.7500005 0 0 1 291.99975 -12.249898 A 5.7500005 5.7500005 0 0 1 286.25023 -6.4998617 A 5.7500005 5.7500005 0 0 1 280.50019 -12.249898 z M 280.50019 -26.250077 A 5.7500005 5.7499967 0 0 1 286.25023 -32.000114 A 5.7500005 5.7499967 0 0 1 291.99975 -26.250077 A 5.7500005 5.7499967 0 0 1 286.25023 -20.500041 A 5.7500005 5.7499967 0 0 1 280.50019 -26.250077 z M 280.50019 -40.24974 A 5.7500005 5.7499986 0 0 1 286.25023 -45.999776 A 5.7500005 5.7499986 0 0 1 291.99975 -40.24974 A 5.7500005 5.7499986 0 0 1 286.25023 -34.50022 A 5.7500005 5.7499986 0 0 1 280.50019 -40.24974 z M 280.50019 -54.249919 A 5.7500005 5.7500005 0 0 1 286.25023 -59.999955 A 5.7500005 5.7500005 0 0 1 291.99975 -54.249919 A 5.7500005 5.7500005 0 0 1 286.25023 -48.499882 A 5.7500005 5.7500005 0 0 1 280.50019 -54.249919 z M 280.50019 -68.250098 A 5.7500005 5.7499967 0 0 1 286.25023 -74.000134 A 5.7500005 5.7499967 0 0 1 291.99975 -68.250098 A 5.7500005 5.7499967 0 0 1 286.25023 -62.500061 A 5.7500005 5.7499967 0 0 1 280.50019 -68.250098 z M 280.50019 -82.24976 A 5.7500005 5.7499967 0 0 1 286.25023 -87.999797 A 5.7500005 5.7499967 0 0 1 291.99975 -82.24976 A 5.7500005 5.7499967 0 0 1 286.25023 -76.50024 A 5.7500005 5.7499967 0 0 1 280.50019 -82.24976 z M 280.50019 -96.249939 A 5.7500005 5.7499967 0 0 1 286.25023 -101.99998 A 5.7500005 5.7499967 0 0 1 291.99975 -96.249939 A 5.7500005 5.7499967 0 0 1 286.25023 -90.499902 A 5.7500005 5.7499967 0 0 1 280.50019 -96.249939 z M 280.50019 -110.25012 A 5.7500005 5.7500005 0 0 1 286.25023 -116.00015 A 5.7500005 5.7500005 0 0 1 291.99975 -110.25012 A 5.7500005 5.7500005 0 0 1 286.25023 -104.50008 A 5.7500005 5.7500005 0 0 1 280.50019 -110.25012 z M 280.50019 -124.24978 A 5.7500005 5.7500005 0 0 1 286.25023 -129.99982 A 5.7500005 5.7500005 0 0 1 291.99975 -124.24978 A 5.7500005 5.7500005 0 0 1 286.25023 -118.49974 A 5.7500005 5.7500005 0 0 1 280.50019 -124.24978 z M 280.50019 -138.24996 A 5.7500005 5.7500005 0 0 1 286.25023 -144 A 5.7500005 5.7500005 0 0 1 291.99975 -138.24996 A 5.7500005 5.7500005 0 0 1 286.25023 -132.49992 A 5.7500005 5.7500005 0 0 1 280.50019 -138.24996 z "
       transform="rotate(90)" />
  </g>
</svg>
