<?xml version="1.0" encoding="UTF-8" standalone="no"?>
<!-- Created with Inkscape (http://www.inkscape.org/) -->

<svg
   width="210mm"
   height="297mm"
   viewBox="0 0 210 297"
   version="1.1"
   id="svg5"
   inkscape:version="1.2.2 (732a01da63, 2022-12-09)"
   sodipodi:docname="Mat_Bottle_sized.svg"
   xmlns:inkscape="http://www.inkscape.org/namespaces/inkscape"
   xmlns:sodipodi="http://sodipodi.sourceforge.net/DTD/sodipodi-0.dtd"
   xmlns="http://www.w3.org/2000/svg"
   xmlns:svg="http://www.w3.org/2000/svg">
  <sodipodi:namedview
     id="namedview7"
     pagecolor="#ffffff"
     bordercolor="#666666"
     borderopacity="1.0"
     inkscape:showpageshadow="2"
     inkscape:pageopacity="0.0"
     inkscape:pagecheckerboard="0"
     inkscape:deskcolor="#d1d1d1"
     inkscape:document-units="mm"
     showgrid="false"
     inkscape:zoom="1.4503087"
     inkscape:rotation="90"
     inkscape:cx="299.5914"
     inkscape:cy="717.43348"
     inkscape:window-width="2400"
     inkscape:window-height="1271"
     inkscape:window-x="2391"
     inkscape:window-y="-9"
     inkscape:window-maximized="1"
     inkscape:current-layer="layer1"
     showguides="false">
    <inkscape:grid
       type="xygrid"
       id="grid347" />
  </sodipodi:namedview>
  <defs
     id="defs2" />
  <g
     inkscape:label="Ebene 1"
     inkscape:groupmode="layer"
     id="layer1">
    <path
       id="rect111"
       style="fill:none;fill-rule:evenodd;stroke:#000000;stroke-width:0.5;stroke-dasharray:none;stroke-opacity:1"
       d="M 37.249923 -0.25011393 L 41.250195 -0.25011393 L 41.250195 -68.749809 L 56.270467 -68.749809 A 6.0000204 6.0000444 0 0 1 62.24943 -74.250248 A 6.0000204 6.0000444 0 0 1 68.249581 -68.250098 A 6.0000204 6.0000444 0 0 1 62.24943 -62.249947 A 6.0000204 6.0000444 0 0 1 56.336613 -67.250159 L 42.750362 -67.250159 L 42.750362 -0.25011393 L 44.250012 -0.25011393 L 44.250012 -54.750146 L 56.270984 -54.750146 A 6.0000204 6.0000444 0 0 1 62.24943 -60.250069 A 6.0000204 6.0000444 0 0 1 68.249581 -54.249919 A 6.0000204 6.0000444 0 0 1 62.24943 -48.249251 A 6.0000204 6.0000444 0 0 1 56.336613 -53.24998 L 45.750179 -53.24998 L 45.750179 -0.25011393 L 47.249829 -0.25011393 L 47.249829 -40.749967 L 56.270984 -40.749967 A 6.0000204 6.0000444 0 0 1 62.24943 -46.249373 A 6.0000204 6.0000444 0 0 1 68.249581 -40.24974 A 6.0000204 6.0000444 0 0 1 62.24943 -34.249589 A 6.0000204 6.0000444 0 0 1 56.336613 -39.249801 L 48.749996 -39.249801 L 48.749996 -0.25011393 L 50.250163 -0.25011393 L 50.250163 -26.749788 L 56.270984 -26.749788 A 6.0000204 6.0000444 0 0 1 62.24943 -32.249711 A 6.0000204 6.0000444 0 0 1 68.249581 -26.249561 A 6.0000204 6.0000444 0 0 1 62.24943 -20.24941 A 6.0000204 6.0000444 0 0 1 56.336096 -25.250138 L 51.749813 -25.250138 L 51.749813 -0.25011393 L 53.24998 -0.25011393 L 53.24998 -12.750126 L 56.270984 -12.750126 A 6.0000204 6.0000444 0 0 1 62.24943 -18.249532 A 6.0000204 6.0000444 0 0 1 68.249581 -12.249382 A 6.0000204 6.0000444 0 0 1 62.24943 -6.249231 A 6.0000204 6.0000444 0 0 1 56.336613 -11.249959 L 54.750146 -11.249959 L 54.750146 -0.25011393 L 69.250037 -0.25011393 L 69.250037 -68.749809 L 84.270308 -68.749809 A 6.0000204 6.0000444 0 0 1 90.249272 -74.250248 A 6.0000204 6.0000444 0 0 1 96.249422 -68.250098 A 6.0000204 6.0000444 0 0 1 90.249272 -62.249947 A 6.0000204 6.0000444 0 0 1 84.336454 -67.250159 L 70.750203 -67.250159 L 70.750203 -0.25011393 L 72.249854 -0.25011393 L 72.249854 -54.750146 L 84.270825 -54.750146 A 6.0000204 6.0000444 0 0 1 90.249272 -60.250069 A 6.0000204 6.0000444 0 0 1 96.249422 -54.249919 A 6.0000204 6.0000444 0 0 1 90.249272 -48.249251 A 6.0000204 6.0000444 0 0 1 84.336454 -53.24998 L 73.75002 -53.24998 L 73.75002 -0.25011393 L 75.24967 -0.25011393 L 75.24967 -40.749967 L 84.270825 -40.749967 A 6.0000204 6.0000444 0 0 1 90.249272 -46.249373 A 6.0000204 6.0000444 0 0 1 96.249422 -40.24974 A 6.0000204 6.0000444 0 0 1 90.249272 -34.249589 A 6.0000204 6.0000444 0 0 1 84.336454 -39.249801 L 76.749837 -39.249801 L 76.749837 -0.25011393 L 78.250004 -0.25011393 L 78.250004 -26.749788 L 84.270825 -26.749788 A 6.0000204 6.0000444 0 0 1 90.249272 -32.249711 A 6.0000204 6.0000444 0 0 1 96.249422 -26.249561 A 6.0000204 6.0000444 0 0 1 90.249272 -20.24941 A 6.0000204 6.0000444 0 0 1 84.336454 -25.250138 L 79.749654 -25.250138 L 79.749654 -0.25011393 L 81.249821 -0.25011393 L 81.249821 -12.750126 L 84.270825 -12.750126 A 6.0000204 6.0000444 0 0 1 90.249272 -18.249532 A 6.0000204 6.0000444 0 0 1 96.249422 -12.249382 A 6.0000204 6.0000444 0 0 1 90.249272 -6.249231 A 6.0000204 6.0000444 0 0 1 84.336454 -11.249959 L 82.749988 -11.249959 L 82.749988 -0.25011393 L 97.249878 -0.25011393 L 97.249878 -68.749809 L 112.27067 -68.749809 A 6.0000204 6.0000444 0 0 1 118.24963 -74.250248 A 6.0000204 6.0000444 0 0 1 124.24926 -68.250098 A 6.0000204 6.0000444 0 0 1 118.24963 -62.249947 A 6.0000204 6.0000444 0 0 1 112.33681 -67.250159 L 98.750045 -67.250159 L 98.750045 -0.25011393 L 100.24969 -0.25011393 L 100.24969 -54.750146 L 112.27118 -54.750146 A 6.0000204 6.0000444 0 0 1 118.24963 -60.250069 A 6.0000204 6.0000444 0 0 1 124.24926 -54.249919 A 6.0000204 6.0000444 0 0 1 118.24963 -48.249251 A 6.0000204 6.0000444 0 0 1 112.33681 -53.24998 L 101.74986 -53.24998 L 101.74986 -0.25011393 L 103.25003 -0.25011393 L 103.25003 -40.749967 L 112.27118 -40.749967 A 6.0000204 6.0000444 0 0 1 118.24963 -46.249373 A 6.0000204 6.0000444 0 0 1 124.24926 -40.24974 A 6.0000204 6.0000444 0 0 1 118.24963 -34.249589 A 6.0000204 6.0000444 0 0 1 112.33681 -39.249801 L 104.74968 -39.249801 L 104.74968 -0.25011393 L 106.24985 -0.25011393 L 106.24985 -26.749788 L 112.27118 -26.749788 A 6.0000204 6.0000444 0 0 1 118.24963 -32.249711 A 6.0000204 6.0000444 0 0 1 124.24926 -26.249561 A 6.0000204 6.0000444 0 0 1 118.24963 -20.24941 A 6.0000204 6.0000444 0 0 1 112.3363 -25.250138 L 107.75001 -25.250138 L 107.75001 -0.25011393 L 109.24966 -0.25011393 L 109.24966 -12.750126 L 112.27118 -12.750126 A 6.0000204 6.0000444 0 0 1 118.24963 -18.249532 A 6.0000204 6.0000444 0 0 1 124.24926 -12.249382 A 6.0000204 6.0000444 0 0 1 118.24963 -6.249231 A 6.0000204 6.0000444 0 0 1 112.33681 -11.249959 L 110.74983 -11.249959 L 110.74983 -0.25011393 L 125.24972 -0.25011393 L 125.24972 -68.749809 L 140.27051 -68.749809 A 6.0000204 6.0000444 0 0 1 146.24947 -74.250248 A 6.0000204 6.0000444 0 0 1 152.24962 -68.250098 A 6.0000204 6.0000444 0 0 1 146.24947 -62.249947 A 6.0000204 6.0000444 0 0 1 140.33665 -67.250159 L 126.74989 -67.250159 L 126.74989 -0.25011393 L 128.24954 -0.25011393 L 128.24954 -54.750146 L 140.27102 -54.750146 A 6.0000204 6.0000444 0 0 1 146.24947 -60.250069 A 6.0000204 6.0000444 0 0 1 152.24962 -54.249919 A 6.0000204 6.0000444 0 0 1 146.24947 -48.249251 A 6.0000204 6.0000444 0 0 1 140.33665 -53.24998 L 129.7497 -53.24998 L 129.7497 -0.25011393 L 131.24987 -0.25011393 L 131.24987 -40.749967 L 140.27102 -40.749967 A 6.0000204 6.0000444 0 0 1 146.24947 -46.249373 A 6.0000204 6.0000444 0 0 1 152.24962 -40.24974 A 6.0000204 6.0000444 0 0 1 146.24947 -34.249589 A 6.0000204 6.0000444 0 0 1 140.33665 -39.249801 L 132.74952 -39.249801 L 132.74952 -0.25011393 L 134.24969 -0.25011393 L 134.24969 -26.749788 L 140.27102 -26.749788 A 6.0000204 6.0000444 0 0 1 146.24947 -32.249711 A 6.0000204 6.0000444 0 0 1 152.24962 -26.249561 A 6.0000204 6.0000444 0 0 1 146.24947 -20.24941 A 6.0000204 6.0000444 0 0 1 140.33614 -25.250138 L 135.74985 -25.250138 L 135.74985 -0.25011393 L 137.2495 -0.25011393 L 137.2495 -12.750126 L 140.27102 -12.750126 A 6.0000204 6.0000444 0 0 1 146.24947 -18.249532 A 6.0000204 6.0000444 0 0 1 152.24962 -12.249382 A 6.0000204 6.0000444 0 0 1 146.24947 -6.249231 A 6.0000204 6.0000444 0 0 1 140.33665 -11.249959 L 138.74967 -11.249959 L 138.74967 -0.25011393 L 153.24956 -0.25011393 L 153.24956 -68.749809 L 168.27035 -68.749809 A 6.0000204 6.0000444 0 0 1 174.24931 -74.250248 A 6.0000204 6.0000444 0 0 1 180.24998 -68.250098 A 6.0000204 6.0000444 0 0 1 174.24931 -62.249947 A 6.0000204 6.0000444 0 0 1 168.33649 -67.250159 L 154.74973 -67.250159 L 154.74973 -0.25011393 L 156.24938 -0.25011393 L 156.24938 -54.750146 L 168.27087 -54.750146 A 6.0000204 6.0000444 0 0 1 174.24931 -60.250069 A 6.0000204 6.0000444 0 0 1 180.24998 -54.249919 A 6.0000204 6.0000444 0 0 1 174.24931 -48.249251 A 6.0000204 6.0000444 0 0 1 168.33649 -53.24998 L 157.74954 -53.24998 L 157.74954 -0.25011393 L 159.24971 -0.25011393 L 159.24971 -40.749967 L 168.27087 -40.749967 A 6.0000204 6.0000444 0 0 1 174.24931 -46.249373 A 6.0000204 6.0000444 0 0 1 180.24998 -40.24974 A 6.0000204 6.0000444 0 0 1 174.24931 -34.249589 A 6.0000204 6.0000444 0 0 1 168.33649 -39.249801 L 160.74936 -39.249801 L 160.74936 -0.25011393 L 162.24953 -0.25011393 L 162.24953 -26.749788 L 168.27087 -26.749788 A 6.0000204 6.0000444 0 0 1 174.24931 -32.249711 A 6.0000204 6.0000444 0 0 1 180.24998 -26.249561 A 6.0000204 6.0000444 0 0 1 174.24931 -20.24941 A 6.0000204 6.0000444 0 0 1 168.33649 -25.250138 L 163.74969 -25.250138 L 163.74969 -0.25011393 L 165.24934 -0.25011393 L 165.24934 -12.750126 L 168.27087 -12.750126 A 6.0000204 6.0000444 0 0 1 174.24931 -18.249532 A 6.0000204 6.0000444 0 0 1 180.24998 -12.249382 A 6.0000204 6.0000444 0 0 1 174.24931 -6.249231 A 6.0000204 6.0000444 0 0 1 168.33649 -11.249959 L 166.74951 -11.249959 L 166.74951 -0.25011393 L 181.24992 -0.25011393 L 181.24992 -68.749809 L 196.27122 -68.749809 A 6.0000204 6.0000444 0 0 1 202.25019 -74.250248 A 6.0000204 6.0000444 0 0 1 208.24982 -68.250098 A 6.0000204 6.0000444 0 0 1 202.25019 -62.249947 A 6.0000204 6.0000444 0 0 1 196.33737 -67.250159 L 182.75009 -67.250159 L 182.75009 -0.25011393 L 184.24974 -0.25011393 L 184.24974 -54.750146 L 196.27122 -54.750146 A 6.0000204 6.0000444 0 0 1 202.25019 -60.250069 A 6.0000204 6.0000444 0 0 1 208.24982 -54.249919 A 6.0000204 6.0000444 0 0 1 202.25019 -48.249251 A 6.0000204 6.0000444 0 0 1 196.33737 -53.24998 L 185.7499 -53.24998 L 185.7499 -0.25011393 L 187.25007 -0.25011393 L 187.25007 -40.749967 L 196.27122 -40.749967 A 6.0000204 6.0000444 0 0 1 202.25019 -46.249373 A 6.0000204 6.0000444 0 0 1 208.24982 -40.24974 A 6.0000204 6.0000444 0 0 1 202.25019 -34.249589 A 6.0000204 6.0000444 0 0 1 196.33737 -39.249801 L 188.74972 -39.249801 L 188.74972 -0.25011393 L 190.24989 -0.25011393 L 190.24989 -26.749788 L 196.27122 -26.749788 A 6.0000204 6.0000444 0 0 1 202.25019 -32.249711 A 6.0000204 6.0000444 0 0 1 208.24982 -26.249561 A 6.0000204 6.0000444 0 0 1 202.25019 -20.24941 A 6.0000204 6.0000444 0 0 1 196.33685 -25.250138 L 191.75005 -25.250138 L 191.75005 -0.25011393 L 193.2497 -0.25011393 L 193.2497 -12.750126 L 196.27122 -12.750126 A 6.0000204 6.0000444 0 0 1 202.25019 -18.249532 A 6.0000204 6.0000444 0 0 1 208.24982 -12.249382 A 6.0000204 6.0000444 0 0 1 202.25019 -6.249231 A 6.0000204 6.0000444 0 0 1 196.33737 -11.249959 L 194.74987 -11.249959 L 194.74987 -0.25011393 L 209.24976 -0.25011393 L 209.24976 -68.749809 L 224.27107 -68.749809 A 6.0000204 6.0000444 0 0 1 230.25003 -74.250248 A 6.0000204 6.0000444 0 0 1 236.25018 -68.250098 A 6.0000204 6.0000444 0 0 1 230.25003 -62.249947 A 6.0000204 6.0000444 0 0 1 224.33721 -67.250159 L 210.74993 -67.250159 L 210.74993 -0.25011393 L 212.24958 -0.25011393 L 212.24958 -54.750146 L 224.27158 -54.750146 A 6.0000204 6.0000444 0 0 1 230.25003 -60.250069 A 6.0000204 6.0000444 0 0 1 236.25018 -54.249919 A 6.0000204 6.0000444 0 0 1 230.25003 -48.249251 A 6.0000204 6.0000444 0 0 1 224.33721 -53.24998 L 213.74974 -53.24998 L 213.74974 -0.25011393 L 215.24991 -0.25011393 L 215.24991 -40.749967 L 224.27158 -40.749967 A 6.0000204 6.0000444 0 0 1 230.25003 -46.249373 A 6.0000204 6.0000444 0 0 1 236.25018 -40.24974 A 6.0000204 6.0000444 0 0 1 230.25003 -34.249589 A 6.0000204 6.0000444 0 0 1 224.33721 -39.249801 L 216.74956 -39.249801 L 216.74956 -0.25011393 L 218.24973 -0.25011393 L 218.24973 -26.749788 L 224.27158 -26.749788 A 6.0000204 6.0000444 0 0 1 230.25003 -32.249711 A 6.0000204 6.0000444 0 0 1 236.25018 -26.249561 A 6.0000204 6.0000444 0 0 1 230.25003 -20.24941 A 6.0000204 6.0000444 0 0 1 224.33669 -25.250138 L 219.74989 -25.250138 L 219.74989 -0.25011393 L 221.24954 -0.25011393 L 221.24954 -12.750126 L 224.27158 -12.750126 A 6.0000204 6.0000444 0 0 1 230.25003 -18.249532 A 6.0000204 6.0000444 0 0 1 236.25018 -12.249382 A 6.0000204 6.0000444 0 0 1 230.25003 -6.249231 A 6.0000204 6.0000444 0 0 1 224.33721 -11.249959 L 222.74971 -11.249959 L 222.74971 -0.25011393 L 237.2496 -0.25011393 L 237.2496 -68.749809 L 252.27091 -68.749809 A 6.0000204 6.0000444 0 0 1 258.24987 -74.250248 A 6.0000204 6.0000444 0 0 1 264.25002 -68.250098 A 6.0000204 6.0000444 0 0 1 258.24987 -62.249947 A 6.0000204 6.0000444 0 0 1 252.33705 -67.250159 L 238.74977 -67.250159 L 238.74977 -0.25011393 L 240.24942 -0.25011393 L 240.24942 -54.750146 L 252.27142 -54.750146 A 6.0000204 6.0000444 0 0 1 258.24987 -60.250069 A 6.0000204 6.0000444 0 0 1 264.25002 -54.249919 A 6.0000204 6.0000444 0 0 1 258.24987 -48.249251 A 6.0000204 6.0000444 0 0 1 252.33705 -53.24998 L 241.74958 -53.24998 L 241.74958 -0.25011393 L 243.24975 -0.25011393 L 243.24975 -40.749967 L 252.27142 -40.749967 A 6.0000204 6.0000444 0 0 1 258.24987 -46.249373 A 6.0000204 6.0000444 0 0 1 264.25002 -40.24974 A 6.0000204 6.0000444 0 0 1 258.24987 -34.249589 A 6.0000204 6.0000444 0 0 1 252.33705 -39.249801 L 244.7494 -39.249801 L 244.7494 -0.25011393 L 246.24957 -0.25011393 L 246.24957 -26.749788 L 252.27142 -26.749788 A 6.0000204 6.0000444 0 0 1 258.24987 -32.249711 A 6.0000204 6.0000444 0 0 1 264.25002 -26.249561 A 6.0000204 6.0000444 0 0 1 258.24987 -20.24941 A 6.0000204 6.0000444 0 0 1 252.33705 -25.250138 L 247.74974 -25.250138 L 247.74974 -0.25011393 L 249.24939 -0.25011393 L 249.24939 -12.750126 L 252.27142 -12.750126 A 6.0000204 6.0000444 0 0 1 258.24987 -18.249532 A 6.0000204 6.0000444 0 0 1 264.25002 -12.249382 A 6.0000204 6.0000444 0 0 1 258.24987 -6.249231 A 6.0000204 6.0000444 0 0 1 252.33705 -11.249959 L 250.74955 -11.249959 L 250.74955 -0.25011393 L 265.24944 -0.25011393 L 265.24944 -68.749809 L 280.27075 -68.749809 A 6.0000204 6.0000444 0 0 1 286.25023 -74.250248 A 6.0000204 6.0000444 0 0 1 292.24986 -68.250098 A 6.0000204 6.0000444 0 0 1 286.25023 -62.249947 A 6.0000204 6.0000444 0 0 1 280.33741 -67.250159 L 266.74961 -67.250159 L 266.74961 -0.25011393 L 268.24926 -0.25011393 L 268.24926 -54.750146 L 280.27126 -54.750146 A 6.0000204 6.0000444 0 0 1 286.25023 -60.250069 A 6.0000204 6.0000444 0 0 1 292.24986 -54.249919 A 6.0000204 6.0000444 0 0 1 286.25023 -48.249251 A 6.0000204 6.0000444 0 0 1 280.33741 -53.24998 L 269.74943 -53.24998 L 269.74943 -0.25011393 L 271.24959 -0.25011393 L 271.24959 -40.749967 L 280.27126 -40.749967 A 6.0000204 6.0000444 0 0 1 286.25023 -46.249373 A 6.0000204 6.0000444 0 0 1 292.24986 -40.24974 A 6.0000204 6.0000444 0 0 1 286.25023 -34.249589 A 6.0000204 6.0000444 0 0 1 280.33741 -39.249801 L 272.74924 -39.249801 L 272.74924 -0.25011393 L 274.24941 -0.25011393 L 274.24941 -26.749788 L 280.27126 -26.749788 A 6.0000204 6.0000444 0 0 1 286.25023 -32.249711 A 6.0000204 6.0000444 0 0 1 292.24986 -26.249561 A 6.0000204 6.0000444 0 0 1 286.25023 -20.24941 A 6.0000204 6.0000444 0 0 1 280.33689 -25.250138 L 275.74958 -25.250138 L 275.74958 -0.25011393 L 277.24923 -0.25011393 L 277.24923 -12.750126 L 280.27126 -12.750126 A 6.0000204 6.0000444 0 0 1 286.25023 -18.249532 A 6.0000204 6.0000444 0 0 1 292.24986 -12.249382 A 6.0000204 6.0000444 0 0 1 286.25023 -6.249231 A 6.0000204 6.0000444 0 0 1 280.33741 -11.249959 L 278.74939 -11.249959 L 278.74939 -0.25011393 L 296.74985 -0.25011393 L 296.74985 -149.75003 L 278.74939 -149.75003 L 278.74939 -138.75019 L 280.27075 -138.75019 A 6.0000204 6.0000444 0 0 1 286.25023 -144.25063 A 6.0000204 6.0000444 0 0 1 292.24986 -138.25048 A 6.0000204 6.0000444 0 0 1 286.25023 -132.25033 A 6.0000204 6.0000444 0 0 1 280.33741 -137.25002 L 278.74939 -137.25002 L 277.24923 -137.25002 L 277.24923 -138.75019 L 277.24923 -149.75003 L 275.74958 -149.75003 L 275.74958 -124.75001 L 280.27075 -124.75001 A 6.0000204 6.0000444 0 0 1 286.25023 -130.25045 A 6.0000204 6.0000444 0 0 1 292.24986 -124.2503 A 6.0000204 6.0000444 0 0 1 286.25023 -118.25015 A 6.0000204 6.0000444 0 0 1 280.33741 -123.24984 L 275.74958 -123.24984 L 274.24941 -123.24984 L 274.24941 -124.75001 L 274.24941 -149.75003 L 272.74924 -149.75003 L 272.74924 -110.74983 L 280.27075 -110.74983 A 6.0000204 6.0000444 0 0 1 286.25023 -116.24975 A 6.0000204 6.0000444 0 0 1 292.24986 -110.25012 A 6.0000204 6.0000444 0 0 1 286.25023 -104.24997 A 6.0000204 6.0000444 0 0 1 280.33741 -109.24966 L 272.74924 -109.24966 L 271.24959 -109.24966 L 271.24959 -110.74983 L 271.24959 -149.75003 L 269.74943 -149.75003 L 269.74943 -96.74965 L 280.27075 -96.74965 A 6.0000204 6.0000444 0 0 1 286.25023 -102.25009 A 6.0000204 6.0000444 0 0 1 292.24986 -96.249939 A 6.0000204 6.0000444 0 0 1 286.25023 -90.249788 A 6.0000204 6.0000444 0 0 1 280.33741 -95.25 L 269.74943 -95.25 L 268.24926 -95.25 L 268.24926 -96.74965 L 268.24926 -149.75003 L 266.74961 -149.75003 L 266.74961 -82.749988 L 280.27075 -82.749988 A 6.0000204 6.0000444 0 0 1 286.25023 -88.24991 A 6.0000204 6.0000444 0 0 1 292.24986 -82.24976 A 6.0000204 6.0000444 0 0 1 286.25023 -76.250126 A 6.0000204 6.0000444 0 0 1 280.33741 -81.249821 L 265.24944 -81.249821 L 265.24944 -82.749988 L 265.24944 -149.75003 L 250.74955 -149.75003 L 250.74955 -138.75019 L 252.27091 -138.75019 A 6.0000204 6.0000444 0 0 1 258.24987 -144.25063 A 6.0000204 6.0000444 0 0 1 264.25002 -138.25048 A 6.0000204 6.0000444 0 0 1 258.24987 -132.25033 A 6.0000204 6.0000444 0 0 1 252.33705 -137.25002 L 250.74955 -137.25002 L 249.24939 -137.25002 L 249.24939 -138.75019 L 249.24939 -149.75003 L 247.74974 -149.75003 L 247.74974 -124.75001 L 252.27091 -124.75001 A 6.0000204 6.0000444 0 0 1 258.24987 -130.25045 A 6.0000204 6.0000444 0 0 1 264.25002 -124.2503 A 6.0000204 6.0000444 0 0 1 258.24987 -118.25015 A 6.0000204 6.0000444 0 0 1 252.33705 -123.24984 L 247.74974 -123.24984 L 246.24957 -123.24984 L 246.24957 -124.75001 L 246.24957 -149.75003 L 244.7494 -149.75003 L 244.7494 -110.74983 L 252.27091 -110.74983 A 6.0000204 6.0000444 0 0 1 258.24987 -116.24975 A 6.0000204 6.0000444 0 0 1 264.25002 -110.25012 A 6.0000204 6.0000444 0 0 1 258.24987 -104.24997 A 6.0000204 6.0000444 0 0 1 252.33705 -109.24966 L 244.7494 -109.24966 L 243.24975 -109.24966 L 243.24975 -110.74983 L 243.24975 -149.75003 L 241.74958 -149.75003 L 241.74958 -96.74965 L 252.27091 -96.74965 A 6.0000204 6.0000444 0 0 1 258.24987 -102.25009 A 6.0000204 6.0000444 0 0 1 264.25002 -96.249939 A 6.0000204 6.0000444 0 0 1 258.24987 -90.249788 A 6.0000204 6.0000444 0 0 1 252.33705 -95.25 L 241.74958 -95.25 L 240.24942 -95.25 L 240.24942 -96.74965 L 240.24942 -149.75003 L 238.74977 -149.75003 L 238.74977 -82.749988 L 252.27091 -82.749988 A 6.0000204 6.0000444 0 0 1 258.24987 -88.24991 A 6.0000204 6.0000444 0 0 1 264.25002 -82.24976 A 6.0000204 6.0000444 0 0 1 258.24987 -76.250126 A 6.0000204 6.0000444 0 0 1 252.33705 -81.249821 L 237.2496 -81.249821 L 237.2496 -82.749988 L 237.2496 -149.75003 L 222.74971 -149.75003 L 222.74971 -138.75019 L 224.27107 -138.75019 A 6.0000204 6.0000444 0 0 1 230.25003 -144.25063 A 6.0000204 6.0000444 0 0 1 236.25018 -138.25048 A 6.0000204 6.0000444 0 0 1 230.25003 -132.25033 A 6.0000204 6.0000444 0 0 1 224.33721 -137.25002 L 222.74971 -137.25002 L 221.24954 -137.25002 L 221.24954 -138.75019 L 221.24954 -149.75003 L 219.74989 -149.75003 L 219.74989 -124.75001 L 224.27107 -124.75001 A 6.0000204 6.0000444 0 0 1 230.25003 -130.25045 A 6.0000204 6.0000444 0 0 1 236.25018 -124.2503 A 6.0000204 6.0000444 0 0 1 230.25003 -118.25015 A 6.0000204 6.0000444 0 0 1 224.33721 -123.24984 L 219.74989 -123.24984 L 218.24973 -123.24984 L 218.24973 -124.75001 L 218.24973 -149.75003 L 216.74956 -149.75003 L 216.74956 -110.74983 L 224.27107 -110.74983 A 6.0000204 6.0000444 0 0 1 230.25003 -116.24975 A 6.0000204 6.0000444 0 0 1 236.25018 -110.25012 A 6.0000204 6.0000444 0 0 1 230.25003 -104.24997 A 6.0000204 6.0000444 0 0 1 224.33721 -109.24966 L 216.74956 -109.24966 L 215.24991 -109.24966 L 215.24991 -110.74983 L 215.24991 -149.75003 L 213.74974 -149.75003 L 213.74974 -96.74965 L 224.27107 -96.74965 A 6.0000204 6.0000444 0 0 1 230.25003 -102.25009 A 6.0000204 6.0000444 0 0 1 236.25018 -96.249939 A 6.0000204 6.0000444 0 0 1 230.25003 -90.249788 A 6.0000204 6.0000444 0 0 1 224.33721 -95.25 L 213.74974 -95.25 L 212.24958 -95.25 L 212.24958 -96.74965 L 212.24958 -149.75003 L 210.74993 -149.75003 L 210.74993 -82.749988 L 224.27107 -82.749988 A 6.0000204 6.0000444 0 0 1 230.25003 -88.24991 A 6.0000204 6.0000444 0 0 1 236.25018 -82.24976 A 6.0000204 6.0000444 0 0 1 230.25003 -76.250126 A 6.0000204 6.0000444 0 0 1 224.33721 -81.249821 L 209.24976 -81.249821 L 209.24976 -82.749988 L 209.24976 -149.75003 L 194.74987 -149.75003 L 194.74987 -138.75019 L 196.27122 -138.75019 A 6.0000204 6.0000444 0 0 1 202.25019 -144.25063 A 6.0000204 6.0000444 0 0 1 208.24982 -138.25048 A 6.0000204 6.0000444 0 0 1 202.25019 -132.25033 A 6.0000204 6.0000444 0 0 1 196.33737 -137.25002 L 194.74987 -137.25002 L 193.2497 -137.25002 L 193.2497 -138.75019 L 193.2497 -149.75003 L 191.75005 -149.75003 L 191.75005 -124.75001 L 196.27122 -124.75001 A 6.0000204 6.0000444 0 0 1 202.25019 -130.25045 A 6.0000204 6.0000444 0 0 1 208.24982 -124.2503 A 6.0000204 6.0000444 0 0 1 202.25019 -118.25015 A 6.0000204 6.0000444 0 0 1 196.33737 -123.24984 L 191.75005 -123.24984 L 190.24989 -123.24984 L 190.24989 -124.75001 L 190.24989 -149.75003 L 188.74972 -149.75003 L 188.74972 -110.74983 L 196.27122 -110.74983 A 6.0000204 6.0000444 0 0 1 202.25019 -116.24975 A 6.0000204 6.0000444 0 0 1 208.24982 -110.25012 A 6.0000204 6.0000444 0 0 1 202.25019 -104.24997 A 6.0000204 6.0000444 0 0 1 196.33737 -109.24966 L 188.74972 -109.24966 L 187.25007 -109.24966 L 187.25007 -110.74983 L 187.25007 -149.75003 L 185.7499 -149.75003 L 185.7499 -96.74965 L 196.27122 -96.74965 A 6.0000204 6.0000444 0 0 1 202.25019 -102.25009 A 6.0000204 6.0000444 0 0 1 208.24982 -96.249939 A 6.0000204 6.0000444 0 0 1 202.25019 -90.249788 A 6.0000204 6.0000444 0 0 1 196.33737 -95.25 L 185.7499 -95.25 L 184.24974 -95.25 L 184.24974 -96.74965 L 184.24974 -149.75003 L 182.75009 -149.75003 L 182.75009 -82.749988 L 196.27122 -82.749988 A 6.0000204 6.0000444 0 0 1 202.25019 -88.24991 A 6.0000204 6.0000444 0 0 1 208.24982 -82.24976 A 6.0000204 6.0000444 0 0 1 202.25019 -76.250126 A 6.0000204 6.0000444 0 0 1 196.33737 -81.249821 L 181.24992 -81.249821 L 181.24992 -82.749988 L 181.24992 -149.75003 L 166.74951 -149.75003 L 166.74951 -138.75019 L 168.27035 -138.75019 A 6.0000204 6.0000444 0 0 1 174.24931 -144.25063 A 6.0000204 6.0000444 0 0 1 180.24998 -138.25048 A 6.0000204 6.0000444 0 0 1 174.24931 -132.25033 A 6.0000204 6.0000444 0 0 1 168.33649 -137.25002 L 166.74951 -137.25002 L 165.24934 -137.25002 L 165.24934 -138.75019 L 165.24934 -149.75003 L 163.74969 -149.75003 L 163.74969 -124.75001 L 168.27035 -124.75001 A 6.0000204 6.0000444 0 0 1 174.24931 -130.25045 A 6.0000204 6.0000444 0 0 1 180.24998 -124.2503 A 6.0000204 6.0000444 0 0 1 174.24931 -118.25015 A 6.0000204 6.0000444 0 0 1 168.33649 -123.24984 L 163.74969 -123.24984 L 162.24953 -123.24984 L 162.24953 -124.75001 L 162.24953 -149.75003 L 160.74936 -149.75003 L 160.74936 -110.74983 L 168.27035 -110.74983 A 6.0000204 6.0000444 0 0 1 174.24931 -116.24975 A 6.0000204 6.0000444 0 0 1 180.24998 -110.25012 A 6.0000204 6.0000444 0 0 1 174.24931 -104.24997 A 6.0000204 6.0000444 0 0 1 168.33649 -109.24966 L 160.74936 -109.24966 L 159.24971 -109.24966 L 159.24971 -110.74983 L 159.24971 -149.75003 L 157.74954 -149.75003 L 157.74954 -96.74965 L 168.27035 -96.74965 A 6.0000204 6.0000444 0 0 1 174.24931 -102.25009 A 6.0000204 6.0000444 0 0 1 180.24998 -96.249939 A 6.0000204 6.0000444 0 0 1 174.24931 -90.249788 A 6.0000204 6.0000444 0 0 1 168.33649 -95.25 L 157.74954 -95.25 L 156.24938 -95.25 L 156.24938 -96.74965 L 156.24938 -149.75003 L 154.74973 -149.75003 L 154.74973 -82.749988 L 168.27035 -82.749988 A 6.0000204 6.0000444 0 0 1 174.24931 -88.24991 A 6.0000204 6.0000444 0 0 1 180.24998 -82.24976 A 6.0000204 6.0000444 0 0 1 174.24931 -76.250126 A 6.0000204 6.0000444 0 0 1 168.33649 -81.249821 L 153.24956 -81.249821 L 153.24956 -82.749988 L 153.24956 -149.75003 L 138.74967 -149.75003 L 138.74967 -138.75019 L 140.27051 -138.75019 A 6.0000204 6.0000444 0 0 1 146.24947 -144.25063 A 6.0000204 6.0000444 0 0 1 152.24962 -138.25048 A 6.0000204 6.0000444 0 0 1 146.24947 -132.25033 A 6.0000204 6.0000444 0 0 1 140.33665 -137.25002 L 138.74967 -137.25002 L 137.2495 -137.25002 L 137.2495 -138.75019 L 137.2495 -149.75003 L 135.74985 -149.75003 L 135.74985 -124.75001 L 140.27051 -124.75001 A 6.0000204 6.0000444 0 0 1 146.24947 -130.25045 A 6.0000204 6.0000444 0 0 1 152.24962 -124.2503 A 6.0000204 6.0000444 0 0 1 146.24947 -118.25015 A 6.0000204 6.0000444 0 0 1 140.33665 -123.24984 L 135.74985 -123.24984 L 134.24969 -123.24984 L 134.24969 -124.75001 L 134.24969 -149.75003 L 132.74952 -149.75003 L 132.74952 -110.74983 L 140.27051 -110.74983 A 6.0000204 6.0000444 0 0 1 146.24947 -116.24975 A 6.0000204 6.0000444 0 0 1 152.24962 -110.25012 A 6.0000204 6.0000444 0 0 1 146.24947 -104.24997 A 6.0000204 6.0000444 0 0 1 140.33665 -109.24966 L 132.74952 -109.24966 L 131.24987 -109.24966 L 131.24987 -110.74983 L 131.24987 -149.75003 L 129.7497 -149.75003 L 129.7497 -96.74965 L 140.27051 -96.74965 A 6.0000204 6.0000444 0 0 1 146.24947 -102.25009 A 6.0000204 6.0000444 0 0 1 152.24962 -96.249939 A 6.0000204 6.0000444 0 0 1 146.24947 -90.249788 A 6.0000204 6.0000444 0 0 1 140.33665 -95.25 L 129.7497 -95.25 L 128.24954 -95.25 L 128.24954 -96.74965 L 128.24954 -149.75003 L 126.74989 -149.75003 L 126.74989 -82.749988 L 140.27051 -82.749988 A 6.0000204 6.0000444 0 0 1 146.24947 -88.24991 A 6.0000204 6.0000444 0 0 1 152.24962 -82.24976 A 6.0000204 6.0000444 0 0 1 146.24947 -76.250126 A 6.0000204 6.0000444 0 0 1 140.33665 -81.249821 L 125.24972 -81.249821 L 125.24972 -82.749988 L 125.24972 -149.75003 L 110.74983 -149.75003 L 110.74983 -138.75019 L 112.27067 -138.75019 A 6.0000204 6.0000444 0 0 1 118.24963 -144.25063 A 6.0000204 6.0000444 0 0 1 124.24926 -138.25048 A 6.0000204 6.0000444 0 0 1 118.24963 -132.25033 A 6.0000204 6.0000444 0 0 1 112.33681 -137.25002 L 110.74983 -137.25002 L 109.24966 -137.25002 L 109.24966 -138.75019 L 109.24966 -149.75003 L 107.75001 -149.75003 L 107.75001 -124.75001 L 112.27067 -124.75001 A 6.0000204 6.0000444 0 0 1 118.24963 -130.25045 A 6.0000204 6.0000444 0 0 1 124.24926 -124.2503 A 6.0000204 6.0000444 0 0 1 118.24963 -118.25015 A 6.0000204 6.0000444 0 0 1 112.33681 -123.24984 L 107.75001 -123.24984 L 106.24985 -123.24984 L 106.24985 -124.75001 L 106.24985 -149.75003 L 104.74968 -149.75003 L 104.74968 -110.74983 L 112.27067 -110.74983 A 6.0000204 6.0000444 0 0 1 118.24963 -116.24975 A 6.0000204 6.0000444 0 0 1 124.24926 -110.25012 A 6.0000204 6.0000444 0 0 1 118.24963 -104.24997 A 6.0000204 6.0000444 0 0 1 112.33681 -109.24966 L 104.74968 -109.24966 L 103.25003 -109.24966 L 103.25003 -110.74983 L 103.25003 -149.75003 L 101.74986 -149.75003 L 101.74986 -96.74965 L 112.27067 -96.74965 A 6.0000204 6.0000444 0 0 1 118.24963 -102.25009 A 6.0000204 6.0000444 0 0 1 124.24926 -96.249939 A 6.0000204 6.0000444 0 0 1 118.24963 -90.249788 A 6.0000204 6.0000444 0 0 1 112.33681 -95.25 L 101.74986 -95.25 L 100.24969 -95.25 L 100.24969 -96.74965 L 100.24969 -149.75003 L 98.750045 -149.75003 L 98.750045 -82.749988 L 112.27067 -82.749988 A 6.0000204 6.0000444 0 0 1 118.24963 -88.24991 A 6.0000204 6.0000444 0 0 1 124.24926 -82.24976 A 6.0000204 6.0000444 0 0 1 118.24963 -76.250126 A 6.0000204 6.0000444 0 0 1 112.33681 -81.249821 L 97.249878 -81.249821 L 97.249878 -82.749988 L 97.249878 -149.75003 L 82.749988 -149.75003 L 82.749988 -138.75019 L 84.270308 -138.75019 A 6.0000204 6.0000444 0 0 1 90.249272 -144.25063 A 6.0000204 6.0000444 0 0 1 96.249422 -138.25048 A 6.0000204 6.0000444 0 0 1 90.249272 -132.25033 A 6.0000204 6.0000444 0 0 1 84.336454 -137.25002 L 82.749988 -137.25002 L 81.249821 -137.25002 L 81.249821 -138.75019 L 81.249821 -149.75003 L 79.749654 -149.75003 L 79.749654 -124.75001 L 84.270308 -124.75001 A 6.0000204 6.0000444 0 0 1 90.249272 -130.25045 A 6.0000204 6.0000444 0 0 1 96.249422 -124.2503 A 6.0000204 6.0000444 0 0 1 90.249272 -118.25015 A 6.0000204 6.0000444 0 0 1 84.336454 -123.24984 L 79.749654 -123.24984 L 78.250004 -123.24984 L 78.250004 -124.75001 L 78.250004 -149.75003 L 76.749837 -149.75003 L 76.749837 -110.74983 L 84.270308 -110.74983 A 6.0000204 6.0000444 0 0 1 90.249272 -116.24975 A 6.0000204 6.0000444 0 0 1 96.249422 -110.25012 A 6.0000204 6.0000444 0 0 1 90.249272 -104.24997 A 6.0000204 6.0000444 0 0 1 84.336454 -109.24966 L 76.749837 -109.24966 L 75.24967 -109.24966 L 75.24967 -110.74983 L 75.24967 -149.75003 L 73.75002 -149.75003 L 73.75002 -96.74965 L 84.270308 -96.74965 A 6.0000204 6.0000444 0 0 1 90.249272 -102.25009 A 6.0000204 6.0000444 0 0 1 96.249422 -96.249939 A 6.0000204 6.0000444 0 0 1 90.249272 -90.249788 A 6.0000204 6.0000444 0 0 1 84.336454 -95.25 L 73.75002 -95.25 L 72.249854 -95.25 L 72.249854 -96.74965 L 72.249854 -149.75003 L 70.750203 -149.75003 L 70.750203 -82.749988 L 84.270308 -82.749988 A 6.0000204 6.0000444 0 0 1 90.249272 -88.24991 A 6.0000204 6.0000444 0 0 1 96.249422 -82.24976 A 6.0000204 6.0000444 0 0 1 90.249272 -76.250126 A 6.0000204 6.0000444 0 0 1 84.336454 -81.249821 L 69.250037 -81.249821 L 69.250037 -82.749988 L 69.250037 -149.75003 L 54.750146 -149.75003 L 54.750146 -138.75019 L 56.270467 -138.75019 A 6.0000204 6.0000444 0 0 1 62.24943 -144.25063 A 6.0000204 6.0000444 0 0 1 68.249581 -138.25048 A 6.0000204 6.0000444 0 0 1 62.24943 -132.25033 A 6.0000204 6.0000444 0 0 1 56.336613 -137.25002 L 54.750146 -137.25002 L 53.24998 -137.25002 L 53.24998 -138.75019 L 53.24998 -149.75003 L 51.749813 -149.75003 L 51.749813 -124.75001 L 56.270467 -124.75001 A 6.0000204 6.0000444 0 0 1 62.24943 -130.25045 A 6.0000204 6.0000444 0 0 1 68.249581 -124.2503 A 6.0000204 6.0000444 0 0 1 62.24943 -118.25015 A 6.0000204 6.0000444 0 0 1 56.336613 -123.24984 L 51.749813 -123.24984 L 50.250163 -123.24984 L 50.250163 -124.75001 L 50.250163 -149.75003 L 48.749996 -149.75003 L 48.749996 -110.74983 L 56.270467 -110.74983 A 6.0000204 6.0000444 0 0 1 62.24943 -116.24975 A 6.0000204 6.0000444 0 0 1 68.249581 -110.25012 A 6.0000204 6.0000444 0 0 1 62.24943 -104.24997 A 6.0000204 6.0000444 0 0 1 56.336613 -109.24966 L 48.749996 -109.24966 L 47.249829 -109.24966 L 47.249829 -110.74983 L 47.249829 -149.75003 L 45.750179 -149.75003 L 45.750179 -96.74965 L 56.270467 -96.74965 A 6.0000204 6.0000444 0 0 1 62.24943 -102.25009 A 6.0000204 6.0000444 0 0 1 68.249581 -96.249939 A 6.0000204 6.0000444 0 0 1 62.24943 -90.249788 A 6.0000204 6.0000444 0 0 1 56.336613 -95.25 L 45.750179 -95.25 L 44.250012 -95.25 L 44.250012 -96.74965 L 44.250012 -149.75003 L 42.750362 -149.75003 L 42.750362 -82.749988 L 56.270467 -82.749988 A 6.0000204 6.0000444 0 0 1 62.24943 -88.24991 A 6.0000204 6.0000444 0 0 1 68.249581 -82.24976 A 6.0000204 6.0000444 0 0 1 62.24943 -76.250126 A 6.0000204 6.0000444 0 0 1 56.336613 -81.249821 L 42.750362 -81.249821 L 41.250195 -81.249821 L 41.250195 -82.749988 L 41.250195 -149.75003 L 37.249923 -149.75003 L 37.249923 -0.25011393 z "
       transform="rotate(90)" />
  </g>
</svg>
