<?xml version="1.0" encoding="UTF-8" standalone="no"?>
<!-- Created with Inkscape (http://www.inkscape.org/) -->

<svg
   width="210mm"
   height="297mm"
   viewBox="0 0 210 297"
   version="1.1"
   id="svg1697"
   sodipodi:docname="Mat_Layer2_final.svg"
   inkscape:version="1.2.2 (732a01da63, 2022-12-09)"
   xmlns:inkscape="http://www.inkscape.org/namespaces/inkscape"
   xmlns:sodipodi="http://sodipodi.sourceforge.net/DTD/sodipodi-0.dtd"
   xmlns="http://www.w3.org/2000/svg"
   xmlns:svg="http://www.w3.org/2000/svg">
  <sodipodi:namedview
     id="namedview1699"
     pagecolor="#ffffff"
     bordercolor="#666666"
     borderopacity="1.0"
     inkscape:showpageshadow="2"
     inkscape:pageopacity="0.0"
     inkscape:pagecheckerboard="0"
     inkscape:deskcolor="#d1d1d1"
     inkscape:document-units="mm"
     showgrid="false"
     inkscape:zoom="1.5393939"
     inkscape:rotation="90"
     inkscape:cx="266.66338"
     inkscape:cy="584.97047"
     inkscape:window-width="2400"
     inkscape:window-height="1271"
     inkscape:window-x="2391"
     inkscape:window-y="-9"
     inkscape:window-maximized="1"
     inkscape:current-layer="layer1" />
  <defs
     id="defs1694" />
  <g
     inkscape:label="Ebene 1"
     inkscape:groupmode="layer"
     id="layer1">
    <path
       id="rect111"
       style="fill:none;fill-rule:evenodd;stroke:#000000;stroke-width:0.5;stroke-dasharray:none;stroke-opacity:1"
       d="M 37.249923 -0.25011393 L 55.249858 -0.25011393 L 55.249858 -11.250476 L 54.162585 -11.250476 A 6.0000008 5.9999823 0 0 1 48.249768 -6.2497477 A 6.0000008 5.9999823 0 0 1 42.250134 -12.249898 A 6.0000008 5.9999823 0 0 1 48.249768 -18.250049 A 6.0000008 5.9999823 0 0 1 54.227698 -12.750126 L 55.249858 -12.750126 L 56.750024 -12.750126 L 56.750024 -11.250476 L 56.750024 -0.25011393 L 58.249674 -0.25011393 L 58.249674 -25.250138 L 54.162585 -25.250138 A 6.0000008 5.9999823 0 0 1 48.249768 -20.249927 A 6.0000008 5.9999823 0 0 1 42.250134 -26.250077 A 6.0000008 5.9999823 0 0 1 48.249768 -32.250228 A 6.0000008 5.9999823 0 0 1 54.227698 -26.750305 L 58.249674 -26.750305 L 59.749841 -26.750305 L 59.749841 -25.250138 L 59.749841 -0.25011393 L 61.250008 -0.25011393 L 61.250008 -39.250317 L 54.162585 -39.250317 A 6.0000008 5.9999823 0 0 1 48.249768 -34.250106 A 6.0000008 5.9999823 0 0 1 42.250134 -40.250256 A 6.0000008 5.9999823 0 0 1 48.249768 -46.24989 A 6.0000008 5.9999823 0 0 1 54.227698 -40.750484 L 61.250008 -40.750484 L 62.749658 -40.750484 L 62.749658 -39.250317 L 62.749658 -0.25011393 L 64.249825 -0.25011393 L 64.249825 -53.24998 L 54.162585 -53.24998 A 6.0000008 5.9999823 0 0 1 48.249768 -48.249768 A 6.0000008 5.9999823 0 0 1 42.250134 -54.249402 A 6.0000008 5.9999823 0 0 1 48.249768 -60.249552 A 6.0000008 5.9999823 0 0 1 54.227698 -54.74963 L 64.249825 -54.74963 L 65.749992 -54.74963 L 65.749992 -53.24998 L 65.749992 -0.25011393 L 67.250159 -0.25011393 L 67.250159 -67.249642 L 54.162585 -67.249642 A 6.0000008 5.9999823 0 0 1 48.249768 -62.24943 A 6.0000008 5.9999823 0 0 1 42.250134 -68.249581 A 6.0000008 5.9999823 0 0 1 48.249768 -74.249731 A 6.0000008 5.9999823 0 0 1 54.227698 -68.749809 L 68.749809 -68.749809 L 68.749809 -67.249642 L 68.749809 -0.25011393 L 83.249699 -0.25011393 L 83.249699 -11.250476 L 82.162944 -11.250476 A 6.0000008 5.9999823 0 0 1 76.250126 -6.2497477 A 6.0000008 5.9999823 0 0 1 70.249976 -12.249898 A 6.0000008 5.9999823 0 0 1 76.250126 -18.250049 A 6.0000008 5.9999823 0 0 1 82.227539 -12.750126 L 83.249699 -12.750126 L 84.749866 -12.750126 L 84.749866 -11.250476 L 84.749866 -0.25011393 L 86.250033 -0.25011393 L 86.250033 -25.250138 L 82.162944 -25.250138 A 6.0000008 5.9999823 0 0 1 76.250126 -20.249927 A 6.0000008 5.9999823 0 0 1 70.249976 -26.250077 A 6.0000008 5.9999823 0 0 1 76.250126 -32.250228 A 6.0000008 5.9999823 0 0 1 82.227539 -26.750305 L 86.250033 -26.750305 L 87.749683 -26.750305 L 87.749683 -25.250138 L 87.749683 -0.25011393 L 89.249849 -0.25011393 L 89.249849 -39.250317 L 82.162944 -39.250317 A 6.0000008 5.9999823 0 0 1 76.250126 -34.250106 A 6.0000008 5.9999823 0 0 1 70.249976 -40.250256 A 6.0000008 5.9999823 0 0 1 76.250126 -46.24989 A 6.0000008 5.9999823 0 0 1 82.227539 -40.750484 L 89.249849 -40.750484 L 90.750016 -40.750484 L 90.750016 -39.250317 L 90.750016 -0.25011393 L 92.249666 -0.25011393 L 92.249666 -53.24998 L 82.162944 -53.24998 A 6.0000008 5.9999823 0 0 1 76.250126 -48.249768 A 6.0000008 5.9999823 0 0 1 70.249976 -54.249402 A 6.0000008 5.9999823 0 0 1 76.250126 -60.249552 A 6.0000008 5.9999823 0 0 1 82.227539 -54.74963 L 92.249666 -54.74963 L 93.749833 -54.74963 L 93.749833 -53.24998 L 93.749833 -0.25011393 L 95.25 -0.25011393 L 95.25 -67.249642 L 82.162944 -67.249642 A 6.0000008 5.9999823 0 0 1 76.250126 -62.24943 A 6.0000008 5.9999823 0 0 1 70.249976 -68.249581 A 6.0000008 5.9999823 0 0 1 76.250126 -74.249731 A 6.0000008 5.9999823 0 0 1 82.227539 -68.749809 L 96.750167 -68.749809 L 96.750167 -67.249642 L 96.750167 -0.25011393 L 111.25006 -0.25011393 L 111.25006 -11.250476 L 110.16278 -11.250476 A 6.0000008 5.9999823 0 0 1 104.24997 -6.2497477 A 6.0000008 5.9999823 0 0 1 98.249817 -12.249898 A 6.0000008 5.9999823 0 0 1 104.24997 -18.250049 A 6.0000008 5.9999823 0 0 1 110.22738 -12.750126 L 111.25006 -12.750126 L 112.74971 -12.750126 L 112.74971 -11.250476 L 112.74971 -0.25011393 L 114.24987 -0.25011393 L 114.24987 -25.250138 L 110.16278 -25.250138 A 6.0000008 5.9999823 0 0 1 104.24997 -20.249927 A 6.0000008 5.9999823 0 0 1 98.249817 -26.250077 A 6.0000008 5.9999823 0 0 1 104.24997 -32.250228 A 6.0000008 5.9999823 0 0 1 110.22738 -26.750305 L 114.24987 -26.750305 L 115.75004 -26.750305 L 115.75004 -25.250138 L 115.75004 -0.25011393 L 117.24969 -0.25011393 L 117.24969 -39.250317 L 110.16278 -39.250317 A 6.0000008 5.9999823 0 0 1 104.24997 -34.250106 A 6.0000008 5.9999823 0 0 1 98.249817 -40.250256 A 6.0000008 5.9999823 0 0 1 104.24997 -46.24989 A 6.0000008 5.9999823 0 0 1 110.22738 -40.750484 L 117.24969 -40.750484 L 118.74986 -40.750484 L 118.74986 -39.250317 L 118.74986 -0.25011393 L 120.25002 -0.25011393 L 120.25002 -53.24998 L 110.16278 -53.24998 A 6.0000008 5.9999823 0 0 1 104.24997 -48.249768 A 6.0000008 5.9999823 0 0 1 98.249817 -54.249402 A 6.0000008 5.9999823 0 0 1 104.24997 -60.249552 A 6.0000008 5.9999823 0 0 1 110.22738 -54.74963 L 120.25002 -54.74963 L 121.74967 -54.74963 L 121.74967 -53.24998 L 121.74967 -0.25011393 L 123.24984 -0.25011393 L 123.24984 -67.249642 L 110.16278 -67.249642 A 6.0000008 5.9999823 0 0 1 104.24997 -62.24943 A 6.0000008 5.9999823 0 0 1 98.249817 -68.249581 A 6.0000008 5.9999823 0 0 1 104.24997 -74.249731 A 6.0000008 5.9999823 0 0 1 110.22738 -68.749809 L 124.75001 -68.749809 L 124.75001 -67.249642 L 124.75001 -0.25011393 L 139.2499 -0.25011393 L 139.2499 -11.250476 L 138.16263 -11.250476 A 6.0000008 5.9999823 0 0 1 132.24981 -6.2497477 A 6.0000008 5.9999823 0 0 1 126.25017 -12.249898 A 6.0000008 5.9999823 0 0 1 132.24981 -18.250049 A 6.0000008 5.9999823 0 0 1 138.22774 -12.750126 L 139.2499 -12.750126 L 140.75007 -12.750126 L 140.75007 -11.250476 L 140.75007 -0.25011393 L 142.24972 -0.25011393 L 142.24972 -25.250138 L 138.16263 -25.250138 A 6.0000008 5.9999823 0 0 1 132.24981 -20.249927 A 6.0000008 5.9999823 0 0 1 126.25017 -26.250077 A 6.0000008 5.9999823 0 0 1 132.24981 -32.250228 A 6.0000008 5.9999823 0 0 1 138.22774 -26.750305 L 142.24972 -26.750305 L 143.74988 -26.750305 L 143.74988 -25.250138 L 143.74988 -0.25011393 L 145.25005 -0.25011393 L 145.25005 -39.250317 L 138.16263 -39.250317 A 6.0000008 5.9999823 0 0 1 132.24981 -34.250106 A 6.0000008 5.9999823 0 0 1 126.25017 -40.250256 A 6.0000008 5.9999823 0 0 1 132.24981 -46.24989 A 6.0000008 5.9999823 0 0 1 138.22774 -40.750484 L 145.25005 -40.750484 L 146.7497 -40.750484 L 146.7497 -39.250317 L 146.7497 -0.25011393 L 148.24987 -0.25011393 L 148.24987 -53.24998 L 138.16263 -53.24998 A 6.0000008 5.9999823 0 0 1 132.24981 -48.249768 A 6.0000008 5.9999823 0 0 1 126.25017 -54.249402 A 6.0000008 5.9999823 0 0 1 132.24981 -60.249552 A 6.0000008 5.9999823 0 0 1 138.22774 -54.74963 L 148.24987 -54.74963 L 149.75003 -54.74963 L 149.75003 -53.24998 L 149.75003 -0.25011393 L 151.24968 -0.25011393 L 151.24968 -67.249642 L 138.16263 -67.249642 A 6.0000008 5.9999823 0 0 1 132.24981 -62.24943 A 6.0000008 5.9999823 0 0 1 126.25017 -68.249581 A 6.0000008 5.9999823 0 0 1 132.24981 -74.249731 A 6.0000008 5.9999823 0 0 1 138.22774 -68.749809 L 152.74985 -68.749809 L 152.74985 -67.249642 L 152.74985 -0.25011393 L 167.24974 -0.25011393 L 167.24974 -11.250476 L 166.16298 -11.250476 A 6.0000008 5.9999823 0 0 1 160.25017 -6.2497477 A 6.0000008 5.9999823 0 0 1 154.25002 -12.249898 A 6.0000008 5.9999823 0 0 1 160.25017 -18.250049 A 6.0000008 5.9999823 0 0 1 166.22758 -12.750126 L 167.24974 -12.750126 L 168.74991 -12.750126 L 168.74991 -11.250476 L 168.74991 -0.25011393 L 170.25007 -0.25011393 L 170.25007 -25.250138 L 166.16298 -25.250138 A 6.0000008 5.9999823 0 0 1 160.25017 -20.249927 A 6.0000008 5.9999823 0 0 1 154.25002 -26.250077 A 6.0000008 5.9999823 0 0 1 160.25017 -32.250228 A 6.0000008 5.9999823 0 0 1 166.22758 -26.750305 L 170.25007 -26.750305 L 171.74972 -26.750305 L 171.74972 -25.250138 L 171.74972 -0.25011393 L 173.24989 -0.25011393 L 173.24989 -39.250317 L 166.16298 -39.250317 A 6.0000008 5.9999823 0 0 1 160.25017 -34.250106 A 6.0000008 5.9999823 0 0 1 154.25002 -40.250256 A 6.0000008 5.9999823 0 0 1 160.25017 -46.24989 A 6.0000008 5.9999823 0 0 1 166.22758 -40.750484 L 173.24989 -40.750484 L 174.75006 -40.750484 L 174.75006 -39.250317 L 174.75006 -0.25011393 L 176.24971 -0.25011393 L 176.24971 -53.24998 L 166.16298 -53.24998 A 6.0000008 5.9999823 0 0 1 160.25017 -48.249768 A 6.0000008 5.9999823 0 0 1 154.25002 -54.249402 A 6.0000008 5.9999823 0 0 1 160.25017 -60.249552 A 6.0000008 5.9999823 0 0 1 166.22758 -54.74963 L 176.24971 -54.74963 L 177.74987 -54.74963 L 177.74987 -53.24998 L 177.74987 -0.25011393 L 179.25004 -0.25011393 L 179.25004 -67.249642 L 166.16298 -67.249642 A 6.0000008 5.9999823 0 0 1 160.25017 -62.24943 A 6.0000008 5.9999823 0 0 1 154.25002 -68.249581 A 6.0000008 5.9999823 0 0 1 160.25017 -74.249731 A 6.0000008 5.9999823 0 0 1 166.22758 -68.749809 L 180.74969 -68.749809 L 180.74969 -67.249642 L 180.74969 -0.25011393 L 195.2501 -0.25011393 L 195.2501 -11.250476 L 194.16283 -11.250476 A 6.0000008 5.9999823 0 0 1 188.25001 -6.2497477 A 6.0000008 5.9999823 0 0 1 182.24986 -12.249898 A 6.0000008 5.9999823 0 0 1 188.25001 -18.250049 A 6.0000008 5.9999823 0 0 1 194.22742 -12.750126 L 195.2501 -12.750126 L 196.74975 -12.750126 L 196.74975 -11.250476 L 196.74975 -0.25011393 L 198.24991 -0.25011393 L 198.24991 -25.250138 L 194.16283 -25.250138 A 6.0000008 5.9999823 0 0 1 188.25001 -20.249927 A 6.0000008 5.9999823 0 0 1 182.24986 -26.250077 A 6.0000008 5.9999823 0 0 1 188.25001 -32.250228 A 6.0000008 5.9999823 0 0 1 194.22742 -26.750305 L 198.24991 -26.750305 L 199.75008 -26.750305 L 199.75008 -25.250138 L 199.75008 -0.25011393 L 201.24973 -0.25011393 L 201.24973 -39.250317 L 194.16283 -39.250317 A 6.0000008 5.9999823 0 0 1 188.25001 -34.250106 A 6.0000008 5.9999823 0 0 1 182.24986 -40.250256 A 6.0000008 5.9999823 0 0 1 188.25001 -46.24989 A 6.0000008 5.9999823 0 0 1 194.22742 -40.750484 L 201.24973 -40.750484 L 202.7499 -40.750484 L 202.7499 -39.250317 L 202.7499 -0.25011393 L 204.25007 -0.25011393 L 204.25007 -53.24998 L 194.16283 -53.24998 A 6.0000008 5.9999823 0 0 1 188.25001 -48.249768 A 6.0000008 5.9999823 0 0 1 182.24986 -54.249402 A 6.0000008 5.9999823 0 0 1 188.25001 -60.249552 A 6.0000008 5.9999823 0 0 1 194.22742 -54.74963 L 204.25007 -54.74963 L 205.74972 -54.74963 L 205.74972 -53.24998 L 205.74972 -0.25011393 L 207.24988 -0.25011393 L 207.24988 -67.249642 L 194.16283 -67.249642 A 6.0000008 5.9999823 0 0 1 188.25001 -62.24943 A 6.0000008 5.9999823 0 0 1 182.24986 -68.249581 A 6.0000008 5.9999823 0 0 1 188.25001 -74.249731 A 6.0000008 5.9999823 0 0 1 194.22742 -68.749809 L 208.75005 -68.749809 L 208.75005 -67.249642 L 208.75005 -0.25011393 L 223.24994 -0.25011393 L 223.24994 -11.250476 L 222.16267 -11.250476 A 6.0000008 5.9999823 0 0 1 216.24985 -6.2497477 A 6.0000008 5.9999823 0 0 1 210.25022 -12.249898 A 6.0000008 5.9999823 0 0 1 216.24985 -18.250049 A 6.0000008 5.9999823 0 0 1 222.22778 -12.750126 L 223.24994 -12.750126 L 224.75011 -12.750126 L 224.75011 -11.250476 L 224.75011 -0.25011393 L 226.24976 -0.25011393 L 226.24976 -25.250138 L 222.16267 -25.250138 A 6.0000008 5.9999823 0 0 1 216.24985 -20.249927 A 6.0000008 5.9999823 0 0 1 210.25022 -26.250077 A 6.0000008 5.9999823 0 0 1 216.24985 -32.250228 A 6.0000008 5.9999823 0 0 1 222.22778 -26.750305 L 226.24976 -26.750305 L 227.74992 -26.750305 L 227.74992 -25.250138 L 227.74992 -0.25011393 L 229.25009 -0.25011393 L 229.25009 -39.250317 L 222.16267 -39.250317 A 6.0000008 5.9999823 0 0 1 216.24985 -34.250106 A 6.0000008 5.9999823 0 0 1 210.25022 -40.250256 A 6.0000008 5.9999823 0 0 1 216.24985 -46.24989 A 6.0000008 5.9999823 0 0 1 222.22778 -40.750484 L 229.25009 -40.750484 L 230.74974 -40.750484 L 230.74974 -39.250317 L 230.74974 -0.25011393 L 232.24991 -0.25011393 L 232.24991 -53.24998 L 222.16267 -53.24998 A 6.0000008 5.9999823 0 0 1 216.24985 -48.249768 A 6.0000008 5.9999823 0 0 1 210.25022 -54.249402 A 6.0000008 5.9999823 0 0 1 216.24985 -60.249552 A 6.0000008 5.9999823 0 0 1 222.22778 -54.74963 L 232.24991 -54.74963 L 233.75007 -54.74963 L 233.75007 -53.24998 L 233.75007 -0.25011393 L 235.24972 -0.25011393 L 235.24972 -67.249642 L 222.16267 -67.249642 A 6.0000008 5.9999823 0 0 1 216.24985 -62.24943 A 6.0000008 5.9999823 0 0 1 210.25022 -68.249581 A 6.0000008 5.9999823 0 0 1 216.24985 -74.249731 A 6.0000008 5.9999823 0 0 1 222.22778 -68.749809 L 236.74989 -68.749809 L 236.74989 -67.249642 L 236.74989 -0.25011393 L 251.24978 -0.25011393 L 251.24978 -11.250476 L 250.16302 -11.250476 A 6.0000008 5.9999823 0 0 1 244.25021 -6.2497477 A 6.0000008 5.9999823 0 0 1 238.25006 -12.249898 A 6.0000008 5.9999823 0 0 1 244.25021 -18.250049 A 6.0000008 5.9999823 0 0 1 250.22762 -12.750126 L 251.24978 -12.750126 L 252.74995 -12.750126 L 252.74995 -11.250476 L 252.74995 -0.25011393 L 254.25011 -0.25011393 L 254.25011 -25.250138 L 250.16302 -25.250138 A 6.0000008 5.9999823 0 0 1 244.25021 -20.249927 A 6.0000008 5.9999823 0 0 1 238.25006 -26.250077 A 6.0000008 5.9999823 0 0 1 244.25021 -32.250228 A 6.0000008 5.9999823 0 0 1 250.22762 -26.750305 L 254.25011 -26.750305 L 255.74976 -26.750305 L 255.74976 -25.250138 L 255.74976 -0.25011393 L 257.24993 -0.25011393 L 257.24993 -39.250317 L 250.16302 -39.250317 A 6.0000008 5.9999823 0 0 1 244.25021 -34.250106 A 6.0000008 5.9999823 0 0 1 238.25006 -40.250256 A 6.0000008 5.9999823 0 0 1 244.25021 -46.24989 A 6.0000008 5.9999823 0 0 1 250.22762 -40.750484 L 257.24993 -40.750484 L 258.7501 -40.750484 L 258.7501 -39.250317 L 258.7501 -0.25011393 L 260.24975 -0.25011393 L 260.24975 -53.24998 L 250.16302 -53.24998 A 6.0000008 5.9999823 0 0 1 244.25021 -48.249768 A 6.0000008 5.9999823 0 0 1 238.25006 -54.249402 A 6.0000008 5.9999823 0 0 1 244.25021 -60.249552 A 6.0000008 5.9999823 0 0 1 250.22762 -54.74963 L 260.24975 -54.74963 L 261.74991 -54.74963 L 261.74991 -53.24998 L 261.74991 -0.25011393 L 263.25008 -0.25011393 L 263.25008 -67.249642 L 250.16302 -67.249642 A 6.0000008 5.9999823 0 0 1 244.25021 -62.24943 A 6.0000008 5.9999823 0 0 1 238.25006 -68.249581 A 6.0000008 5.9999823 0 0 1 244.25021 -74.249731 A 6.0000008 5.9999823 0 0 1 250.22762 -68.749809 L 264.74973 -68.749809 L 264.74973 -67.249642 L 264.74973 -0.25011393 L 279.25014 -0.25011393 L 279.25014 -11.250476 L 278.16287 -11.250476 A 6.0000008 5.9999823 0 0 1 272.25005 -6.2497477 A 6.0000008 5.9999823 0 0 1 266.2499 -12.249898 A 6.0000008 5.9999823 0 0 1 272.25005 -18.250049 A 6.0000008 5.9999823 0 0 1 278.22746 -12.750126 L 279.25014 -12.750126 L 280.74979 -12.750126 L 280.74979 -11.250476 L 280.74979 -0.25011393 L 282.24996 -0.25011393 L 282.24996 -25.250138 L 278.16287 -25.250138 A 6.0000008 5.9999823 0 0 1 272.25005 -20.249927 A 6.0000008 5.9999823 0 0 1 266.2499 -26.250077 A 6.0000008 5.9999823 0 0 1 272.25005 -32.250228 A 6.0000008 5.9999823 0 0 1 278.22746 -26.750305 L 282.24996 -26.750305 L 283.75012 -26.750305 L 283.75012 -25.250138 L 283.75012 -0.25011393 L 285.24977 -0.25011393 L 285.24977 -39.250317 L 278.16287 -39.250317 A 6.0000008 5.9999823 0 0 1 272.25005 -34.250106 A 6.0000008 5.9999823 0 0 1 266.2499 -40.250256 A 6.0000008 5.9999823 0 0 1 272.25005 -46.24989 A 6.0000008 5.9999823 0 0 1 278.22746 -40.750484 L 285.24977 -40.750484 L 286.74994 -40.750484 L 286.74994 -39.250317 L 286.74994 -0.25011393 L 288.25011 -0.25011393 L 288.25011 -53.24998 L 278.16287 -53.24998 A 6.0000008 5.9999823 0 0 1 272.25005 -48.249768 A 6.0000008 5.9999823 0 0 1 266.2499 -54.249402 A 6.0000008 5.9999823 0 0 1 272.25005 -60.249552 A 6.0000008 5.9999823 0 0 1 278.22746 -54.74963 L 288.25011 -54.74963 L 289.74976 -54.74963 L 289.74976 -53.24998 L 289.74976 -0.25011393 L 291.24992 -0.25011393 L 291.24992 -67.249642 L 278.16287 -67.249642 A 6.0000008 5.9999823 0 0 1 272.25005 -62.24943 A 6.0000008 5.9999823 0 0 1 266.2499 -68.249581 A 6.0000008 5.9999823 0 0 1 272.25005 -74.249731 A 6.0000008 5.9999823 0 0 1 278.22746 -68.749809 L 291.24992 -68.749809 L 292.75009 -68.749809 L 292.75009 -67.249642 L 292.75009 -0.25011393 L 296.74985 -0.25011393 L 296.74985 -149.75003 L 292.75009 -149.75003 L 292.75009 -81.249821 L 278.16287 -81.249821 A 6.0000008 5.9999823 0 0 1 272.25005 -76.249609 A 6.0000008 5.9999823 0 0 1 266.2499 -82.249243 A 6.0000008 5.9999823 0 0 1 272.25005 -88.249394 A 6.0000008 5.9999823 0 0 1 278.22746 -82.749988 L 291.24992 -82.749988 L 291.24992 -149.75003 L 289.74976 -149.75003 L 289.74976 -95.25 L 278.16338 -95.25 A 6.0000008 5.9999823 0 0 1 272.25005 -90.249272 A 6.0000008 5.9999823 0 0 1 266.2499 -96.249422 A 6.0000008 5.9999823 0 0 1 272.25005 -102.24957 A 6.0000008 5.9999823 0 0 1 278.22746 -96.74965 L 288.25011 -96.74965 L 288.25011 -149.75003 L 286.74994 -149.75003 L 286.74994 -109.24966 L 278.16287 -109.24966 A 6.0000008 5.9999823 0 0 1 272.25005 -104.24945 A 6.0000008 5.9999823 0 0 1 266.2499 -110.2496 A 6.0000008 5.9999823 0 0 1 272.25005 -116.24924 A 6.0000008 5.9999823 0 0 1 278.22746 -110.74983 L 285.24977 -110.74983 L 285.24977 -149.75003 L 283.75012 -149.75003 L 283.75012 -123.24984 L 278.16287 -123.24984 A 6.0000008 5.9999823 0 0 1 272.25005 -118.24963 A 6.0000008 5.9999823 0 0 1 266.2499 -124.24926 A 6.0000008 5.9999823 0 0 1 272.25005 -130.24941 A 6.0000008 5.9999823 0 0 1 278.22746 -124.75001 L 282.24996 -124.75001 L 282.24996 -149.75003 L 280.74979 -149.75003 L 280.74979 -137.25002 L 278.16338 -137.25002 A 6.0000008 5.9999823 0 0 1 272.25005 -132.24929 A 6.0000008 5.9999823 0 0 1 266.2499 -138.24944 A 6.0000008 5.9999823 0 0 1 272.25005 -144.24959 A 6.0000008 5.9999823 0 0 1 278.22746 -138.74967 L 279.25014 -138.74967 L 279.25014 -149.75003 L 264.74973 -149.75003 L 264.74973 -81.249821 L 250.16302 -81.249821 A 6.0000008 5.9999823 0 0 1 244.25021 -76.249609 A 6.0000008 5.9999823 0 0 1 238.25006 -82.249243 A 6.0000008 5.9999823 0 0 1 244.25021 -88.249394 A 6.0000008 5.9999823 0 0 1 250.22762 -82.749988 L 263.25008 -82.749988 L 263.25008 -149.75003 L 261.74991 -149.75003 L 261.74991 -95.25 L 250.16302 -95.25 A 6.0000008 5.9999823 0 0 1 244.25021 -90.249272 A 6.0000008 5.9999823 0 0 1 238.25006 -96.249422 A 6.0000008 5.9999823 0 0 1 244.25021 -102.24957 A 6.0000008 5.9999823 0 0 1 250.22762 -96.74965 L 260.24975 -96.74965 L 260.24975 -149.75003 L 258.7501 -149.75003 L 258.7501 -109.24966 L 250.16302 -109.24966 A 6.0000008 5.9999823 0 0 1 244.25021 -104.24945 A 6.0000008 5.9999823 0 0 1 238.25006 -110.2496 A 6.0000008 5.9999823 0 0 1 244.25021 -116.24924 A 6.0000008 5.9999823 0 0 1 250.22762 -110.74983 L 257.24993 -110.74983 L 257.24993 -149.75003 L 255.74976 -149.75003 L 255.74976 -123.24984 L 250.16302 -123.24984 A 6.0000008 5.9999823 0 0 1 244.25021 -118.24963 A 6.0000008 5.9999823 0 0 1 238.25006 -124.24926 A 6.0000008 5.9999823 0 0 1 244.25021 -130.24941 A 6.0000008 5.9999823 0 0 1 250.22762 -124.75001 L 254.25011 -124.75001 L 254.25011 -149.75003 L 252.74995 -149.75003 L 252.74995 -137.25002 L 250.16302 -137.25002 A 6.0000008 5.9999823 0 0 1 244.25021 -132.24929 A 6.0000008 5.9999823 0 0 1 238.25006 -138.24944 A 6.0000008 5.9999823 0 0 1 244.25021 -144.24959 A 6.0000008 5.9999823 0 0 1 250.22762 -138.74967 L 251.24978 -138.74967 L 251.24978 -149.75003 L 236.74989 -149.75003 L 236.74989 -81.249821 L 222.16267 -81.249821 A 6.0000008 5.9999823 0 0 1 216.24985 -76.249609 A 6.0000008 5.9999823 0 0 1 210.25022 -82.249243 A 6.0000008 5.9999823 0 0 1 216.24985 -88.249394 A 6.0000008 5.9999823 0 0 1 222.22778 -82.749988 L 235.24972 -82.749988 L 235.24972 -149.75003 L 233.75007 -149.75003 L 233.75007 -95.25 L 222.16267 -95.25 A 6.0000008 5.9999823 0 0 1 216.24985 -90.249272 A 6.0000008 5.9999823 0 0 1 210.25022 -96.249422 A 6.0000008 5.9999823 0 0 1 216.24985 -102.24957 A 6.0000008 5.9999823 0 0 1 222.22778 -96.74965 L 232.24991 -96.74965 L 232.24991 -149.75003 L 230.74974 -149.75003 L 230.74974 -109.24966 L 222.16267 -109.24966 A 6.0000008 5.9999823 0 0 1 216.24985 -104.24945 A 6.0000008 5.9999823 0 0 1 210.25022 -110.2496 A 6.0000008 5.9999823 0 0 1 216.24985 -116.24924 A 6.0000008 5.9999823 0 0 1 222.22778 -110.74983 L 229.25009 -110.74983 L 229.25009 -149.75003 L 227.74992 -149.75003 L 227.74992 -123.24984 L 222.16267 -123.24984 A 6.0000008 5.9999823 0 0 1 216.24985 -118.24963 A 6.0000008 5.9999823 0 0 1 210.25022 -124.24926 A 6.0000008 5.9999823 0 0 1 216.24985 -130.24941 A 6.0000008 5.9999823 0 0 1 222.22778 -124.75001 L 226.24976 -124.75001 L 226.24976 -149.75003 L 224.75011 -149.75003 L 224.75011 -137.25002 L 222.16318 -137.25002 A 6.0000008 5.9999823 0 0 1 216.24985 -132.24929 A 6.0000008 5.9999823 0 0 1 210.25022 -138.24944 A 6.0000008 5.9999823 0 0 1 216.24985 -144.24959 A 6.0000008 5.9999823 0 0 1 222.22778 -138.74967 L 223.24994 -138.74967 L 223.24994 -149.75003 L 208.75005 -149.75003 L 208.75005 -81.249821 L 194.16283 -81.249821 A 6.0000008 5.9999823 0 0 1 188.25001 -76.249609 A 6.0000008 5.9999823 0 0 1 182.24986 -82.249243 A 6.0000008 5.9999823 0 0 1 188.25001 -88.249394 A 6.0000008 5.9999823 0 0 1 194.22742 -82.749988 L 207.24988 -82.749988 L 207.24988 -149.75003 L 205.74972 -149.75003 L 205.74972 -95.25 L 194.16283 -95.25 A 6.0000008 5.9999823 0 0 1 188.25001 -90.249272 A 6.0000008 5.9999823 0 0 1 182.24986 -96.249422 A 6.0000008 5.9999823 0 0 1 188.25001 -102.24957 A 6.0000008 5.9999823 0 0 1 194.22742 -96.74965 L 204.25007 -96.74965 L 204.25007 -149.75003 L 202.7499 -149.75003 L 202.7499 -109.24966 L 194.16283 -109.24966 A 6.0000008 5.9999823 0 0 1 188.25001 -104.24945 A 6.0000008 5.9999823 0 0 1 182.24986 -110.2496 A 6.0000008 5.9999823 0 0 1 188.25001 -116.24924 A 6.0000008 5.9999823 0 0 1 194.22742 -110.74983 L 201.24973 -110.74983 L 201.24973 -149.75003 L 199.75008 -149.75003 L 199.75008 -123.24984 L 194.16283 -123.24984 A 6.0000008 5.9999823 0 0 1 188.25001 -118.24963 A 6.0000008 5.9999823 0 0 1 182.24986 -124.24926 A 6.0000008 5.9999823 0 0 1 188.25001 -130.24941 A 6.0000008 5.9999823 0 0 1 194.22742 -124.75001 L 198.24991 -124.75001 L 198.24991 -149.75003 L 196.74975 -149.75003 L 196.74975 -137.25002 L 194.16334 -137.25002 A 6.0000008 5.9999823 0 0 1 188.25001 -132.24929 A 6.0000008 5.9999823 0 0 1 182.24986 -138.24944 A 6.0000008 5.9999823 0 0 1 188.25001 -144.24959 A 6.0000008 5.9999823 0 0 1 194.22742 -138.74967 L 195.2501 -138.74967 L 195.2501 -149.75003 L 180.74969 -149.75003 L 180.74969 -81.249821 L 166.16298 -81.249821 A 6.0000008 5.9999823 0 0 1 160.25017 -76.249609 A 6.0000008 5.9999823 0 0 1 154.25002 -82.249243 A 6.0000008 5.9999823 0 0 1 160.25017 -88.249394 A 6.0000008 5.9999823 0 0 1 166.22758 -82.749988 L 179.25004 -82.749988 L 179.25004 -149.75003 L 177.74987 -149.75003 L 177.74987 -95.25 L 166.16298 -95.25 A 6.0000008 5.9999823 0 0 1 160.25017 -90.249272 A 6.0000008 5.9999823 0 0 1 154.25002 -96.249422 A 6.0000008 5.9999823 0 0 1 160.25017 -102.24957 A 6.0000008 5.9999823 0 0 1 166.22758 -96.74965 L 176.24971 -96.74965 L 176.24971 -149.75003 L 174.75006 -149.75003 L 174.75006 -109.24966 L 166.16298 -109.24966 A 6.0000008 5.9999823 0 0 1 160.25017 -104.24945 A 6.0000008 5.9999823 0 0 1 154.25002 -110.2496 A 6.0000008 5.9999823 0 0 1 160.25017 -116.24924 A 6.0000008 5.9999823 0 0 1 166.22758 -110.74983 L 173.24989 -110.74983 L 173.24989 -149.75003 L 171.74972 -149.75003 L 171.74972 -123.24984 L 166.16298 -123.24984 A 6.0000008 5.9999823 0 0 1 160.25017 -118.24963 A 6.0000008 5.9999823 0 0 1 154.25002 -124.24926 A 6.0000008 5.9999823 0 0 1 160.25017 -130.24941 A 6.0000008 5.9999823 0 0 1 166.22758 -124.75001 L 170.25007 -124.75001 L 170.25007 -149.75003 L 168.74991 -149.75003 L 168.74991 -137.25002 L 166.16298 -137.25002 A 6.0000008 5.9999823 0 0 1 160.25017 -132.24929 A 6.0000008 5.9999823 0 0 1 154.25002 -138.24944 A 6.0000008 5.9999823 0 0 1 160.25017 -144.24959 A 6.0000008 5.9999823 0 0 1 166.22758 -138.74967 L 167.24974 -138.74967 L 167.24974 -149.75003 L 152.74985 -149.75003 L 152.74985 -81.249821 L 138.16263 -81.249821 A 6.0000008 5.9999823 0 0 1 132.24981 -76.249609 A 6.0000008 5.9999823 0 0 1 126.25017 -82.249243 A 6.0000008 5.9999823 0 0 1 132.24981 -88.249394 A 6.0000008 5.9999823 0 0 1 138.22774 -82.749988 L 151.24968 -82.749988 L 151.24968 -149.75003 L 149.75003 -149.75003 L 149.75003 -95.25 L 138.16263 -95.25 A 6.0000008 5.9999823 0 0 1 132.24981 -90.249272 A 6.0000008 5.9999823 0 0 1 126.25017 -96.249422 A 6.0000008 5.9999823 0 0 1 132.24981 -102.24957 A 6.0000008 5.9999823 0 0 1 138.22774 -96.74965 L 148.24987 -96.74965 L 148.24987 -149.75003 L 146.7497 -149.75003 L 146.7497 -109.24966 L 138.16263 -109.24966 A 6.0000008 5.9999823 0 0 1 132.24981 -104.24945 A 6.0000008 5.9999823 0 0 1 126.25017 -110.2496 A 6.0000008 5.9999823 0 0 1 132.24981 -116.24924 A 6.0000008 5.9999823 0 0 1 138.22774 -110.74983 L 145.25005 -110.74983 L 145.25005 -149.75003 L 143.74988 -149.75003 L 143.74988 -123.24984 L 138.16263 -123.24984 A 6.0000008 5.9999823 0 0 1 132.24981 -118.24963 A 6.0000008 5.9999823 0 0 1 126.25017 -124.24926 A 6.0000008 5.9999823 0 0 1 132.24981 -130.24941 A 6.0000008 5.9999823 0 0 1 138.22774 -124.75001 L 142.24972 -124.75001 L 142.24972 -149.75003 L 140.75007 -149.75003 L 140.75007 -137.25002 L 138.16314 -137.25002 A 6.0000008 5.9999823 0 0 1 132.24981 -132.24929 A 6.0000008 5.9999823 0 0 1 126.25017 -138.24944 A 6.0000008 5.9999823 0 0 1 132.24981 -144.24959 A 6.0000008 5.9999823 0 0 1 138.22774 -138.74967 L 139.2499 -138.74967 L 139.2499 -149.75003 L 124.75001 -149.75003 L 124.75001 -81.249821 L 110.16278 -81.249821 A 6.0000008 5.9999823 0 0 1 104.24997 -76.249609 A 6.0000008 5.9999823 0 0 1 98.249817 -82.249243 A 6.0000008 5.9999823 0 0 1 104.24997 -88.249394 A 6.0000008 5.9999823 0 0 1 110.22738 -82.749988 L 123.24984 -82.749988 L 123.24984 -149.75003 L 121.74967 -149.75003 L 121.74967 -95.25 L 110.16278 -95.25 A 6.0000008 5.9999823 0 0 1 104.24997 -90.249272 A 6.0000008 5.9999823 0 0 1 98.249817 -96.249422 A 6.0000008 5.9999823 0 0 1 104.24997 -102.24957 A 6.0000008 5.9999823 0 0 1 110.22738 -96.74965 L 120.25002 -96.74965 L 120.25002 -149.75003 L 118.74986 -149.75003 L 118.74986 -109.24966 L 110.16278 -109.24966 A 6.0000008 5.9999823 0 0 1 104.24997 -104.24945 A 6.0000008 5.9999823 0 0 1 98.249817 -110.2496 A 6.0000008 5.9999823 0 0 1 104.24997 -116.24924 A 6.0000008 5.9999823 0 0 1 110.22738 -110.74983 L 117.24969 -110.74983 L 117.24969 -149.75003 L 115.75004 -149.75003 L 115.75004 -123.24984 L 110.16278 -123.24984 A 6.0000008 5.9999823 0 0 1 104.24997 -118.24963 A 6.0000008 5.9999823 0 0 1 98.249817 -124.24926 A 6.0000008 5.9999823 0 0 1 104.24997 -130.24941 A 6.0000008 5.9999823 0 0 1 110.22738 -124.75001 L 114.24987 -124.75001 L 114.24987 -149.75003 L 112.74971 -149.75003 L 112.74971 -137.25002 L 110.1633 -137.25002 A 6.0000008 5.9999823 0 0 1 104.24997 -132.24929 A 6.0000008 5.9999823 0 0 1 98.249817 -138.24944 A 6.0000008 5.9999823 0 0 1 104.24997 -144.24959 A 6.0000008 5.9999823 0 0 1 110.22738 -138.74967 L 111.25006 -138.74967 L 111.25006 -149.75003 L 96.750167 -149.75003 L 96.750167 -81.249821 L 82.162944 -81.249821 A 6.0000008 5.9999823 0 0 1 76.250126 -76.249609 A 6.0000008 5.9999823 0 0 1 70.249976 -82.249243 A 6.0000008 5.9999823 0 0 1 76.250126 -88.249394 A 6.0000008 5.9999823 0 0 1 82.227539 -82.749988 L 95.25 -82.749988 L 95.25 -149.75003 L 93.749833 -149.75003 L 93.749833 -95.25 L 82.162944 -95.25 A 6.0000008 5.9999823 0 0 1 76.250126 -90.249272 A 6.0000008 5.9999823 0 0 1 70.249976 -96.249422 A 6.0000008 5.9999823 0 0 1 76.250126 -102.24957 A 6.0000008 5.9999823 0 0 1 82.227539 -96.74965 L 92.249666 -96.74965 L 92.249666 -149.75003 L 90.750016 -149.75003 L 90.750016 -109.24966 L 82.162944 -109.24966 A 6.0000008 5.9999823 0 0 1 76.250126 -104.24945 A 6.0000008 5.9999823 0 0 1 70.249976 -110.2496 A 6.0000008 5.9999823 0 0 1 76.250126 -116.24924 A 6.0000008 5.9999823 0 0 1 82.227539 -110.74983 L 89.249849 -110.74983 L 89.249849 -149.75003 L 87.749683 -149.75003 L 87.749683 -123.24984 L 82.162944 -123.24984 A 6.0000008 5.9999823 0 0 1 76.250126 -118.24963 A 6.0000008 5.9999823 0 0 1 70.249976 -124.24926 A 6.0000008 5.9999823 0 0 1 76.250126 -130.24941 A 6.0000008 5.9999823 0 0 1 82.227539 -124.75001 L 86.250033 -124.75001 L 86.250033 -149.75003 L 84.749866 -149.75003 L 84.749866 -137.25002 L 82.162944 -137.25002 A 6.0000008 5.9999823 0 0 1 76.250126 -132.24929 A 6.0000008 5.9999823 0 0 1 70.249976 -138.24944 A 6.0000008 5.9999823 0 0 1 76.250126 -144.24959 A 6.0000008 5.9999823 0 0 1 82.227539 -138.74967 L 83.249699 -138.74967 L 83.249699 -149.75003 L 68.749809 -149.75003 L 68.749809 -81.249821 L 54.162585 -81.249821 A 6.0000008 5.9999823 0 0 1 48.249768 -76.249609 A 6.0000008 5.9999823 0 0 1 42.250134 -82.249243 A 6.0000008 5.9999823 0 0 1 48.249768 -88.249394 A 6.0000008 5.9999823 0 0 1 54.227698 -82.749988 L 67.250159 -82.749988 L 67.250159 -149.75003 L 65.749992 -149.75003 L 65.749992 -95.25 L 54.162585 -95.25 A 6.0000008 5.9999823 0 0 1 48.249768 -90.249272 A 6.0000008 5.9999823 0 0 1 42.250134 -96.249422 A 6.0000008 5.9999823 0 0 1 48.249768 -102.24957 A 6.0000008 5.9999823 0 0 1 54.227698 -96.74965 L 64.249825 -96.74965 L 64.249825 -149.75003 L 62.749658 -149.75003 L 62.749658 -109.24966 L 54.162585 -109.24966 A 6.0000008 5.9999823 0 0 1 48.249768 -104.24945 A 6.0000008 5.9999823 0 0 1 42.250134 -110.2496 A 6.0000008 5.9999823 0 0 1 48.249768 -116.24924 A 6.0000008 5.9999823 0 0 1 54.227698 -110.74983 L 61.250008 -110.74983 L 61.250008 -149.75003 L 59.749841 -149.75003 L 59.749841 -123.24984 L 54.162585 -123.24984 A 6.0000008 5.9999823 0 0 1 48.249768 -118.24963 A 6.0000008 5.9999823 0 0 1 42.250134 -124.24926 A 6.0000008 5.9999823 0 0 1 48.249768 -130.24941 A 6.0000008 5.9999823 0 0 1 54.227698 -124.75001 L 58.249674 -124.75001 L 58.249674 -149.75003 L 56.750024 -149.75003 L 56.750024 -137.25002 L 54.163102 -137.25002 A 6.0000008 5.9999823 0 0 1 48.249768 -132.24929 A 6.0000008 5.9999823 0 0 1 42.250134 -138.24944 A 6.0000008 5.9999823 0 0 1 48.249768 -144.24959 A 6.0000008 5.9999823 0 0 1 54.227698 -138.74967 L 55.249858 -138.74967 L 55.249858 -149.75003 L 37.249923 -149.75003 L 37.249923 -0.25011393 z "
       transform="rotate(90)" />
  </g>
</svg>
